<svg width="635" height="329" fill="none" xmlns="http://www.w3.org/2000/svg"><mask id="a" maskUnits="userSpaceOnUse" x="0" y="0" width="635" height="329"><rect width="635" height="329" rx="6" fill="url(#paint0_linear)"/></mask><g mask="url(#a)"><path fill-rule="evenodd" clip-rule="evenodd" d="M117.82 377.25c233.679 0 423.07-183.251 423.07-409.25S351.499-441.25 117.82-441.25-305.25-257.999-305.25-32s189.391 409.25 423.07 409.25zm0 .75c234.07 0 423.82-183.563 423.82-410S351.89-442 117.82-442C-116.249-442-306-258.437-306-32s189.751 410 423.82 410zm0-8.869c229.044 0 414.678-179.616 414.678-401.131 0-221.515-185.634-401.131-414.678-401.131s-414.678 179.616-414.678 401.13c0 221.516 185.634 401.132 414.678 401.132zm0 .75c229.435 0 415.428-179.928 415.428-401.881 0-221.953-185.993-401.881-415.428-401.881-229.434 0-415.428 179.928-415.428 401.88 0 221.954 185.994 401.882 415.428 401.882zM524.105-32c0 217.031-181.876 393.012-406.285 393.012-224.409 0-406.285-175.981-406.285-393.012s181.876-393.012 406.285-393.012c224.409 0 406.285 175.981 406.285 393.012zm.75 0c0 217.469-182.235 393.762-407.035 393.762-224.799 0-407.035-176.293-407.035-393.762s182.236-393.762 407.035-393.762c224.8 0 407.035 176.293 407.035 393.762zM117.82 352.894c219.774 0 397.893-172.346 397.893-384.894S337.594-416.894 117.82-416.894c-219.774 0-397.893 172.346-397.893 384.894s178.119 384.894 397.893 384.894zm0 .75c220.164 0 398.643-172.659 398.643-385.644S337.984-417.644 117.82-417.644c-220.164 0-398.643 172.659-398.643 385.644s178.479 385.644 398.643 385.644zM507.32-32c0 208.064-174.361 376.775-389.5 376.775-215.138 0-389.5-168.711-389.5-376.775 0-208.064 174.362-376.775 389.5-376.775 215.139 0 389.5 168.711 389.5 376.775zm.75 0c0 208.501-174.721 377.525-390.25 377.525-215.53 0-390.25-169.024-390.25-377.525 0-208.501 174.72-377.525 390.25-377.525 215.529 0 390.25 169.024 390.25 377.525zM117.82 336.656c210.504 0 381.108-165.076 381.108-368.656S328.324-400.656 117.82-400.656C-92.683-400.656-263.288-235.58-263.288-32S-92.683 336.656 117.82 336.656zm0 .75c210.894 0 381.858-165.389 381.858-369.406S328.714-401.406 117.82-401.406-264.038-236.017-264.038-32-93.074 337.406 117.82 337.406zM490.536-32c0 199.096-166.847 360.537-372.716 360.537-205.868 0-372.715-161.441-372.715-360.537 0-199.096 166.847-360.537 372.715-360.537 205.869 0 372.716 161.441 372.716 360.537zm.75 0c0 199.533-167.207 361.287-373.466 361.287-206.259 0-373.465-161.754-373.465-361.287S-88.439-393.287 117.82-393.287 491.286-231.533 491.286-32zM117.82 320.418c201.234 0 364.323-157.806 364.323-352.418S319.054-384.418 117.82-384.418c-201.233 0-364.323 157.806-364.323 352.418s163.09 352.418 364.323 352.418zm0 .75c201.624 0 365.073-158.119 365.073-353.168S319.444-385.168 117.82-385.168c-201.624 0-365.073 158.119-365.073 353.168S-83.804 321.168 117.82 321.168zM473.751-32c0 190.128-159.332 344.299-355.931 344.299-196.598 0-355.93-154.171-355.93-344.299s159.332-344.299 355.93-344.299c196.599 0 355.931 154.171 355.931 344.299zm.75 0c0 190.566-159.692 345.049-356.681 345.049-196.989 0-356.68-154.483-356.68-345.049 0-190.566 159.691-345.049 356.68-345.049S474.501-222.566 474.501-32zM117.82 304.181c191.964 0 347.538-150.537 347.538-336.181 0-185.644-155.574-336.181-347.538-336.181-191.963 0-347.538 150.537-347.538 336.181 0 185.644 155.575 336.181 347.538 336.181zm0 .75c192.354 0 348.288-150.849 348.288-336.931S310.174-368.931 117.82-368.931-230.468-218.082-230.468-32-74.534 304.931 117.82 304.931zM456.966-32c0 181.16-151.817 328.062-339.146 328.062-187.328 0-339.145-146.902-339.145-328.062 0-181.16 151.817-328.062 339.145-328.062 187.329 0 339.146 146.902 339.146 328.062zm.75 0c0 181.598-152.177 328.812-339.896 328.812-187.719 0-339.895-147.214-339.895-328.812S-69.899-360.812 117.82-360.812 457.716-213.598 457.716-32zM117.82 287.943c182.694 0 330.753-143.267 330.753-319.943S300.514-351.943 117.82-351.943c-182.693 0-330.753 143.267-330.753 319.943s148.06 319.943 330.753 319.943zm0 .75c183.084 0 331.503-143.579 331.503-320.693 0-177.114-148.419-320.693-331.503-320.693-183.084 0-331.503 143.579-331.503 320.693 0 177.114 148.42 320.693 331.503 320.693zM440.181-32c0 172.193-144.302 311.824-322.361 311.824-178.058 0-322.36-139.631-322.36-311.824s144.302-311.824 322.36-311.824c178.059 0 322.361 139.631 322.361 311.824zm.75 0c0 172.63-144.662 312.574-323.111 312.574-178.449 0-323.11-139.944-323.11-312.574 0-172.63 144.661-312.574 323.11-312.574S440.931-204.63 440.931-32zM117.82 271.706c173.424 0 313.968-135.997 313.968-303.706S291.244-335.705 117.82-335.705c-173.423 0-313.968 135.996-313.968 303.705 0 167.709 140.545 303.706 313.968 303.706zm0 .75c173.814 0 314.718-136.31 314.718-304.456 0-168.146-140.904-304.455-314.718-304.455-173.814 0-314.718 136.309-314.718 304.455S-55.994 272.456 117.82 272.456zM423.396-32c0 163.225-136.787 295.587-305.576 295.587-168.788 0-305.575-132.362-305.575-295.587S-50.968-327.587 117.82-327.587c168.789 0 305.576 132.362 305.576 295.587zm.75 0c0 163.662-137.147 296.337-306.326 296.337-169.179 0-306.325-132.675-306.325-296.337 0-163.662 137.146-296.337 306.325-296.337S424.146-195.662 424.146-32zM117.82 255.468c164.154 0 297.183-128.727 297.183-287.468S281.974-319.468 117.82-319.468c-164.153 0-297.183 128.727-297.183 287.468s133.03 287.468 297.183 287.468zm0 .75c164.544 0 297.933-129.04 297.933-288.218 0-159.178-133.389-288.218-297.933-288.218-164.544 0-297.933 129.04-297.933 288.218 0 159.178 133.39 288.218 297.933 288.218zM406.611-32c0 154.257-129.272 279.349-288.791 279.349-159.518 0-288.79-125.092-288.79-279.349s129.272-279.349 288.79-279.349c159.519 0 288.791 125.092 288.791 279.349zm.75 0c0 154.694-129.632 280.099-289.541 280.099S-171.72 122.694-171.72-32s129.631-280.099 289.54-280.099c159.909 0 289.541 125.405 289.541 280.099zM117.82 239.23c154.883 0 280.398-121.457 280.398-271.23 0-149.773-125.515-271.23-280.398-271.23-154.883 0-280.398 121.457-280.398 271.23 0 149.773 125.515 271.23 280.398 271.23zm0 .75c155.274 0 281.148-121.77 281.148-271.98 0-150.211-125.874-271.98-281.148-271.98-155.274 0-281.148 121.769-281.148 271.98 0 150.21 125.874 271.98 281.148 271.98zM389.826-32c0 145.289-121.758 263.111-272.006 263.111S-154.185 113.289-154.185-32-32.428-295.111 117.82-295.111 389.826-177.289 389.826-32zm.75 0c0 145.727-122.117 263.861-272.756 263.861-150.638 0-272.755-118.134-272.755-263.861 0-145.727 122.117-263.861 272.755-263.861 150.639 0 272.756 118.134 272.756 263.861zM117.82 222.993c145.613 0 263.613-114.188 263.613-254.993s-118-254.993-263.613-254.993S-145.793-172.805-145.793-32s118 254.993 263.613 254.993zm0 .75c146.004 0 264.363-114.5 264.363-255.743S263.824-287.743 117.82-287.743c-146.004 0-264.363 114.5-264.363 255.743s118.36 255.743 264.363 255.743zM373.041-32c0 136.321-114.243 246.874-255.221 246.874S-137.4 104.321-137.4-32s114.242-246.874 255.22-246.874S373.041-168.321 373.041-32zm.75 0c0 136.759-114.602 247.624-255.971 247.624-141.368 0-255.97-110.865-255.97-247.624 0-136.759 114.602-247.624 255.97-247.624 141.369 0 255.971 110.865 255.971 247.624zM117.82 206.755c136.343 0 246.828-106.917 246.828-238.755 0-131.837-110.485-238.755-246.828-238.755-136.343 0-246.828 106.918-246.828 238.755 0 131.838 110.485 238.755 246.828 238.755zm0 .75c136.734 0 247.578-107.23 247.578-239.505 0-132.275-110.844-239.505-247.578-239.505-136.733 0-247.578 107.23-247.578 239.505 0 132.275 110.845 239.505 247.578 239.505zM356.256-32c0 127.353-106.728 230.636-238.436 230.636-131.708 0-238.435-103.282-238.435-230.636S-13.888-262.636 117.82-262.636 356.256-159.354 356.256-32zm.75 0c0 127.79-107.087 231.386-239.186 231.386-132.098 0-239.185-103.595-239.185-231.386S-14.278-263.386 117.82-263.386c132.099 0 239.186 103.595 239.186 231.386zM117.82 190.517c127.073 0 230.043-99.647 230.043-222.517 0-122.87-102.97-222.517-230.043-222.517-127.073 0-230.043 99.647-230.043 222.517 0 122.87 102.97 222.517 230.043 222.517zm0 .75c127.464 0 230.793-99.96 230.793-223.267S245.284-255.267 117.82-255.267c-127.463 0-230.793 99.96-230.793 223.267S-9.643 191.267 117.82 191.267zM339.471-32c0 118.386-99.213 214.399-221.651 214.399-122.438 0-221.651-96.013-221.651-214.399S-4.618-246.398 117.82-246.398c122.438 0 221.651 96.012 221.651 214.398zm.75 0c0 118.823-99.572 215.149-222.401 215.149-122.828 0-222.401-96.326-222.401-215.149 0-118.823 99.573-215.148 222.401-215.148 122.829 0 222.401 96.325 222.401 215.148zM117.82 174.28c117.803 0 213.258-92.378 213.258-206.28S235.623-238.28 117.82-238.28C.017-238.28-95.438-145.902-95.438-32S.017 174.28 117.82 174.28zm0 .75c118.194 0 214.008-92.69 214.008-207.03 0-114.339-95.814-207.03-214.008-207.03C-.373-239.03-96.188-146.339-96.188-32c0 114.34 95.815 207.03 214.008 207.03zM322.686-32c0 109.418-91.698 198.161-204.866 198.161C4.652 166.161-87.045 77.418-87.045-32S4.651-230.161 117.82-230.161s204.866 88.743 204.866 198.16zm.75 0c0 109.855-92.057 198.911-205.616 198.911C4.262 166.911-87.795 77.855-87.795-32c0-109.856 92.057-198.911 205.615-198.911 113.559 0 205.616 89.055 205.616 198.91zM117.82 158.042c108.533 0 196.473-85.108 196.473-190.042s-87.94-190.042-196.473-190.042C9.287-222.042-78.653-136.934-78.653-32S9.287 158.042 117.82 158.042zm0 .75c108.924 0 197.223-85.42 197.223-190.792S226.744-222.792 117.82-222.792C8.897-222.792-79.403-137.372-79.403-32c0 105.371 88.3 190.792 197.223 190.792zM305.901-32c0 100.45-84.183 181.923-188.081 181.923C13.922 149.923-70.26 68.45-70.26-32s84.182-181.923 188.08-181.923c103.898 0 188.081 81.473 188.081 181.923zm.75 0c0 100.888-84.542 182.673-188.831 182.673C13.532 150.673-71.01 68.888-71.01-32s84.542-182.673 188.83-182.673c104.289 0 188.831 81.785 188.831 182.673zM117.82 141.804c99.263 0 179.688-77.838 179.688-173.804 0-95.966-80.425-173.804-179.688-173.804-99.263 0-179.688 77.838-179.688 173.804 0 95.966 80.425 173.804 179.688 173.804zm0 .75c99.654 0 180.438-78.15 180.438-174.554S217.474-206.554 117.82-206.554c-99.653 0-180.438 78.15-180.438 174.554S18.167 142.554 117.82 142.554zM289.116-32c0 91.483-76.668 165.686-171.296 165.686C23.193 133.686-53.476 59.482-53.476-32c0-91.482 76.668-165.686 171.296-165.686 94.628 0 171.296 74.204 171.296 165.686zm.75 0c0 91.92-77.027 166.436-172.046 166.436C22.802 134.436-54.226 59.92-54.226-32S22.802-198.436 117.82-198.436c95.019 0 172.046 74.516 172.046 166.436zM117.82 125.567c89.993 0 162.904-70.568 162.904-157.567 0-86.999-72.911-157.567-162.904-157.567-89.992 0-162.903 70.568-162.903 157.567 0 86.999 72.91 157.567 162.903 157.567zm0 .75c90.383 0 163.654-70.881 163.654-158.317S208.203-190.317 117.82-190.317-45.833-119.436-45.833-32s73.27 158.317 163.653 158.317zM272.331-32c0 82.514-69.153 149.448-154.511 149.448C32.463 117.448-36.69 50.515-36.69-32s69.153-149.448 154.51-149.448c85.358 0 154.511 66.933 154.511 149.448zm.75 0c0 82.952-69.513 150.198-155.261 150.198C32.072 118.198-37.44 50.952-37.44-32c0-82.952 69.512-150.198 155.26-150.198 85.748 0 155.261 67.246 155.261 150.198zM117.82 109.329c80.723 0 146.119-63.298 146.119-141.33 0-78.03-65.396-141.328-146.119-141.328-80.722 0-146.118 63.298-146.118 141.329 0 78.03 65.396 141.329 146.118 141.329zm0 .75c81.113 0 146.869-63.61 146.869-142.08 0-78.467-65.756-142.078-146.869-142.078S-29.048-110.468-29.048-32c0 78.468 65.755 142.079 146.868 142.079zM255.546-32c0 73.547-61.638 133.211-137.726 133.211-76.087 0-137.726-59.664-137.726-133.21 0-73.548 61.639-133.211 137.726-133.211 76.088 0 137.726 59.663 137.726 133.21zm.75 0c0 73.984-61.998 133.961-138.476 133.961-76.478 0-138.476-59.977-138.476-133.96 0-73.985 61.998-133.961 138.476-133.961 76.478 0 138.476 59.976 138.476 133.96zM117.82 93.092c71.453 0 129.334-56.03 129.334-125.092 0-69.063-57.881-125.092-129.334-125.092-71.452 0-129.333 56.029-129.333 125.092 0 69.063 57.88 125.092 129.333 125.092zm0 .75C189.663 93.842 247.904 37.5 247.904-32S189.663-157.842 117.82-157.842-12.263-101.5-12.263-32 45.977 93.842 117.82 93.842zM238.761-32c0 64.579-54.123 116.973-120.941 116.973C51.003 84.973-3.12 32.579-3.12-32c0-64.579 54.123-116.973 120.94-116.973 66.818 0 120.941 52.394 120.941 116.973zm.75 0c0 65.017-54.483 117.723-121.691 117.723S-3.87 33.017-3.87-32c0-65.016 54.482-117.723 121.69-117.723S239.511-97.016 239.511-32zM117.82 76.854c62.183 0 112.549-48.759 112.549-108.854S180.003-140.854 117.82-140.854C55.638-140.854 5.272-92.095 5.272-32S55.638 76.854 117.82 76.854zm0 .75c62.573 0 113.299-49.071 113.299-109.604S180.393-141.604 117.82-141.604C55.247-141.604 4.522-92.533 4.522-32S55.247 77.604 117.82 77.604zM221.976-32c0 55.611-46.608 100.735-104.156 100.735C60.273 68.735 13.664 23.611 13.664-32S60.273-132.735 117.82-132.735c57.548 0 104.156 45.124 104.156 100.735zm.75 0c0 56.049-46.968 101.485-104.906 101.485S12.914 24.05 12.914-32 59.882-133.485 117.82-133.485 222.726-88.049 222.726-32zM117.82 60.616c52.913 0 95.764-41.489 95.764-92.616s-42.851-92.616-95.764-92.616c-52.912 0-95.763 41.489-95.763 92.616s42.85 92.616 95.763 92.616zm0 .75c53.303 0 96.514-41.801 96.514-93.366s-43.211-93.366-96.514-93.366S21.307-83.565 21.307-32s43.21 93.366 96.513 93.366zM205.191-32c0 46.643-39.093 84.498-87.371 84.498-48.277 0-87.37-37.855-87.37-84.498 0-46.644 39.093-84.498 87.37-84.498 48.278 0 87.371 37.855 87.371 84.498zm.75 0c0 47.08-39.453 85.248-88.121 85.248C69.152 53.248 29.7 15.08 29.7-32c0-47.08 39.452-85.248 88.12-85.248 48.668 0 88.121 38.167 88.121 85.248zM117.82 44.379c43.643 0 78.979-34.22 78.979-76.379 0-42.16-35.336-76.379-78.979-76.379-43.642 0-78.978 34.22-78.978 76.379 0 42.16 35.336 76.379 78.978 76.379zm0 .75c44.033 0 79.729-34.532 79.729-77.129 0-42.597-35.696-77.129-79.729-77.129S38.092-74.597 38.092-32c0 42.597 35.695 77.129 79.728 77.129zm70.586-77.13c0 37.677-31.579 68.26-70.586 68.26S47.234 5.677 47.234-32c0-37.675 31.579-68.259 70.586-68.259S188.406-69.676 188.406-32zm.75 0c0 38.114-31.938 69.01-71.336 69.01-39.398 0-71.336-30.896-71.336-69.01 0-38.112 31.938-69.009 71.336-69.009 39.398 0 71.336 30.897 71.336 69.01zM117.82 28.142c34.372 0 62.194-26.95 62.194-60.141 0-33.192-27.822-60.141-62.194-60.141S55.627-65.191 55.627-32c0 33.192 27.821 60.141 62.193 60.141zm0 .75c34.763 0 62.944-27.262 62.944-60.891 0-33.63-28.181-60.891-62.944-60.891-34.763 0-62.943 27.262-62.943 60.891 0 33.63 28.18 60.891 62.943 60.891zM171.621-32c0 28.708-24.064 52.022-53.801 52.022-29.737 0-53.8-23.314-53.8-52.022s24.063-52.022 53.8-52.022S171.621-60.708 171.621-32zm.75 0c0 29.145-24.423 52.772-54.551 52.772-30.127 0-54.55-23.627-54.55-52.772s24.422-52.772 54.55-52.772c30.128 0 54.551 23.627 54.551 52.772zM117.82 11.903c25.102 0 45.409-19.68 45.409-43.903 0-24.224-20.307-43.903-45.409-43.903S72.412-56.224 72.412-32s20.306 43.903 45.408 43.903zm0 .75c25.493 0 46.159-19.992 46.159-44.653 0-24.661-20.666-44.653-46.159-44.653-25.492 0-46.158 19.992-46.158 44.653 0 24.661 20.665 44.653 46.158 44.653zM138.051-32c0 10.772-9.034 19.547-20.231 19.547-11.197 0-20.231-8.775-20.231-19.547s9.034-19.547 20.231-19.547c11.197 0 20.231 8.775 20.231 19.547zm.75 0c0 11.21-9.393 20.297-20.981 20.297-11.587 0-20.981-9.087-20.981-20.297s9.394-20.297 20.981-20.297c11.588 0 20.981 9.087 20.981 20.297zM117.82-20.572c6.562 0 11.839-5.14 11.839-11.428 0-6.288-5.277-11.428-11.839-11.428S105.981-38.288 105.981-32c0 6.288 5.277 11.428 11.839 11.428zm0 .75c6.953 0 12.589-5.452 12.589-12.178 0-6.726-5.636-12.178-12.589-12.178-6.952 0-12.589 5.452-12.589 12.178 0 6.726 5.637 12.178 12.589 12.178zM121.266-32c0 1.804-1.519 3.31-3.446 3.31-1.927 0-3.446-1.506-3.446-3.31 0-1.805 1.519-3.31 3.446-3.31 1.927 0 3.446 1.505 3.446 3.31zm.75 0c0 2.242-1.878 4.06-4.196 4.06-2.317 0-4.196-1.818-4.196-4.06 0-2.242 1.879-4.06 4.196-4.06 2.318 0 4.196 1.818 4.196 4.06zM117.82 3.785c20.467 0 37.016-16.045 37.016-35.785 0-19.74-16.549-35.785-37.016-35.785S80.804-51.74 80.804-32c0 19.74 16.55 35.785 37.016 35.785zm0 .75c20.858 0 37.766-16.358 37.766-36.535 0-20.178-16.908-36.535-37.766-36.535-20.857 0-37.766 16.357-37.766 36.535 0 20.177 16.909 36.535 37.766 36.535zM146.444-32c0 15.256-12.792 27.666-28.624 27.666-15.832 0-28.623-12.41-28.623-27.666s12.791-27.666 28.623-27.666S146.444-47.256 146.444-32zm.75 0c0 15.694-13.151 28.416-29.374 28.416-16.222 0-29.373-12.722-29.373-28.416s13.151-28.416 29.373-28.416c16.223 0 29.374 12.722 29.374 28.416z" fill="url(#paint1_linear)"/></g><defs><linearGradient id="paint0_linear" x1="317.5" y1="0" x2="317.5" y2="329" gradientUnits="userSpaceOnUse"><stop stop-color="#EFF2F4" stop-opacity=".51"/><stop offset="1" stop-color="#EFF2F4"/></linearGradient><linearGradient id="paint1_linear" x1="118" y1="-.5" x2="354.5" y2="312.5" gradientUnits="userSpaceOnUse"><stop offset=".423" stop-color="#fff"/><stop offset="1" stop-color="#fff" stop-opacity=".23"/></linearGradient></defs></svg>