<svg width="9" height="17" viewBox="0 0 9 17" fill="none" xmlns="http://www.w3.org/2000/svg">
<path d="M8.01152 0.788484L6.05915 0.785156C3.86572 0.785156 2.44824 2.33034 2.44824 4.72193V6.53705H0.485214C0.315586 6.53705 0.178223 6.68316 0.178223 6.86339V9.49329C0.178223 9.67352 0.315743 9.81947 0.485214 9.81947H2.44824V16.4556C2.44824 16.6358 2.5856 16.7818 2.75523 16.7818H5.31642C5.48604 16.7818 5.62341 16.6356 5.62341 16.4556V9.81947H7.91864C8.08827 9.81947 8.22563 9.67352 8.22563 9.49329L8.22657 6.86339C8.22657 6.77686 8.19415 6.69398 8.13667 6.63274C8.07918 6.5715 8.00087 6.53705 7.91942 6.53705H5.62341V4.99835C5.62341 4.25879 5.78928 3.88335 6.696 3.88335L8.01121 3.88285C8.18068 3.88285 8.31804 3.73674 8.31804 3.55668V1.11466C8.31804 0.934765 8.18084 0.788817 8.01152 0.788484Z" fill="#515154"/>
</svg>
