<svg width="15" height="15" viewBox="0 0 15 15" fill="none" xmlns="http://www.w3.org/2000/svg">
<path d="M15 7.5C15 15 15 15 7.5 15C0 15 0 15 0 7.5C0 0 0 0 7.5 0C15 0 15 0 15 7.5Z" fill="#515154"/>
<path d="M8.67479 10.0503C9.26659 9.91553 9.83642 9.68115 10.3608 9.35156C10.7578 9.10107 10.8779 8.57667 10.6274 8.17822C10.3769 7.77978 9.85254 7.65967 9.45409 7.91016C8.26464 8.65869 6.73388 8.65723 5.54442 7.91016C5.146 7.65967 4.62157 7.77978 4.37108 8.17822C4.1206 8.5752 4.24071 9.10107 4.63769 9.35156C5.1621 9.68115 5.73192 9.91553 6.32372 10.0503L4.70214 11.6733C4.36963 12.0058 4.36963 12.5434 4.70214 12.876C4.86913 13.0415 5.08593 13.125 5.30272 13.125C5.52099 13.125 5.73778 13.0415 5.90479 12.876L7.49999 11.2808L9.0952 12.876C9.42772 13.2085 9.96532 13.2085 10.2978 12.876C10.6304 12.5435 10.6304 12.0044 10.2978 11.6733L8.67479 10.0503ZM7.49999 3.57715C8.16358 3.57715 8.70264 4.11621 8.70264 4.77978C8.70264 5.44189 8.16358 5.98096 7.49999 5.98096C6.83789 5.98096 6.29735 5.44189 6.29735 4.77978C6.29735 4.11621 6.83789 3.57715 7.49999 3.57715V3.57715ZM7.49999 7.68164C9.10108 7.68164 10.4033 6.37939 10.4033 4.77977C10.4033 3.17725 9.10108 1.875 7.49999 1.875C5.89892 1.875 4.59668 3.17725 4.59668 4.77832C4.59668 6.37939 5.89892 7.68164 7.49999 7.68164Z" fill="white"/>
</svg>
