<svg width="40" height="17" viewBox="0 0 40 17" fill="none" xmlns="http://www.w3.org/2000/svg">
<g clip-path="url(#clip0)">
<path d="M14.8042 13.671H13.3025V12.7926C12.7358 13.4585 12.24 13.7843 11.7229 13.7843C11.2554 13.7843 10.9437 13.5718 10.7737 13.1681C10.6887 12.9201 10.6179 12.5447 10.6179 11.9851V5.59598H12.1196V12.1551C12.155 12.3676 12.2471 12.4526 12.4383 12.4526C12.7217 12.4526 12.9908 12.1906 13.3096 11.7443V5.59598H14.8112V13.671H14.8042ZM9.49167 8.23098C9.49167 7.36682 9.32875 6.72223 9.02417 6.31848C8.6275 5.75182 7.99708 5.53932 7.35958 5.53932C6.63708 5.53932 6.08458 5.75182 5.695 6.31848C5.38333 6.72223 5.22042 7.38098 5.22042 8.23098V11.1139C5.22042 11.9639 5.36208 12.5589 5.67375 12.9556C6.07042 13.5222 6.72208 13.8056 7.3525 13.8056C7.99 13.8056 8.64167 13.5222 9.0525 12.9556C9.33583 12.5589 9.4775 11.9639 9.4775 11.1139V8.21682L9.49167 8.23098ZM8.00417 11.2768C8.075 12.0772 7.82708 12.481 7.36667 12.481C6.89917 12.481 6.65833 12.0772 6.72917 11.2768V8.07515C6.65833 7.27473 6.89917 6.89932 7.36667 6.89932C7.82708 6.89932 8.075 7.27473 8.00417 8.07515V11.2768V11.2768ZM3.56292 9.27932V13.671H1.98333V9.27932C1.98333 9.27932 0.332917 3.86765 0 2.86182H1.66458L2.77667 7.08348L3.88167 2.8689H5.53917L3.55583 9.27223" fill="#515154"/>
<path d="M30.274 6.87061C30.0403 6.87061 29.7782 7.01227 29.5303 7.23894V12.0981C29.764 12.3389 30.0261 12.4523 30.2669 12.4523C30.6919 12.4523 30.869 12.1548 30.869 11.3544V7.91186C30.869 7.11144 30.6778 6.87769 30.2599 6.87769L30.274 6.87061ZM36.1815 7.84102C36.1815 7.09727 35.9903 6.87769 35.5157 6.87769C35.0411 6.87769 34.8357 7.09019 34.8357 7.83394V8.71936H36.1815V7.84811" fill="#515154"/>
<path d="M39.4329 3.73994C39.4329 3.73994 39.1991 2.11077 38.4908 1.38118C37.5912 0.424935 36.5783 0.424935 36.125 0.375352C32.817 0.141602 27.8516 0.141602 27.8516 0.141602H27.8375C27.8375 0.141602 22.8791 0.141602 19.5712 0.375352C19.1108 0.432018 18.0979 0.432018 17.1983 1.38118C16.49 2.10368 16.2633 3.73994 16.2633 3.73994C16.2633 3.73994 16.0225 5.6666 16.0225 7.59327V9.39952C16.0225 11.3262 16.2633 13.2458 16.2633 13.2458C16.2633 13.2458 16.49 14.8891 17.1983 15.6116C18.0979 16.5608 19.2808 16.5324 19.805 16.6245C21.6962 16.8087 27.8445 16.8654 27.8445 16.8654C27.8445 16.8654 32.8241 16.8654 36.132 16.6245C36.5925 16.5679 37.5983 16.5679 38.4979 15.6187C39.2062 14.8962 39.44 13.2529 39.44 13.2529C39.44 13.2529 39.6666 11.3333 39.6666 9.39952V7.59327C39.6666 5.6666 39.4329 3.73994 39.4329 3.73994V3.73994ZM21.2145 13.6708H19.635V4.46244H17.9704V2.96077H22.957V4.46244H21.2216V13.6708H21.2145ZM26.9166 13.6708H25.415V12.7924C24.8483 13.4583 24.3525 13.7841 23.8354 13.7841C23.3679 13.7841 23.0562 13.5716 22.8862 13.1679C22.8012 12.9199 22.7304 12.5445 22.7304 11.9849V5.6666H24.232V12.162C24.2675 12.3745 24.3595 12.4595 24.5508 12.4595C24.8341 12.4595 25.1033 12.1974 25.422 11.7512V5.6666H26.9166V13.6708ZM32.3708 11.2766C32.3708 12.0133 32.3212 12.5374 32.2291 12.8774C32.0308 13.4724 31.6129 13.777 31.0462 13.777C30.5362 13.777 30.012 13.4654 29.5304 12.8704V13.6779H28.0995V2.96077H29.5162V6.44577C29.9837 5.8791 30.5079 5.54618 31.0391 5.54618C31.6058 5.54618 31.9883 5.8791 32.1725 6.46702C32.2787 6.79993 32.3708 7.31702 32.3708 8.07493V11.2766V11.2766ZM35.53 12.4595C35.8841 12.4595 36.0966 12.2612 36.1675 11.8716C36.1816 11.8008 36.1816 11.4466 36.1816 10.8658H37.6833V11.0924C37.6833 11.5599 37.6479 11.8929 37.6337 12.0345C37.5841 12.3604 37.4708 12.6508 37.3008 12.9058C36.9041 13.4866 36.3091 13.7699 35.5654 13.7699C34.8216 13.7699 34.255 13.5008 33.837 12.9483C33.5325 12.5445 33.3412 11.9566 33.3412 11.1066V8.3016C33.3412 7.4516 33.5183 6.78577 33.8229 6.37493C34.2337 5.82952 34.8145 5.5391 35.537 5.5391C36.2595 5.5391 36.8262 5.82243 37.237 6.37493C37.5204 6.78577 37.6975 7.4091 37.6975 8.26618V9.9166H34.85V11.3474C34.85 12.0912 35.0625 12.4595 35.5441 12.4595H35.53Z" fill="#515154"/>
</g>
<defs>
<clipPath id="clip0">
<rect width="39.6667" height="17" fill="white"/>
</clipPath>
</defs>
</svg>
