<svg width="101" height="19" viewBox="0 0 101 19" fill="none" xmlns="http://www.w3.org/2000/svg">
<path d="M11.8603 10.164C12.5116 11.0618 12.8373 12.0123 12.8373 13.0157C12.8373 13.667 12.6877 14.3007 12.3884 14.9168C12.1068 15.5329 11.7019 16.0786 11.1738 16.5539C10.6281 17.0468 9.9856 17.4252 9.24627 17.6893C8.52455 17.9533 7.75882 18.0854 6.94908 18.0854H0.47998V0.896033H5.65526C7.25713 0.896033 8.56856 1.35371 9.58953 2.26907C10.0648 2.69154 10.4257 3.19322 10.6721 3.77412C10.9362 4.33742 11.0682 4.92712 11.0682 5.54322C11.0682 6.08892 10.9714 6.60821 10.7777 7.10109C10.6017 7.57637 10.3465 7.99004 10.012 8.3421L9.80077 8.57974C10.5929 8.9318 11.2794 9.45989 11.8603 10.164ZM2.67155 7.89322H5.60245C6.32418 7.89322 6.91387 7.80521 7.37155 7.62918C8.35732 7.13629 8.8502 6.44098 8.8502 5.54322C8.8502 4.90952 8.59496 4.36382 8.08448 3.90615C7.52118 3.37805 6.71144 3.11401 5.65526 3.11401H2.67155V7.89322ZM6.94908 15.8674C7.68841 15.8674 8.33092 15.7354 8.87661 15.4713C9.43991 15.1897 9.87118 14.8288 10.1704 14.3887C10.4697 13.9487 10.6193 13.491 10.6193 13.0157C10.6193 12.558 10.4697 12.1003 10.1704 11.6427C9.88878 11.185 9.46631 10.8329 8.90301 10.5865C8.11088 10.252 7.17792 10.0848 6.10414 10.0848H2.67155V15.8674H6.94908Z" fill="#1D1D1D"/>
<path d="M27.5803 18.0854V15.8938H18.7876V10.5865H25.5207V8.3685H18.7876V3.11401H27.5803V0.896033H16.596V18.0854H27.5803Z" fill="#1D1D1D"/>
<path d="M43.9292 18.0854H41.1567L34.6348 8.87019H37.1168C37.8033 8.87019 38.3842 8.82618 38.8595 8.73817C39.3348 8.65015 39.6869 8.56214 39.9157 8.47412C40.479 8.22768 40.9103 7.86682 41.2095 7.39154C41.5264 6.89865 41.6848 6.42337 41.6848 5.9657C41.6848 5.47281 41.5352 5.01513 41.2359 4.59266C40.9367 4.15259 40.5054 3.80053 39.9421 3.53648C39.3788 3.25483 38.7275 3.11401 37.9882 3.11401H34.0011L34.0539 18.0854H31.8095V0.896033H37.9882C38.8155 0.896033 39.5901 1.02806 40.3118 1.2921C41.0335 1.55614 41.6672 1.93461 42.2129 2.42749C42.741 2.90277 43.1459 3.44847 43.4275 4.06457C43.7268 4.68068 43.8764 5.31439 43.8764 5.9657C43.8764 7.00427 43.5595 7.93723 42.9258 8.76457C42.6618 9.11663 42.3361 9.44229 41.9489 9.74154C41.5792 10.0408 41.1919 10.2872 40.7871 10.4809C40.1357 10.7273 39.5284 10.8505 38.9651 10.8505L43.9292 18.0854Z" fill="#1D1D1D"/>
<path d="M50.6508 14.7584L49.1193 18.0854H46.6901L54.7435 0.711201L62.3744 18.0854H59.9716L58.5193 14.7584H50.6508ZM54.6643 6.04491L51.6542 12.5668H57.5688L54.6643 6.04491Z" fill="#1D1D1D"/>
<path d="M71.5728 18.2438C72.4882 18.2438 73.3507 18.0766 74.1605 17.7421C74.9702 17.39 75.6919 16.8884 76.3256 16.237C76.9418 15.6033 77.417 14.8816 77.7515 14.0719C78.0859 13.2445 78.2532 12.3732 78.2532 11.4578V0.896033H76.0616V11.4578C76.0616 12.0739 75.9472 12.6636 75.7183 13.2269C75.4895 13.7902 75.1638 14.2831 74.7414 14.7056C74.3189 15.1281 73.8348 15.4625 73.2891 15.709C72.7434 15.9378 72.1713 16.0522 71.5728 16.0522C70.3934 16.0522 69.3373 15.6033 68.4043 14.7056C67.9818 14.2831 67.6562 13.7902 67.4273 13.2269C67.1985 12.6636 67.0841 12.0739 67.0841 11.4578V0.896033H64.8925V11.4578C64.8925 12.3732 65.0597 13.2445 65.3942 14.0719C65.7286 14.8816 66.2127 15.6033 66.8464 16.237C67.4625 16.8884 68.1755 17.39 68.9852 17.7421C69.8125 18.0766 70.6751 18.2438 71.5728 18.2438Z" fill="#1D1D1D"/>
<path d="M100.48 18.0854V0.631989L91.6609 12.0915L82.7626 0.631989V18.0854H85.0069V7.07468L91.6609 15.709L98.2884 7.10109V18.0854H100.48Z" fill="#1D1D1D"/>
</svg>
