<svg width="50" height="50" fill="none" xmlns="http://www.w3.org/2000/svg"><path d="M25 25a4.179 4.179 0 01-4.167-4.167A4.179 4.179 0 0125 16.667a4.179 4.179 0 014.166 4.166A4.179 4.179 0 0125 25zm12.5-3.75c0-7.563-5.521-12.917-12.5-12.917-6.98 0-12.5 5.354-12.5 12.917 0 4.875 4.062 11.333 12.5 19.042 8.437-7.709 12.5-14.167 12.5-19.042zM25 4.167c8.75 0 16.666 6.708 16.666 17.083 0 6.917-5.562 15.104-16.666 24.583C13.896 36.354 8.333 28.167 8.333 21.25 8.333 10.875 16.25 4.167 25 4.167z" fill="#3462F2"/></svg>