<svg width="252" height="302" viewBox="0 0 252 302" fill="none" xmlns="http://www.w3.org/2000/svg">
<path d="M243.75 1H8.25C4.24594 1 1 4.24594 1 8.25V293.75C1 297.754 4.24594 301 8.25 301H243.75C247.754 301 251 297.754 251 293.75V8.25C251 4.24594 247.754 1 243.75 1Z" stroke="#F5F5F7" stroke-width="2" stroke-miterlimit="10"/>
<path d="M126 134.85C156.376 134.85 181 110.226 181 79.85C181 49.4743 156.376 24.85 126 24.85C95.6243 24.85 71 49.4743 71 79.85C71 110.226 95.6243 134.85 126 134.85Z" stroke="#F5F5F7" stroke-width="4" stroke-miterlimit="10"/>
<path d="M181 243.74C204.621 243.74 223.77 224.591 223.77 200.97C223.77 177.349 204.621 158.2 181 158.2C157.379 158.2 138.23 177.349 138.23 200.97C138.23 224.591 157.379 243.74 181 243.74Z" stroke="#F5F5F7" stroke-width="4" stroke-miterlimit="10"/>
<path d="M64.78 234.23C83.149 234.23 98.04 219.339 98.04 200.97C98.04 182.601 83.149 167.71 64.78 167.71C46.411 167.71 31.52 182.601 31.52 200.97C31.52 219.339 46.411 234.23 64.78 234.23Z" stroke="#F5F5F7" stroke-width="4" stroke-miterlimit="10"/>
<path d="M31.52 278.29H223.77" stroke="#F5F5F7" stroke-width="4" stroke-miterlimit="10" stroke-dasharray="15 5"/>
</svg>
