<svg xmlns="http://www.w3.org/2000/svg" viewBox="0 0 254 304"><defs><style>.cls-1,.cls-2{fill:none;}.cls-1,.cls-2,.cls-3,.cls-4{stroke:#f5f5f7;stroke-miterlimit:10;}.cls-1{stroke-width:4px;}.cls-2{stroke-width:6px;}.cls-3,.cls-4{fill:#f5f5f7;}.cls-3{stroke-width:2px;}.cls-4{stroke-width:3px;}</style></defs><g id="Слой_2" data-name="Слой 2"><g id="Слой_1-2" data-name="Слой 1"><rect class="cls-1" x="2" y="2" width="250" height="300" rx="7.25"/><circle class="cls-2" cx="127" cy="80.85" r="55"/><circle class="cls-2" cx="182" cy="201.97" r="42.77"/><circle class="cls-2" cx="65.78" cy="201.97" r="33.26"/><circle class="cls-3" cx="71" cy="275.79" r="10.5"/><circle class="cls-3" cx="127" cy="275.79" r="10.5"/><circle class="cls-3" cx="183" cy="275.79" r="10.5"/><polygon class="cls-4" points="85.69 32.47 77.99 40.17 121.73 77.46 123.59 75.61 85.69 32.47"/><polygon class="cls-4" points="168.29 129.25 175.99 121.55 132.24 84.26 130.39 86.11 168.29 129.25"/><polygon class="cls-4" points="175.67 39.82 167.78 31.93 131.54 74.78 133.44 76.68 175.67 39.82"/><polygon class="cls-4" points="78.72 122.25 86.6 130.14 122.84 87.29 120.94 85.39 78.72 122.25"/><polygon class="cls-3" points="148.71 162.82 142.5 169.03 177.76 199.09 179.26 197.59 148.71 162.82"/><polygon class="cls-3" points="215.29 240.84 221.5 234.63 186.24 204.57 184.74 206.06 215.29 240.84"/><polygon class="cls-3" points="221.24 168.75 214.88 162.39 185.67 196.93 187.2 198.46 221.24 168.75"/><polygon class="cls-3" points="143.09 235.19 149.45 241.55 178.66 207.01 177.13 205.48 143.09 235.19"/><polygon class="cls-3" points="38.81 170.26 33.78 175.28 62.35 199.63 63.56 198.43 38.81 170.26"/><polygon class="cls-3" points="92.75 233.46 97.78 228.43 69.21 204.08 68 205.29 92.75 233.46"/><polygon class="cls-3" points="97.57 175.06 92.42 169.91 68.76 197.89 70 199.13 97.57 175.06"/><polygon class="cls-3" points="34.26 228.89 39.41 234.04 63.07 206.05 61.83 204.81 34.26 228.89"/></g></g></svg>