<svg width="252" height="302" viewBox="0 0 252 302" fill="none" xmlns="http://www.w3.org/2000/svg">
<path d="M243.75 1H8.25C4.24594 1 1 4.24594 1 8.25V293.75C1 297.754 4.24594 301 8.25 301H243.75C247.754 301 251 297.754 251 293.75V8.25C251 4.24594 247.754 1 243.75 1Z" stroke="#F5F5F7" stroke-width="2" stroke-miterlimit="10"/>
<path d="M126 134.85C156.376 134.85 181 110.226 181 79.85C181 49.4743 156.376 24.85 126 24.85C95.6243 24.85 71 49.4743 71 79.85C71 110.226 95.6243 134.85 126 134.85Z" stroke="#F5F5F7" stroke-width="4" stroke-miterlimit="10"/>
<path d="M181 243.74C204.621 243.74 223.77 224.591 223.77 200.97C223.77 177.349 204.621 158.2 181 158.2C157.379 158.2 138.23 177.349 138.23 200.97C138.23 224.591 157.379 243.74 181 243.74Z" stroke="#F5F5F7" stroke-width="4" stroke-miterlimit="10"/>
<path d="M64.78 234.23C83.149 234.23 98.04 219.339 98.04 200.97C98.04 182.601 83.149 167.71 64.78 167.71C46.411 167.71 31.52 182.601 31.52 200.97C31.52 219.339 46.411 234.23 64.78 234.23Z" stroke="#F5F5F7" stroke-width="4" stroke-miterlimit="10"/>
<path d="M70 285.29C75.799 285.29 80.5 280.589 80.5 274.79C80.5 268.991 75.799 264.29 70 264.29C64.201 264.29 59.5 268.991 59.5 274.79C59.5 280.589 64.201 285.29 70 285.29Z" fill="#F5F5F7" stroke="#F5F5F7" stroke-width="2" stroke-miterlimit="10"/>
<path d="M126 285.29C131.799 285.29 136.5 280.589 136.5 274.79C136.5 268.991 131.799 264.29 126 264.29C120.201 264.29 115.5 268.991 115.5 274.79C115.5 280.589 120.201 285.29 126 285.29Z" fill="#F5F5F7" stroke="#F5F5F7" stroke-width="2" stroke-miterlimit="10"/>
<path d="M182 285.29C187.799 285.29 192.5 280.589 192.5 274.79C192.5 268.991 187.799 264.29 182 264.29C176.201 264.29 171.5 268.991 171.5 274.79C171.5 280.589 176.201 285.29 182 285.29Z" fill="#F5F5F7" stroke="#F5F5F7" stroke-width="2" stroke-miterlimit="10"/>
<path d="M85.28 32.18L77.7 39.76L120.81 76.51L122.64 74.68L85.28 32.18Z" fill="#F5F5F7" stroke="#F5F5F7" stroke-miterlimit="10"/>
<path d="M166.69 127.55L174.28 119.96L131.16 83.21L129.34 85.04L166.69 127.55Z" fill="#F5F5F7" stroke="#F5F5F7" stroke-miterlimit="10"/>
<path d="M173.96 39.42L166.19 31.65L130.48 73.88L132.35 75.75L173.96 39.42Z" fill="#F5F5F7" stroke="#F5F5F7" stroke-miterlimit="10"/>
<path d="M78.42 120.65L86.19 128.43L121.9 86.2L120.03 84.33L78.42 120.65Z" fill="#F5F5F7" stroke="#F5F5F7" stroke-miterlimit="10"/>
<path d="M147.71 161.82L141.5 168.03L176.76 198.09L178.26 196.59L147.71 161.82Z" fill="#F5F5F7" stroke="#F5F5F7" stroke-miterlimit="10"/>
<path d="M214.29 239.84L220.5 233.63L185.24 203.57L183.74 205.06L214.29 239.84Z" fill="#F5F5F7" stroke="#F5F5F7" stroke-miterlimit="10"/>
<path d="M220.24 167.75L213.88 161.39L184.67 195.93L186.2 197.46L220.24 167.75Z" fill="#F5F5F7" stroke="#F5F5F7" stroke-miterlimit="10"/>
<path d="M142.09 234.19L148.45 240.55L177.66 206.01L176.13 204.48L142.09 234.19Z" fill="#F5F5F7" stroke="#F5F5F7" stroke-miterlimit="10"/>
<path d="M37.81 169.26L32.78 174.28L61.35 198.63L62.56 197.43L37.81 169.26Z" fill="#F5F5F7" stroke="#F5F5F7" stroke-miterlimit="10"/>
<path d="M91.75 232.46L96.78 227.43L68.21 203.08L67 204.29L91.75 232.46Z" fill="#F5F5F7" stroke="#F5F5F7" stroke-miterlimit="10"/>
<path d="M96.57 174.06L91.42 168.91L67.76 196.89L69 198.13L96.57 174.06Z" fill="#F5F5F7" stroke="#F5F5F7" stroke-miterlimit="10"/>
<path d="M33.26 227.89L38.41 233.04L62.07 205.05L60.83 203.81L33.26 227.89Z" fill="#F5F5F7" stroke="#F5F5F7" stroke-miterlimit="10"/>
</svg>
