<svg width="260" height="360" viewBox="0 0 260 360" fill="none" xmlns="http://www.w3.org/2000/svg">
<g clip-path="url(#clip0)">
<path d="M217.25 25.71H42.75C35.7084 25.71 30 31.4183 30 38.46V321.53C30 328.572 35.7084 334.28 42.75 334.28H217.25C224.292 334.28 230 328.572 230 321.53V38.46C230 31.4183 224.292 25.71 217.25 25.71Z" stroke="white" stroke-width="7" stroke-miterlimit="10"/>
<path d="M75 106.82C75 138.063 99.6243 163.39 130 163.39C160.376 163.39 185 138.063 185 106.82C185 75.5773 160.376 50.25 130 50.25C99.6243 50.25 75 75.5773 75 106.82Z" stroke="white" stroke-width="6" stroke-miterlimit="10"/>
<path d="M87.2295 229.96C87.2295 254.26 106.378 273.96 130 273.96C153.621 273.96 172.77 254.26 172.77 229.96C172.77 205.659 153.621 185.96 130 185.96C106.378 185.96 87.2295 205.659 87.2295 229.96Z" stroke="white" stroke-width="6" stroke-miterlimit="10"/>
<path d="M91.5 307.33C91.5 313.295 96.201 318.13 102 318.13C107.799 318.13 112.5 313.295 112.5 307.33C112.5 301.366 107.799 296.53 102 296.53C96.201 296.53 91.5 301.366 91.5 307.33Z" fill="#F5F5F7" stroke="white" stroke-width="2" stroke-miterlimit="10"/>
<path d="M147.5 307.33C147.5 313.295 152.201 318.13 158 318.13C163.799 318.13 168.5 313.295 168.5 307.33C168.5 301.366 163.799 296.53 158 296.53C152.201 296.53 147.5 301.366 147.5 307.33Z" fill="#F5F5F7" stroke="white" stroke-width="2" stroke-miterlimit="10"/>
<path d="M79.3696 151.54L87.0596 159.46L124.35 114.46L122.5 112.55L79.3696 151.54Z" fill="white" stroke="white" stroke-width="3" stroke-miterlimit="10"/>
<path d="M180.38 62.21L172.69 54.29L135.4 99.29L137.25 101.19L180.38 62.21Z" fill="white" stroke="white" stroke-width="3" stroke-miterlimit="10"/>
<path d="M87.4203 55.3496L79.5303 63.4596L122.39 100.73L124.28 98.7796L87.4203 55.3496Z" fill="white" stroke="white" stroke-width="3" stroke-miterlimit="10"/>
<path d="M172.68 157.98L180.57 149.87L137.72 112.6L135.82 114.55L172.68 157.98Z" fill="white" stroke="white" stroke-width="3" stroke-miterlimit="10"/>
<path d="M90.6796 264.66L96.6597 270.81L125.64 235.85L124.2 234.37L90.6796 264.66Z" fill="white" stroke="white" stroke-width="3" stroke-miterlimit="10"/>
<path d="M169.17 195.25L163.19 189.1L134.22 224.06L135.66 225.54L169.17 195.25Z" fill="white" stroke="white" stroke-width="3" stroke-miterlimit="10"/>
<path d="M96.9398 189.92L90.8098 196.23L124.11 225.19L125.59 223.67L96.9398 189.92Z" fill="white" stroke="white" stroke-width="3" stroke-miterlimit="10"/>
<path d="M163.19 269.67L169.32 263.36L136.02 234.4L134.55 235.92L163.19 269.67Z" fill="white" stroke="white" stroke-width="3" stroke-miterlimit="10"/>
</g>
<defs>
<clipPath id="clip0">
<rect width="360" height="260" fill="white" transform="translate(260) rotate(90)"/>
</clipPath>
</defs>
</svg>
