<svg xmlns="http://www.w3.org/2000/svg" viewBox="0 0 360 260"><defs><style>.cls-1,.cls-2,.cls-5{fill:none;}.cls-1,.cls-2,.cls-3,.cls-4{stroke:#fff;stroke-miterlimit:10;}.cls-1{stroke-width:7px;}.cls-2{stroke-width:6px;}.cls-3{fill:#f5f5f7;stroke-width:2px;}.cls-4{fill:#fff;stroke-width:3px;}</style></defs><g id="Слой_2" data-name="Слой 2"><g id="Слой_1-2" data-name="Слой 1"><rect class="cls-1" x="80" y="-24.29" width="200" height="308.57" rx="12.75" transform="translate(50 310) rotate(-90)"/><ellipse class="cls-2" cx="106.82" cy="130" rx="56.57" ry="55"/><ellipse class="cls-2" cx="229.96" cy="130" rx="44" ry="42.77"/><ellipse class="cls-3" cx="307.33" cy="158" rx="10.8" ry="10.5"/><ellipse class="cls-3" cx="307.33" cy="102" rx="10.8" ry="10.5"/><polygon class="cls-4" points="151.54 180.63 159.46 172.94 114.46 135.65 112.55 137.5 151.54 180.63"/><polygon class="cls-4" points="62.21 79.62 54.29 87.31 99.29 124.6 101.19 122.75 62.21 79.62"/><polygon class="cls-4" points="55.35 172.58 63.46 180.47 100.73 137.61 98.78 135.72 55.35 172.58"/><polygon class="cls-4" points="157.98 87.32 149.87 79.43 112.6 122.28 114.55 124.18 157.98 87.32"/><polygon class="cls-4" points="264.66 169.32 270.81 163.34 235.85 134.36 234.37 135.8 264.66 169.32"/><polygon class="cls-4" points="195.25 90.83 189.1 96.81 224.06 125.78 225.54 124.34 195.25 90.83"/><polygon class="cls-4" points="189.92 163.06 196.23 169.19 225.19 135.89 223.67 134.41 189.92 163.06"/><polygon class="cls-4" points="269.67 96.81 263.36 90.68 234.4 123.98 235.92 125.45 269.67 96.81"/><rect class="cls-5" x="50" y="-50" width="260" height="360" transform="translate(50 310) rotate(-90)"/></g></g></svg>