<svg width="13" height="10" fill="none" xmlns="http://www.w3.org/2000/svg"><path d="M11.717 10c.29 0 .54-.094.753-.28L8.825 6.128a66.21 66.21 0 00-.252.179 16.82 16.82 0 01-.664.463c-.17.111-.397.224-.679.34a2.094 2.094 0 01-.79.173h-.014c-.244 0-.507-.058-.79-.173a4.103 4.103 0 01-.678-.34 16.91 16.91 0 01-.665-.463c-.076-.055-.16-.116-.251-.18L.396 9.72c.213.186.464.28.753.28h10.569zM.725 4.292A3.792 3.792 0 010 3.676v5.465l3.213-3.166C2.57 5.533 1.742 4.973.725 4.292zM12.148 4.292c-.977.652-1.809 1.214-2.493 1.685l3.211 3.165V3.676a3.945 3.945 0 01-.718.616z" fill="#6A6A6D"/><path d="M11.718 0H1.149C.781 0 .497.123.3.368.099.613 0 .92 0 1.288c0 .297.131.619.394.965.264.347.544.62.84.817.163.114.654.45 1.472 1.009a474.75 474.75 0 011.989 1.366l.198.14a7.332 7.332 0 00.761.499c.146.085.283.15.413.192.129.042.249.063.359.063h.014c.11 0 .23-.02.359-.063.13-.043.267-.106.413-.191a7.672 7.672 0 00.761-.5 49.299 49.299 0 01.305-.215l.727-.498 2.633-1.802c.35-.24.642-.53.876-.87.234-.34.352-.695.352-1.068 0-.311-.114-.578-.341-.8A1.119 1.119 0 0011.718 0z" fill="#6A6A6D"/></svg>