<svg width="1680" height="515" fill="none" xmlns="http://www.w3.org/2000/svg"><mask id="a" maskUnits="userSpaceOnUse" x="0" y="0" width="1680" height="515"><path fill="#63687D" d="M0 0h1680v515H0z"/></mask><g mask="url(#a)" fill-rule="evenodd" clip-rule="evenodd"><path d="M231.5 770.5c291.606 0 528-236.394 528-528s-236.394-528-528-528-528 236.394-528 528 236.394 528 528 528zm0 .5C523.383 771 760 534.383 760 242.5 760-49.382 523.383-286 231.5-286-60.382-286-297-49.382-297 242.5-297 534.383-60.382 771 231.5 771zm0-10.965c285.827 0 517.535-231.708 517.535-517.535S517.327-275.035 231.5-275.035c-285.826 0-517.534 231.709-517.534 517.535 0 285.827 231.708 517.535 517.534 517.535zm0 .5c286.103 0 518.035-231.932 518.035-518.035 0-286.103-231.932-518.035-518.035-518.035-286.103 0-518.034 231.932-518.034 518.035 0 286.103 231.931 518.035 518.034 518.035zM738.569 242.5c0 280.047-227.023 507.069-507.069 507.069-280.047 0-507.07-227.022-507.07-507.069S-48.547-264.569 231.5-264.569c280.046 0 507.069 227.022 507.069 507.069zm.5 0c0 280.323-227.247 507.569-507.569 507.569-280.323 0-507.57-227.246-507.57-507.569S-48.823-265.069 231.5-265.069c280.322 0 507.569 227.246 507.569 507.569zM231.5 739.104c274.267 0 496.604-222.337 496.604-496.604S505.767-254.104 231.5-254.104-265.104-31.767-265.104 242.5-42.767 739.104 231.5 739.104zm0 .5c274.543 0 497.104-222.561 497.104-497.104S506.043-254.604 231.5-254.604-265.604-32.043-265.604 242.5-43.043 739.604 231.5 739.604zM717.638 242.5c0 268.487-217.651 486.139-486.138 486.139-268.487 0-486.139-217.652-486.139-486.139S-36.987-243.639 231.5-243.639 717.638-25.987 717.638 242.5zm.5 0c0 268.763-217.875 486.639-486.638 486.639S-255.139 511.263-255.139 242.5c0-268.763 217.876-486.639 486.639-486.639 268.763 0 486.638 217.876 486.638 486.639zM231.5 718.173c262.707 0 475.673-212.966 475.673-475.673S494.207-233.173 231.5-233.173-244.173-20.207-244.173 242.5-31.207 718.173 231.5 718.173zm0 .5c262.983 0 476.173-213.19 476.173-476.173S494.483-233.673 231.5-233.673-244.673-20.483-244.673 242.5-31.483 718.673 231.5 718.673zM696.708 242.5c0 256.927-208.281 465.208-465.208 465.208S-233.708 499.427-233.708 242.5-25.428-222.708 231.5-222.708c256.927 0 465.208 208.28 465.208 465.208zm.5 0c0 257.203-208.505 465.708-465.708 465.708-257.204 0-465.708-208.505-465.708-465.708 0-257.203 208.504-465.708 465.708-465.708 257.203 0 465.708 208.505 465.708 465.708zM231.5 697.242c251.147 0 454.742-203.595 454.742-454.742 0-251.147-203.595-454.743-454.742-454.743-251.147 0-454.743 203.596-454.743 454.743S-19.647 697.242 231.5 697.242zm0 .5c251.423 0 455.242-203.819 455.242-455.242 0-251.424-203.819-455.243-455.242-455.243-251.423 0-455.243 203.82-455.243 455.243S-19.923 697.742 231.5 697.742zM675.777 242.5c0 245.368-198.909 444.277-444.277 444.277-245.367 0-444.277-198.909-444.277-444.277S-13.867-201.777 231.5-201.777c245.368 0 444.277 198.91 444.277 444.277zm.5 0c0 245.644-199.133 444.777-444.777 444.777-245.643 0-444.777-199.133-444.777-444.777 0-245.644 199.133-444.777 444.777-444.777 245.644 0 444.777 199.133 444.777 444.777zM231.5 676.312c239.588 0 433.812-194.224 433.812-433.812 0-239.588-194.224-433.812-433.812-433.812-239.588 0-433.812 194.224-433.812 433.812 0 239.588 194.224 433.812 433.812 433.812zm0 .5c239.864 0 434.312-194.448 434.312-434.312S471.364-191.812 231.5-191.812-202.812 2.636-202.812 242.5-8.364 676.812 231.5 676.812zM654.846 242.5c0 233.808-189.538 423.347-423.346 423.347S-191.847 476.308-191.847 242.5-2.307-180.846 231.5-180.846c233.808 0 423.346 189.538 423.346 423.346zm.5 0c0 234.084-189.762 423.847-423.846 423.847S-192.347 476.584-192.347 242.5c0-234.084 189.763-423.846 423.847-423.846 234.084 0 423.846 189.762 423.846 423.846zM231.5 655.381c228.028 0 412.881-184.853 412.881-412.881 0-228.028-184.853-412.881-412.881-412.881-228.028 0-412.881 184.853-412.881 412.881 0 228.028 184.853 412.881 412.881 412.881zm0 .5c228.304 0 413.381-185.077 413.381-413.381 0-228.304-185.077-413.381-413.381-413.381-228.304 0-413.381 185.077-413.381 413.381 0 228.304 185.077 413.381 413.381 413.381zM633.916 242.5c0 222.248-180.168 402.416-402.416 402.416S-170.916 464.748-170.916 242.5 9.252-159.916 231.5-159.916 633.916 20.252 633.916 242.5zm.5 0c0 222.524-180.392 402.916-402.916 402.916S-171.416 465.024-171.416 242.5 8.976-160.416 231.5-160.416 634.416 19.976 634.416 242.5zM231.5 634.45c216.468 0 391.95-175.482 391.95-391.95S447.968-149.451 231.5-149.451-160.451 26.032-160.451 242.5c0 216.468 175.483 391.95 391.951 391.95zm0 .5c216.744 0 392.45-175.706 392.45-392.45S448.244-149.951 231.5-149.951c-216.745 0-392.451 175.707-392.451 392.451 0 216.744 175.706 392.45 392.451 392.45zM612.985 242.5c0 210.688-170.797 381.485-381.485 381.485-210.689 0-381.485-170.797-381.485-381.485 0-210.688 170.796-381.485 381.485-381.485 210.688 0 381.485 170.797 381.485 381.485zm.5 0c0 210.965-171.021 381.985-381.985 381.985-210.965 0-381.985-171.02-381.985-381.985 0-210.964 171.02-381.985 381.985-381.985 210.964 0 381.985 171.02 381.985 381.985zM231.5 613.52c204.909 0 371.02-166.111 371.02-371.02S436.409-128.52 231.5-128.52-139.52 37.592-139.52 242.5c0 204.909 166.111 371.02 371.02 371.02zm0 .5c205.185 0 371.52-166.335 371.52-371.52 0-205.185-166.335-371.52-371.52-371.52-205.185 0-371.52 166.335-371.52 371.52 0 205.185 166.335 371.52 371.52 371.52zM592.055 242.5c0 199.129-161.426 360.554-360.555 360.554-199.128 0-360.554-161.425-360.554-360.554 0-199.129 161.426-360.555 360.554-360.555 199.129 0 360.555 161.426 360.555 360.555zm.5 0c0 199.405-161.65 361.054-361.055 361.054-199.404 0-361.054-161.649-361.054-361.054 0-199.405 161.65-361.055 361.054-361.055 199.405 0 361.055 161.65 361.055 361.055zM231.5 592.589c193.349 0 350.089-156.74 350.089-350.089S424.849-107.589 231.5-107.589-118.589 49.151-118.589 242.5 38.151 592.589 231.5 592.589zm0 .5c193.625 0 350.589-156.964 350.589-350.589S425.125-108.089 231.5-108.089-119.089 48.875-119.089 242.5 37.875 593.089 231.5 593.089zM571.124 242.5c0 187.569-152.055 339.624-339.624 339.624-187.569 0-339.624-152.055-339.624-339.624 0-187.57 152.055-339.624 339.624-339.624 187.569 0 339.624 152.055 339.624 339.624zm.5 0c0 187.845-152.279 340.124-340.124 340.124-187.845 0-340.124-152.279-340.124-340.124 0-187.845 152.279-340.124 340.124-340.124 187.845 0 340.124 152.279 340.124 340.124zM231.5 571.658c181.789 0 329.158-147.369 329.158-329.158 0-181.79-147.369-329.158-329.158-329.158C49.71-86.658-97.658 60.71-97.658 242.5c0 181.789 147.369 329.158 329.158 329.158zm0 .5c182.065 0 329.658-147.593 329.658-329.658 0-182.065-147.593-329.658-329.658-329.658C49.435-87.158-98.158 60.435-98.158 242.5c0 182.065 147.593 329.658 329.658 329.658zM550.193 242.5c0 176.009-142.684 318.693-318.693 318.693-176.01 0-318.693-142.684-318.693-318.693C-87.193 66.49 55.49-76.193 231.5-76.193c176.009 0 318.693 142.684 318.693 318.693zm.5 0c0 176.286-142.908 319.193-319.193 319.193-176.286 0-319.193-142.907-319.193-319.193 0-176.285 142.907-319.193 319.193-319.193 176.285 0 319.193 142.908 319.193 319.193zM231.5 550.728c170.229 0 308.228-137.999 308.228-308.228 0-170.23-137.999-308.228-308.228-308.228C61.27-65.728-76.728 72.27-76.728 242.5c0 170.229 137.999 308.228 308.228 308.228zm0 .5c170.506 0 308.728-138.223 308.728-308.728 0-170.506-138.222-308.728-308.728-308.728S-77.228 71.994-77.228 242.5c0 170.505 138.222 308.728 308.728 308.728zM529.262 242.5c0 164.45-133.313 297.762-297.762 297.762-164.45 0-297.763-133.312-297.763-297.762S67.05-55.262 231.5-55.262c164.449 0 297.762 133.312 297.762 297.762zm.5 0c0 164.726-133.537 298.262-298.262 298.262-164.726 0-298.263-133.536-298.263-298.262S66.774-55.762 231.5-55.762c164.725 0 298.262 133.536 298.262 298.262zM231.5 529.797c158.67 0 287.297-128.627 287.297-287.297 0-158.67-128.627-287.297-287.297-287.297C72.83-44.797-55.797 83.83-55.797 242.5c0 158.67 128.627 287.297 287.297 287.297zm0 .5c158.946 0 287.797-128.851 287.797-287.797 0-158.946-128.851-287.797-287.797-287.797C72.554-45.297-56.297 83.554-56.297 242.5c0 158.946 128.85 287.797 287.797 287.797zM508.332 242.5c0 152.89-123.942 276.832-276.832 276.832S-45.332 395.39-45.332 242.5 78.61-34.332 231.5-34.332 508.332 89.61 508.332 242.5zm.5 0c0 153.166-124.166 277.332-277.332 277.332S-45.832 395.666-45.832 242.5 78.334-34.832 231.5-34.832 508.832 89.334 508.832 242.5zM231.5 508.866c147.11 0 266.366-119.256 266.366-266.366 0-147.11-119.256-266.366-266.366-266.366C84.39-23.866-34.866 95.39-34.866 242.5c0 147.11 119.256 266.366 266.366 266.366zm0 .5c147.386 0 266.866-119.48 266.866-266.866 0-147.386-119.48-266.866-266.866-266.866-147.386 0-266.866 119.48-266.866 266.866 0 147.386 119.48 266.866 266.866 266.866zM487.401 242.5c0 141.33-114.57 255.901-255.901 255.901-141.33 0-255.9-114.571-255.9-255.901S90.17-13.401 231.5-13.401c141.331 0 255.901 114.571 255.901 255.901zm.5 0c0 141.606-114.794 256.401-256.401 256.401-141.606 0-256.4-114.795-256.4-256.401S89.893-13.901 231.5-13.901c141.607 0 256.401 114.795 256.401 256.401zM231.5 487.936c135.551 0 245.436-109.886 245.436-245.436S367.051-2.936 231.5-2.936C95.95-2.936-13.935 106.95-13.935 242.5S95.95 487.936 231.5 487.936zm0 .5c135.827 0 245.936-110.109 245.936-245.936S367.327-3.436 231.5-3.436C95.674-3.436-14.435 106.673-14.435 242.5S95.674 488.436 231.5 488.436zM466.471 242.5c0 129.771-105.2 234.97-234.971 234.97-129.77 0-234.97-105.199-234.97-234.97 0-129.77 105.2-234.97 234.97-234.97 129.771 0 234.971 105.2 234.971 234.97zm.5 0c0 130.047-105.424 235.47-235.471 235.47-130.046 0-235.47-105.423-235.47-235.47S101.454 7.03 231.5 7.03c130.047 0 235.471 105.423 235.471 235.47zM231.5 467.005c123.991 0 224.505-100.514 224.505-224.505S355.491 17.995 231.5 17.995 6.995 118.51 6.995 242.5 107.509 467.005 231.5 467.005zm0 .5c124.267 0 225.005-100.738 225.005-225.005S355.767 17.495 231.5 17.495 6.495 118.233 6.495 242.5 107.233 467.505 231.5 467.505zM445.54 242.5c0 118.211-95.829 214.04-214.04 214.04S17.46 360.711 17.46 242.5 113.29 28.46 231.5 28.46 445.54 124.29 445.54 242.5zm.5 0c0 118.487-96.053 214.54-214.54 214.54S16.96 360.987 16.96 242.5 113.013 27.96 231.5 27.96s214.54 96.053 214.54 214.54zM231.5 446.074c112.431 0 203.574-91.143 203.574-203.574 0-112.431-91.143-203.574-203.574-203.574-112.431 0-203.574 91.143-203.574 203.574 0 112.431 91.143 203.574 203.574 203.574zm0 .5c112.707 0 204.074-91.367 204.074-204.074 0-112.707-91.367-204.074-204.074-204.074-112.707 0-204.074 91.367-204.074 204.074 0 112.707 91.367 204.074 204.074 204.074zM424.609 242.5c0 106.651-86.458 193.109-193.109 193.109-106.651 0-193.11-86.458-193.11-193.109 0-106.651 86.459-193.109 193.11-193.109 106.651 0 193.109 86.458 193.109 193.109zm.5 0c0 106.927-86.682 193.609-193.609 193.609S37.89 349.427 37.89 242.5 124.574 48.891 231.5 48.891 425.109 135.573 425.109 242.5zM231.5 425.144c100.871 0 182.644-81.773 182.644-182.644 0-100.871-81.773-182.644-182.644-182.644-100.871 0-182.644 81.773-182.644 182.644 0 100.871 81.773 182.644 182.644 182.644zm0 .5c101.147 0 183.144-81.997 183.144-183.144S332.647 59.356 231.5 59.356 48.356 141.353 48.356 242.5 130.353 425.644 231.5 425.644zM403.678 242.5c0 95.091-77.087 172.178-172.178 172.178-95.092 0-172.178-77.087-172.178-172.178S136.408 70.322 231.5 70.322c95.091 0 172.178 77.087 172.178 172.178zm.5 0c0 95.367-77.311 172.678-172.678 172.678-95.368 0-172.678-77.311-172.678-172.678 0-95.368 77.31-172.678 172.678-172.678 95.367 0 172.678 77.31 172.678 172.678zM231.5 404.213c89.312 0 161.713-72.401 161.713-161.713S320.812 80.787 231.5 80.787 69.787 153.188 69.787 242.5 142.188 404.213 231.5 404.213zm0 .5c89.588 0 162.213-72.625 162.213-162.213S321.088 80.287 231.5 80.287 69.287 152.912 69.287 242.5 141.912 404.713 231.5 404.713zM382.747 242.5c0 83.532-67.715 151.247-151.247 151.247-83.532 0-151.248-67.715-151.248-151.247 0-83.532 67.716-151.248 151.248-151.248S382.747 158.968 382.747 242.5zm.5 0c0 83.808-67.939 151.747-151.747 151.747-83.808 0-151.748-67.939-151.748-151.747 0-83.808 67.94-151.748 151.748-151.748 83.808 0 151.747 67.94 151.747 151.748zM231.5 383.282c77.752 0 140.782-63.03 140.782-140.782 0-77.752-63.03-140.782-140.782-140.782-77.752 0-140.782 63.03-140.782 140.782 0 77.752 63.03 140.782 140.782 140.782zm0 .5c78.028 0 141.282-63.254 141.282-141.282 0-78.028-63.254-141.282-141.282-141.282-78.028 0-141.282 63.254-141.282 141.282 0 78.028 63.254 141.282 141.282 141.282zM361.817 242.5c0 71.972-58.345 130.317-130.317 130.317-71.972 0-130.317-58.345-130.317-130.317 0-71.972 58.345-130.317 130.317-130.317 71.972 0 130.317 58.345 130.317 130.317zm.5 0c0 72.248-58.569 130.817-130.817 130.817S100.683 314.748 100.683 242.5 159.252 111.683 231.5 111.683 362.317 170.252 362.317 242.5zM231.5 362.352c66.192 0 119.851-53.66 119.851-119.852 0-66.192-53.659-119.851-119.851-119.851-66.192 0-119.852 53.659-119.852 119.851 0 66.192 53.66 119.852 119.852 119.852zm0 .5c66.468 0 120.351-53.884 120.351-120.352S297.968 122.149 231.5 122.149c-66.468 0-120.352 53.883-120.352 120.351 0 66.468 53.884 120.352 120.352 120.352zM340.886 242.5c0 60.412-48.974 109.386-109.386 109.386S122.114 302.912 122.114 242.5 171.088 133.114 231.5 133.114 340.886 182.088 340.886 242.5zm.5 0c0 60.688-49.198 109.886-109.886 109.886-60.688 0-109.886-49.198-109.886-109.886 0-60.689 49.198-109.886 109.886-109.886 60.688 0 109.886 49.197 109.886 109.886zM231.5 341.421c54.632 0 98.921-44.288 98.921-98.921 0-54.632-44.289-98.921-98.921-98.921-54.633 0-98.921 44.289-98.921 98.921 0 54.633 44.288 98.921 98.921 98.921zm0 .5c54.909 0 99.421-44.512 99.421-99.421 0-54.909-44.512-99.421-99.421-99.421-54.909 0-99.421 44.512-99.421 99.421 0 54.909 44.512 99.421 99.421 99.421zm88.455-99.421c0 48.853-39.603 88.456-88.455 88.456-48.853 0-88.456-39.603-88.456-88.456s39.603-88.455 88.456-88.455c48.852 0 88.455 39.602 88.455 88.455zm.5 0c0 49.129-39.827 88.956-88.955 88.956-49.129 0-88.956-39.827-88.956-88.956 0-49.129 39.827-88.955 88.956-88.955 49.128 0 88.955 39.826 88.955 88.955zM231.5 320.49c43.073 0 77.99-34.917 77.99-77.99 0-43.073-34.917-77.99-77.99-77.99-43.073 0-77.99 34.917-77.99 77.99 0 43.073 34.917 77.99 77.99 77.99zm0 .5c43.349 0 78.49-35.141 78.49-78.49s-35.141-78.49-78.49-78.49-78.49 35.141-78.49 78.49 35.141 78.49 78.49 78.49zm67.525-78.49c0 37.293-30.232 67.525-67.525 67.525-37.293 0-67.525-30.232-67.525-67.525 0-37.293 30.232-67.525 67.525-67.525 37.293 0 67.525 30.232 67.525 67.525zm.5 0c0 37.569-30.456 68.025-68.025 68.025s-68.025-30.456-68.025-68.025 30.456-68.025 68.025-68.025 68.025 30.456 68.025 68.025zM231.5 299.559c31.513 0 57.059-25.546 57.059-57.059 0-31.513-25.546-57.06-57.059-57.06-31.513 0-57.06 25.547-57.06 57.06s25.547 57.059 57.06 57.059zm0 .5c31.789 0 57.559-25.77 57.559-57.559 0-31.789-25.77-57.56-57.559-57.56-31.79 0-57.56 25.771-57.56 57.56s25.77 57.559 57.56 57.559zm25.663-57.559c0 14.173-11.49 25.663-25.663 25.663-14.174 0-25.664-11.49-25.664-25.663 0-14.174 11.49-25.663 25.664-25.663 14.173 0 25.663 11.489 25.663 25.663zm.5 0c0 14.45-11.714 26.163-26.163 26.163-14.45 0-26.164-11.713-26.164-26.163 0-14.45 11.714-26.163 26.164-26.163 14.449 0 26.163 11.713 26.163 26.163zM231.5 257.698c8.393 0 15.198-6.804 15.198-15.198s-6.805-15.198-15.198-15.198c-8.394 0-15.198 6.804-15.198 15.198s6.804 15.198 15.198 15.198zm0 .5c8.67 0 15.698-7.028 15.698-15.698 0-8.67-7.028-15.698-15.698-15.698-8.67 0-15.698 7.028-15.698 15.698 0 8.67 7.028 15.698 15.698 15.698zm4.733-15.698a4.733 4.733 0 11-9.466 0 4.733 4.733 0 019.466 0zm.5 0a5.233 5.233 0 11-10.466 0 5.233 5.233 0 0110.466 0zm-5.233 46.594c25.733 0 46.594-20.861 46.594-46.594s-20.861-46.594-46.594-46.594-46.594 20.861-46.594 46.594 20.861 46.594 46.594 46.594zm0 .5c26.009 0 47.094-21.085 47.094-47.094s-21.085-47.094-47.094-47.094-47.094 21.085-47.094 47.094 21.085 47.094 47.094 47.094zm36.129-47.094c0 19.953-16.176 36.129-36.129 36.129s-36.129-16.176-36.129-36.129 16.176-36.129 36.129-36.129 36.129 16.176 36.129 36.129zm.5 0c0 20.23-16.399 36.629-36.629 36.629-20.229 0-36.629-16.399-36.629-36.629 0-20.229 16.4-36.629 36.629-36.629 20.23 0 36.629 16.4 36.629 36.629z" fill="url(#paint0_linear)"/><path d="M1447.5 770.5c291.61 0 528-236.394 528-528s-236.39-528-528-528-528 236.394-528 528 236.39 528 528 528zm0 .5c291.88 0 528.5-236.617 528.5-528.5 0-291.882-236.62-528.5-528.5-528.5S919-49.382 919 242.5c0 291.883 236.62 528.5 528.5 528.5zm0-10.965c285.83 0 517.53-231.708 517.53-517.535s-231.7-517.535-517.53-517.535S929.966-43.326 929.966 242.5c0 285.827 231.704 517.535 517.534 517.535zm0 .5c286.1 0 518.03-231.932 518.03-518.035 0-286.103-231.93-518.035-518.03-518.035-286.1 0-518.034 231.932-518.034 518.035 0 286.103 231.934 518.035 518.034 518.035zM1954.57 242.5c0 280.047-227.02 507.069-507.07 507.069-280.05 0-507.07-227.022-507.07-507.069s227.02-507.069 507.07-507.069c280.05 0 507.07 227.022 507.07 507.069zm.5 0c0 280.323-227.25 507.569-507.57 507.569S939.93 522.823 939.93 242.5s227.25-507.569 507.57-507.569S1955.07-37.823 1955.07 242.5zM1447.5 739.104c274.27 0 496.6-222.337 496.6-496.604s-222.33-496.604-496.6-496.604S950.896-31.767 950.896 242.5 1173.23 739.104 1447.5 739.104zm0 .5c274.54 0 497.1-222.561 497.1-497.104s-222.56-497.104-497.1-497.104S950.396-32.043 950.396 242.5 1172.96 739.604 1447.5 739.604zM1933.64 242.5c0 268.487-217.65 486.139-486.14 486.139S961.361 510.987 961.361 242.5 1179.01-243.639 1447.5-243.639 1933.64-25.987 1933.64 242.5zm.5 0c0 268.763-217.88 486.639-486.64 486.639S960.861 511.263 960.861 242.5c0-268.763 217.879-486.639 486.639-486.639S1934.14-26.263 1934.14 242.5zM1447.5 718.173c262.71 0 475.67-212.966 475.67-475.673s-212.96-475.673-475.67-475.673c-262.71 0-475.673 212.966-475.673 475.673S1184.79 718.173 1447.5 718.173zm0 .5c262.98 0 476.17-213.19 476.17-476.173s-213.19-476.173-476.17-476.173S971.327-20.483 971.327 242.5 1184.52 718.673 1447.5 718.673zM1912.71 242.5c0 256.927-208.28 465.208-465.21 465.208-256.93 0-465.208-208.281-465.208-465.208S1190.57-222.708 1447.5-222.708c256.93 0 465.21 208.28 465.21 465.208zm.5 0c0 257.203-208.51 465.708-465.71 465.708S981.792 499.703 981.792 242.5c0-257.203 208.508-465.708 465.708-465.708 257.2 0 465.71 208.505 465.71 465.708zM1447.5 697.242c251.15 0 454.74-203.595 454.74-454.742 0-251.147-203.59-454.743-454.74-454.743S992.757-8.647 992.757 242.5 1196.35 697.242 1447.5 697.242zm0 .5c251.42 0 455.24-203.819 455.24-455.242 0-251.424-203.82-455.243-455.24-455.243-251.42 0-455.243 203.82-455.243 455.243S1196.08 697.742 1447.5 697.742zM1891.78 242.5c0 245.368-198.91 444.277-444.28 444.277-245.37 0-444.28-198.909-444.28-444.277s198.91-444.277 444.28-444.277c245.37 0 444.28 198.91 444.28 444.277zm.5 0c0 245.644-199.14 444.777-444.78 444.777S1002.72 488.144 1002.72 242.5c0-245.644 199.14-444.777 444.78-444.777S1892.28-3.144 1892.28 242.5zM1447.5 676.312c239.59 0 433.81-194.224 433.81-433.812 0-239.588-194.22-433.812-433.81-433.812S1013.69 2.912 1013.69 242.5c0 239.588 194.22 433.812 433.81 433.812zm0 .5c239.86 0 434.31-194.448 434.31-434.312s-194.45-434.312-434.31-434.312S1013.19 2.636 1013.19 242.5s194.45 434.312 434.31 434.312zM1870.85 242.5c0 233.808-189.54 423.347-423.35 423.347-233.81 0-423.35-189.539-423.35-423.347s189.54-423.346 423.35-423.346c233.81 0 423.35 189.538 423.35 423.346zm.5 0c0 234.084-189.77 423.847-423.85 423.847S1023.65 476.584 1023.65 242.5c0-234.084 189.77-423.846 423.85-423.846S1871.35 8.416 1871.35 242.5zM1447.5 655.381c228.03 0 412.88-184.853 412.88-412.881 0-228.028-184.85-412.881-412.88-412.881S1034.62 14.472 1034.62 242.5c0 228.028 184.85 412.881 412.88 412.881zm0 .5c228.3 0 413.38-185.077 413.38-413.381 0-228.304-185.08-413.381-413.38-413.381-228.3 0-413.38 185.077-413.38 413.381 0 228.304 185.08 413.381 413.38 413.381zM1849.92 242.5c0 222.248-180.17 402.416-402.42 402.416-222.25 0-402.42-180.168-402.42-402.416s180.17-402.416 402.42-402.416c222.25 0 402.42 180.168 402.42 402.416zm.5 0c0 222.524-180.4 402.916-402.92 402.916S1044.58 465.024 1044.58 242.5s180.4-402.916 402.92-402.916S1850.42 19.976 1850.42 242.5zM1447.5 634.45c216.47 0 391.95-175.482 391.95-391.95s-175.48-391.951-391.95-391.951S1055.55 26.032 1055.55 242.5c0 216.468 175.48 391.95 391.95 391.95zm0 .5c216.74 0 392.45-175.706 392.45-392.45s-175.71-392.451-392.45-392.451c-216.74 0-392.45 175.707-392.45 392.451 0 216.744 175.71 392.45 392.45 392.45zm381.48-392.45c0 210.688-170.79 381.485-381.48 381.485-210.69 0-381.49-170.797-381.49-381.485 0-210.688 170.8-381.485 381.49-381.485S1828.98 31.812 1828.98 242.5zm.5 0c0 210.965-171.02 381.985-381.98 381.985s-381.99-171.02-381.99-381.985c0-210.964 171.03-381.985 381.99-381.985s381.98 171.02 381.98 381.985zM1447.5 613.52c204.91 0 371.02-166.111 371.02-371.02s-166.11-371.02-371.02-371.02c-204.91 0-371.02 166.112-371.02 371.02 0 204.909 166.11 371.02 371.02 371.02zm0 .5c205.18 0 371.52-166.335 371.52-371.52 0-205.185-166.34-371.52-371.52-371.52-205.18 0-371.52 166.335-371.52 371.52 0 205.185 166.34 371.52 371.52 371.52zm360.55-371.52c0 199.129-161.42 360.554-360.55 360.554-199.13 0-360.55-161.425-360.55-360.554 0-199.129 161.42-360.555 360.55-360.555 199.13 0 360.55 161.426 360.55 360.555zm.5 0c0 199.405-161.64 361.054-361.05 361.054-199.4 0-361.05-161.649-361.05-361.054 0-199.405 161.65-361.055 361.05-361.055 199.41 0 361.05 161.65 361.05 361.055zM1447.5 592.589c193.35 0 350.09-156.74 350.09-350.089s-156.74-350.089-350.09-350.089c-193.35 0-350.09 156.74-350.09 350.089s156.74 350.089 350.09 350.089zm0 .5c193.63 0 350.59-156.964 350.59-350.589s-156.96-350.589-350.59-350.589c-193.62 0-350.59 156.964-350.59 350.589s156.97 350.589 350.59 350.589zM1787.12 242.5c0 187.569-152.05 339.624-339.62 339.624S1107.88 430.069 1107.88 242.5c0-187.57 152.05-339.624 339.62-339.624S1787.12 54.931 1787.12 242.5zm.5 0c0 187.845-152.27 340.124-340.12 340.124S1107.38 430.345 1107.38 242.5c0-187.845 152.27-340.124 340.12-340.124S1787.62 54.655 1787.62 242.5zM1447.5 571.658c181.79 0 329.16-147.369 329.16-329.158 0-181.79-147.37-329.158-329.16-329.158-181.79 0-329.16 147.369-329.16 329.158 0 181.789 147.37 329.158 329.16 329.158zm0 .5c182.07 0 329.66-147.593 329.66-329.658 0-182.065-147.59-329.658-329.66-329.658-182.07 0-329.66 147.593-329.66 329.658 0 182.065 147.59 329.658 329.66 329.658zM1766.19 242.5c0 176.009-142.68 318.693-318.69 318.693S1128.81 418.509 1128.81 242.5c0-176.01 142.68-318.693 318.69-318.693S1766.19 66.49 1766.19 242.5zm.5 0c0 176.286-142.9 319.193-319.19 319.193S1128.31 418.786 1128.31 242.5c0-176.285 142.9-319.193 319.19-319.193S1766.69 66.215 1766.69 242.5zM1447.5 550.728c170.23 0 308.23-137.999 308.23-308.228 0-170.23-138-308.228-308.23-308.228-170.23 0-308.23 137.998-308.23 308.228 0 170.229 138 308.228 308.23 308.228zm0 .5c170.51 0 308.73-138.223 308.73-308.728 0-170.506-138.22-308.728-308.73-308.728-170.51 0-308.73 138.222-308.73 308.728 0 170.505 138.22 308.728 308.73 308.728zM1745.26 242.5c0 164.45-133.31 297.762-297.76 297.762S1149.74 406.95 1149.74 242.5 1283.05-55.262 1447.5-55.262 1745.26 78.05 1745.26 242.5zm.5 0c0 164.726-133.53 298.262-298.26 298.262S1149.24 407.226 1149.24 242.5 1282.77-55.762 1447.5-55.762 1745.76 77.774 1745.76 242.5zM1447.5 529.797c158.67 0 287.3-128.627 287.3-287.297 0-158.67-128.63-287.297-287.3-287.297-158.67 0-287.3 128.627-287.3 287.297 0 158.67 128.63 287.297 287.3 287.297zm0 .5c158.95 0 287.8-128.851 287.8-287.797 0-158.946-128.85-287.797-287.8-287.797-158.95 0-287.8 128.851-287.8 287.797 0 158.946 128.85 287.797 287.8 287.797zM1724.33 242.5c0 152.89-123.94 276.832-276.83 276.832S1170.67 395.39 1170.67 242.5 1294.61-34.332 1447.5-34.332 1724.33 89.61 1724.33 242.5zm.5 0c0 153.166-124.16 277.332-277.33 277.332S1170.17 395.666 1170.17 242.5 1294.33-34.832 1447.5-34.832 1724.83 89.334 1724.83 242.5zM1447.5 508.866c147.11 0 266.37-119.256 266.37-266.366 0-147.11-119.26-266.366-266.37-266.366S1181.13 95.39 1181.13 242.5c0 147.11 119.26 266.366 266.37 266.366zm0 .5c147.39 0 266.87-119.48 266.87-266.866 0-147.386-119.48-266.866-266.87-266.866S1180.63 95.114 1180.63 242.5c0 147.386 119.48 266.866 266.87 266.866zM1703.4 242.5c0 141.33-114.57 255.901-255.9 255.901S1191.6 383.83 1191.6 242.5s114.57-255.901 255.9-255.901S1703.4 101.17 1703.4 242.5zm.5 0c0 141.606-114.79 256.401-256.4 256.401-141.61 0-256.4-114.795-256.4-256.401s114.79-256.401 256.4-256.401c141.61 0 256.4 114.795 256.4 256.401zm-256.4 245.436c135.55 0 245.44-109.886 245.44-245.436S1583.05-2.936 1447.5-2.936 1202.06 106.95 1202.06 242.5s109.89 245.436 245.44 245.436zm0 .5c135.83 0 245.94-110.109 245.94-245.936S1583.33-3.436 1447.5-3.436c-135.83 0-245.94 110.109-245.94 245.936s110.11 245.936 245.94 245.936zM1682.47 242.5c0 129.771-105.2 234.97-234.97 234.97-129.77 0-234.97-105.199-234.97-234.97 0-129.77 105.2-234.97 234.97-234.97 129.77 0 234.97 105.2 234.97 234.97zm.5 0c0 130.047-105.42 235.47-235.47 235.47s-235.47-105.423-235.47-235.47S1317.45 7.03 1447.5 7.03s235.47 105.423 235.47 235.47zM1447.5 467.005c123.99 0 224.5-100.514 224.5-224.505S1571.49 17.995 1447.5 17.995 1222.99 118.51 1222.99 242.5s100.52 224.505 224.51 224.505zm0 .5c124.27 0 225-100.738 225-225.005s-100.73-225.005-225-225.005-225.01 100.738-225.01 225.005 100.74 225.005 225.01 225.005zM1661.54 242.5c0 118.211-95.83 214.04-214.04 214.04s-214.04-95.829-214.04-214.04 95.83-214.04 214.04-214.04 214.04 95.829 214.04 214.04zm.5 0c0 118.487-96.05 214.54-214.54 214.54s-214.54-96.053-214.54-214.54 96.05-214.54 214.54-214.54 214.54 96.053 214.54 214.54zM1447.5 446.074c112.43 0 203.57-91.143 203.57-203.574 0-112.431-91.14-203.574-203.57-203.574-112.43 0-203.57 91.143-203.57 203.574 0 112.431 91.14 203.574 203.57 203.574zm0 .5c112.71 0 204.07-91.367 204.07-204.074 0-112.707-91.36-204.074-204.07-204.074s-204.07 91.367-204.07 204.074c0 112.707 91.36 204.074 204.07 204.074zM1640.61 242.5c0 106.651-86.46 193.109-193.11 193.109-106.65 0-193.11-86.458-193.11-193.109 0-106.651 86.46-193.109 193.11-193.109 106.65 0 193.11 86.458 193.11 193.109zm.5 0c0 106.927-86.68 193.609-193.61 193.609s-193.61-86.682-193.61-193.609 86.68-193.609 193.61-193.609 193.61 86.682 193.61 193.609zM1447.5 425.144c100.87 0 182.64-81.773 182.64-182.644 0-100.871-81.77-182.644-182.64-182.644-100.87 0-182.64 81.773-182.64 182.644 0 100.871 81.77 182.644 182.64 182.644zm0 .5c101.15 0 183.14-81.997 183.14-183.144S1548.65 59.356 1447.5 59.356c-101.15 0-183.14 81.997-183.14 183.144s81.99 183.144 183.14 183.144zM1619.68 242.5c0 95.091-77.09 172.178-172.18 172.178s-172.18-77.087-172.18-172.178 77.09-172.178 172.18-172.178 172.18 77.087 172.18 172.178zm.5 0c0 95.367-77.31 172.678-172.68 172.678s-172.68-77.311-172.68-172.678c0-95.368 77.31-172.678 172.68-172.678s172.68 77.31 172.68 172.678zM1447.5 404.213c89.31 0 161.71-72.401 161.71-161.713s-72.4-161.713-161.71-161.713-161.71 72.401-161.71 161.713 72.4 161.713 161.71 161.713zm0 .5c89.59 0 162.21-72.625 162.21-162.213S1537.09 80.287 1447.5 80.287s-162.21 72.625-162.21 162.213 72.62 162.213 162.21 162.213zM1598.75 242.5c0 83.532-67.72 151.247-151.25 151.247s-151.25-67.715-151.25-151.247c0-83.532 67.72-151.248 151.25-151.248s151.25 67.716 151.25 151.248zm.5 0c0 83.808-67.94 151.747-151.75 151.747s-151.75-67.939-151.75-151.747c0-83.808 67.94-151.748 151.75-151.748s151.75 67.94 151.75 151.748zM1447.5 383.282c77.75 0 140.78-63.03 140.78-140.782 0-77.752-63.03-140.782-140.78-140.782s-140.78 63.03-140.78 140.782c0 77.752 63.03 140.782 140.78 140.782zm0 .5c78.03 0 141.28-63.254 141.28-141.282 0-78.028-63.25-141.282-141.28-141.282s-141.28 63.254-141.28 141.282c0 78.028 63.25 141.282 141.28 141.282zM1577.82 242.5c0 71.972-58.35 130.317-130.32 130.317s-130.32-58.345-130.32-130.317c0-71.972 58.35-130.317 130.32-130.317s130.32 58.345 130.32 130.317zm.5 0c0 72.248-58.57 130.817-130.82 130.817s-130.82-58.569-130.82-130.817 58.57-130.817 130.82-130.817 130.82 58.569 130.82 130.817zM1447.5 362.352c66.19 0 119.85-53.66 119.85-119.852 0-66.192-53.66-119.851-119.85-119.851s-119.85 53.659-119.85 119.851c0 66.192 53.66 119.852 119.85 119.852zm0 .5c66.47 0 120.35-53.884 120.35-120.352s-53.88-120.351-120.35-120.351-120.35 53.883-120.35 120.351c0 66.468 53.88 120.352 120.35 120.352zM1556.89 242.5c0 60.412-48.98 109.386-109.39 109.386-60.41 0-109.39-48.974-109.39-109.386s48.98-109.386 109.39-109.386c60.41 0 109.39 48.974 109.39 109.386zm.5 0c0 60.688-49.2 109.886-109.89 109.886s-109.89-49.198-109.89-109.886c0-60.689 49.2-109.886 109.89-109.886s109.89 49.197 109.89 109.886zm-109.89 98.921c54.63 0 98.92-44.288 98.92-98.921 0-54.632-44.29-98.921-98.92-98.921s-98.92 44.289-98.92 98.921c0 54.633 44.29 98.921 98.92 98.921zm0 .5c54.91 0 99.42-44.512 99.42-99.421 0-54.909-44.51-99.421-99.42-99.421-54.91 0-99.42 44.512-99.42 99.421 0 54.909 44.51 99.421 99.42 99.421zm88.46-99.421c0 48.853-39.61 88.456-88.46 88.456-48.85 0-88.46-39.603-88.46-88.456s39.61-88.455 88.46-88.455c48.85 0 88.46 39.602 88.46 88.455zm.5 0c0 49.129-39.83 88.956-88.96 88.956-49.13 0-88.96-39.827-88.96-88.956 0-49.129 39.83-88.955 88.96-88.955 49.13 0 88.96 39.826 88.96 88.955zm-88.96 77.99c43.07 0 77.99-34.917 77.99-77.99 0-43.073-34.92-77.99-77.99-77.99-43.07 0-77.99 34.917-77.99 77.99 0 43.073 34.92 77.99 77.99 77.99zm0 .5c43.35 0 78.49-35.141 78.49-78.49s-35.14-78.49-78.49-78.49c-43.35 0-78.49 35.141-78.49 78.49s35.14 78.49 78.49 78.49zm67.52-78.49c0 37.293-30.23 67.525-67.52 67.525-37.29 0-67.52-30.232-67.52-67.525 0-37.293 30.23-67.525 67.52-67.525 37.29 0 67.52 30.232 67.52 67.525zm.5 0c0 37.569-30.45 68.025-68.02 68.025-37.57 0-68.02-30.456-68.02-68.025s30.45-68.025 68.02-68.025c37.57 0 68.02 30.456 68.02 68.025zm-68.02 57.059c31.51 0 57.06-25.546 57.06-57.059 0-31.513-25.55-57.06-57.06-57.06s-57.06 25.547-57.06 57.06 25.55 57.059 57.06 57.059zm0 .5c31.79 0 57.56-25.77 57.56-57.559 0-31.789-25.77-57.56-57.56-57.56-31.79 0-57.56 25.771-57.56 57.56s25.77 57.559 57.56 57.559zm25.66-57.559c0 14.173-11.49 25.663-25.66 25.663s-25.66-11.49-25.66-25.663c0-14.174 11.49-25.663 25.66-25.663s25.66 11.489 25.66 25.663zm.5 0c0 14.45-11.71 26.163-26.16 26.163s-26.16-11.713-26.16-26.163c0-14.45 11.71-26.163 26.16-26.163s26.16 11.713 26.16 26.163zm-26.16 15.198c8.39 0 15.2-6.804 15.2-15.198s-6.81-15.198-15.2-15.198-15.2 6.804-15.2 15.198 6.81 15.198 15.2 15.198zm0 .5c8.67 0 15.7-7.028 15.7-15.698 0-8.67-7.03-15.698-15.7-15.698-8.67 0-15.7 7.028-15.7 15.698 0 8.67 7.03 15.698 15.7 15.698zm4.73-15.698a4.733 4.733 0 01-4.73 4.733 4.733 4.733 0 010-9.466c2.61 0 4.73 2.119 4.73 4.733zm.5 0a5.23 5.23 0 11-10.46 0 5.23 5.23 0 1110.46 0zm-5.23 46.594c25.73 0 46.59-20.861 46.59-46.594s-20.86-46.594-46.59-46.594c-25.73 0-46.59 20.861-46.59 46.594s20.86 46.594 46.59 46.594zm0 .5c26.01 0 47.09-21.085 47.09-47.094s-21.08-47.094-47.09-47.094c-26.01 0-47.09 21.085-47.09 47.094s21.08 47.094 47.09 47.094zm36.13-47.094c0 19.953-16.18 36.129-36.13 36.129-19.95 0-36.13-16.176-36.13-36.129s16.18-36.129 36.13-36.129c19.95 0 36.13 16.176 36.13 36.129zm.5 0c0 20.23-16.4 36.629-36.63 36.629-20.23 0-36.63-16.399-36.63-36.629 0-20.229 16.4-36.629 36.63-36.629 20.23 0 36.63 16.4 36.63 36.629z" fill="url(#paint1_linear)"/></g><defs><linearGradient id="paint0_linear" x1="-1517" y1="113.5" x2="760" y2="143" gradientUnits="userSpaceOnUse"><stop stop-color="#fff" stop-opacity=".35"/><stop offset="1" stop-color="#fff" stop-opacity="0"/></linearGradient><linearGradient id="paint1_linear" x1="919" y1="141.504" x2="2300.5" y2="122.5" gradientUnits="userSpaceOnUse"><stop stop-color="#8E96AF" stop-opacity="0"/><stop offset="1" stop-color="#8E96AF" stop-opacity=".43"/></linearGradient></defs></svg>