<svg width="192" height="192" viewBox="0 0 192 192" fill="none" xmlns="http://www.w3.org/2000/svg">
<path d="M96.0319 0C55.9528 0 44.2312 0.0413461 41.9528 0.230357C33.7278 0.914044 28.6098 2.20906 23.034 4.98515C18.7369 7.11891 15.348 9.59229 12.0034 13.0595C5.91228 19.3824 2.22066 27.1614 0.884301 36.4082C0.234577 40.8972 0.045566 41.8127 0.00717322 64.742C-0.00759323 72.3852 0.00717322 82.4441 0.00717322 95.9362C0.00717322 135.983 0.0514726 147.693 0.243436 149.967C0.907927 157.97 2.16308 163.005 4.82104 168.513C9.9007 179.057 19.6023 186.971 31.0315 189.925C34.9889 190.944 39.3598 191.505 44.971 191.77C47.3484 191.874 71.5802 191.948 95.8267 191.948C120.073 191.948 144.32 191.918 146.638 191.8C153.135 191.494 156.908 190.988 161.08 189.91C172.583 186.942 182.107 179.145 187.29 168.454C189.896 163.079 191.218 157.852 191.816 150.266C191.946 148.613 192.001 122.244 192.001 95.9111C192.001 69.5736 191.942 43.2539 191.812 41.6001C191.206 33.892 189.885 28.7089 187.194 23.2306C184.987 18.746 182.535 15.397 178.977 11.9726C172.626 5.90658 164.858 2.21497 155.603 0.880081C151.118 0.231833 150.225 0.0398694 127.278 0H96.0319Z" fill="url(#paint0_radial)"/>
<path d="M96.0319 0C55.9528 0 44.2312 0.0413461 41.9528 0.230357C33.7278 0.914044 28.6098 2.20906 23.034 4.98515C18.7369 7.11891 15.348 9.59229 12.0034 13.0595C5.91228 19.3824 2.22066 27.1614 0.884301 36.4082C0.234577 40.8972 0.045566 41.8127 0.00717322 64.742C-0.00759323 72.3852 0.00717322 82.4441 0.00717322 95.9362C0.00717322 135.983 0.0514726 147.693 0.243436 149.967C0.907927 157.97 2.16308 163.005 4.82104 168.513C9.9007 179.057 19.6023 186.971 31.0315 189.925C34.9889 190.944 39.3598 191.505 44.971 191.77C47.3484 191.874 71.5802 191.948 95.8267 191.948C120.073 191.948 144.32 191.918 146.638 191.8C153.135 191.494 156.908 190.988 161.08 189.91C172.583 186.942 182.107 179.145 187.29 168.454C189.896 163.079 191.218 157.852 191.816 150.266C191.946 148.613 192.001 122.244 192.001 95.9111C192.001 69.5736 191.942 43.2539 191.812 41.6001C191.206 33.892 189.885 28.7089 187.194 23.2306C184.987 18.746 182.535 15.397 178.977 11.9726C172.626 5.90658 164.858 2.21497 155.603 0.880081C151.118 0.231833 150.225 0.0398694 127.278 0H96.0319Z" fill="url(#paint1_radial)"/>
<path d="M95.9875 25.103C76.738 25.103 74.3222 25.1871 66.7618 25.5312C59.2161 25.8767 54.0656 27.0713 49.5589 28.8241C44.8971 30.6345 40.9426 33.0562 37.0029 36.9974C33.0603 40.937 30.6386 44.8915 28.8223 49.5518C27.0651 54.06 25.869 59.212 25.5294 66.7547C25.1913 74.3151 25.1027 76.7324 25.1027 95.982C25.1027 115.232 25.1883 117.64 25.5309 125.2C25.8779 132.746 27.0725 137.897 28.8238 142.403C30.6357 147.065 33.0574 151.019 36.9985 154.959C40.9367 158.902 44.8912 161.329 49.55 163.14C54.0597 164.893 59.2117 166.087 66.7559 166.433C74.3163 166.777 76.7306 166.861 95.9787 166.861C115.23 166.861 117.638 166.777 125.199 166.433C132.744 166.087 137.901 164.893 142.41 163.14C147.071 161.329 151.019 158.902 154.957 154.959C158.9 151.019 161.322 147.065 163.138 142.405C164.88 137.897 166.077 132.745 166.431 125.202C166.771 117.641 166.859 115.232 166.859 95.982C166.859 76.7324 166.771 74.3166 166.431 66.7562C166.077 59.2105 164.88 54.06 163.138 49.5533C161.322 44.8915 158.9 40.937 154.957 36.9974C151.015 33.0547 147.072 30.633 142.406 28.8241C137.887 27.0713 132.734 25.8767 125.188 25.5312C117.628 25.1871 115.221 25.103 95.9654 25.103H95.9875ZM89.6291 37.876C91.5163 37.873 93.622 37.876 95.9875 37.876C114.912 37.876 117.155 37.9439 124.629 38.2835C131.539 38.5995 135.29 39.7542 137.788 40.7244C141.096 42.0091 143.454 43.5448 145.934 46.0256C148.414 48.5063 149.95 50.869 151.238 54.1766C152.208 56.6722 153.364 60.4229 153.679 67.3336C154.018 74.8054 154.092 77.0499 154.092 95.9657C154.092 114.882 154.018 117.126 153.679 124.598C153.363 131.509 152.208 135.259 151.238 137.755C149.953 141.062 148.414 143.418 145.934 145.897C143.453 148.378 141.098 149.913 137.788 151.198C135.293 152.173 131.539 153.325 124.629 153.641C117.157 153.98 114.912 154.054 95.9875 154.054C77.0614 154.054 74.8184 153.98 67.3465 153.641C60.4358 153.322 56.6852 152.167 54.1852 151.197C50.8775 149.912 48.5149 148.376 46.0341 145.896C43.5533 143.415 42.0176 141.058 40.73 137.749C39.7598 135.253 38.6036 131.503 38.2891 124.592C37.9495 117.12 37.8816 114.876 37.8816 95.948C37.8816 77.0203 37.9495 74.7877 38.2891 67.3158C38.6051 60.4051 39.7598 56.6545 40.73 54.156C42.0147 50.8483 43.5533 48.4857 46.0341 46.0049C48.5149 43.5241 50.8775 41.9884 54.1852 40.7008C56.6837 39.7262 60.4358 38.5744 67.3465 38.2569C73.8851 37.9616 76.419 37.873 89.6291 37.8582V37.876ZM133.822 49.6448C129.126 49.6448 125.317 53.4501 125.317 58.1473C125.317 62.8431 129.126 66.6528 133.822 66.6528C138.518 66.6528 142.328 62.8431 142.328 58.1473C142.328 53.4516 138.518 49.6419 133.822 49.6419V49.6448ZM95.9875 59.5826C75.886 59.5826 59.5882 75.8804 59.5882 95.982C59.5882 116.084 75.886 132.374 95.9875 132.374C116.089 132.374 132.381 116.084 132.381 95.982C132.381 75.8804 116.088 59.5826 95.9861 59.5826H95.9875ZM95.9875 72.3556C109.035 72.3556 119.614 82.9328 119.614 95.982C119.614 109.03 109.035 119.608 95.9875 119.608C82.9384 119.608 72.3612 109.03 72.3612 95.982C72.3612 82.9328 82.9384 72.3556 95.9875 72.3556V72.3556Z" fill="white"/>
<defs>
<radialGradient id="paint0_radial" cx="0" cy="0" r="1" gradientUnits="userSpaceOnUse" gradientTransform="translate(51.0009 206.732) rotate(-90) scale(190.234 176.981)">
<stop stop-color="#FFDD55"/>
<stop offset="0.1" stop-color="#FFDD55"/>
<stop offset="0.5" stop-color="#FF543E"/>
<stop offset="1" stop-color="#C837AB"/>
</radialGradient>
<radialGradient id="paint1_radial" cx="0" cy="0" r="1" gradientUnits="userSpaceOnUse" gradientTransform="translate(-32.1604 13.8276) rotate(78.6776) scale(85.0364 350.612)">
<stop stop-color="#3771C8"/>
<stop offset="0.128" stop-color="#3771C8"/>
<stop offset="1" stop-color="#6600FF" stop-opacity="0"/>
</radialGradient>
</defs>
</svg>
