<svg width="100" height="18" viewBox="0 0 100 18" fill="none" xmlns="http://www.w3.org/2000/svg">
<path d="M11.6488 9.33479C12.3324 10.2288 12.6743 11.2105 12.6743 12.2799C12.6743 12.9635 12.5253 13.6297 12.2273 14.2783C11.9293 14.9269 11.5085 15.4966 10.9651 15.9875C10.4041 16.4959 9.74675 16.8903 8.99296 17.1708C8.23916 17.4337 7.44154 17.5652 6.60009 17.5652H0V0.262951H5.39051C7.02082 0.262951 8.37064 0.74503 9.43997 1.70919C9.93082 2.16497 10.3077 2.69087 10.5707 3.2869C10.8511 3.88292 10.9914 4.50524 10.9914 5.15386C10.9914 6.04789 10.7372 6.87181 10.2288 7.62561C10.1762 7.73079 10.1061 7.8272 10.0185 7.91485C10.6671 8.30052 11.2105 8.77383 11.6488 9.33479ZM2.97136 6.96823H5.31163C5.71482 6.96823 6.0216 6.9507 6.23196 6.91564C6.45985 6.88058 6.67898 6.81922 6.88934 6.73157C6.88934 6.73157 6.97699 6.68774 7.15229 6.60009C7.34512 6.49491 7.53795 6.31085 7.73079 6.04789C7.92362 5.76741 8.02003 5.4694 8.02003 5.15386C8.02003 4.66301 7.8272 4.24229 7.44154 3.89169C6.98576 3.45344 6.30208 3.23431 5.39051 3.23431H2.97136V6.96823ZM8.96666 13.805C9.47503 13.3492 9.72922 12.8408 9.72922 12.2799C9.72922 11.8591 9.58898 11.4735 9.3085 11.1229C9.02802 10.7723 8.69494 10.5181 8.30928 10.3603C7.66067 10.0798 6.82799 9.93958 5.81124 9.93958H2.97136V14.6201H6.60009C7.58178 14.6201 8.37064 14.3484 8.96666 13.805Z" fill="#BF0000"/>
<path d="M27.2192 17.5652V14.6201H19.2518V10.3866H25.2471V7.41524H19.2518V3.23431H27.2192V0.262951H16.2804V17.5652H27.2192Z" fill="#BF0000"/>
<path d="M40.0338 17.5652L34.2226 9.93958V17.5652H31.2775L31.2512 0.262951H37.5884C38.4298 0.262951 39.2187 0.403193 39.9549 0.683676C40.7087 0.946627 41.3661 1.33229 41.9271 1.84066C42.488 2.33151 42.9175 2.90124 43.2155 3.54985C43.5135 4.18094 43.6625 4.84708 43.6625 5.54829C43.6625 6.61762 43.3207 7.59931 42.637 8.49335C42.041 9.24714 41.3047 9.79058 40.4282 10.1236C40.1127 10.2464 39.7446 10.3515 39.3238 10.4392C38.9207 10.5268 38.6226 10.5707 38.4298 10.5707L43.6888 17.5652H40.0338ZM34.2226 3.23431V7.88856H36.7995C37.8338 7.88856 38.6577 7.74832 39.2713 7.46784C39.6569 7.31006 39.99 7.05588 40.2705 6.70527C40.5509 6.35467 40.6912 5.96901 40.6912 5.54829C40.6912 4.96979 40.4458 4.46142 39.9549 4.02316C39.3764 3.49726 38.5876 3.23431 37.5884 3.23431H34.2226Z" fill="#BF0000"/>
<path d="M50.5642 15.1986L49.4598 17.5652H46.1992L54.2192 0.262951L61.8448 17.5652H58.6105L57.5587 15.1986H50.5642ZM54.1404 7.44154L51.9316 12.2273H56.244L54.1404 7.44154Z" fill="#BF0000"/>
<path d="M71.0853 17.723C71.9969 17.723 72.8647 17.5477 73.6886 17.1971C74.53 16.8465 75.2751 16.3468 75.9237 15.6982C76.5548 15.0321 77.0368 14.2783 77.3699 13.4368C77.7205 12.5954 77.8958 11.7189 77.8958 10.8073V0.262951H74.9244V10.8073C74.9244 11.3508 74.828 11.8679 74.6352 12.3587C74.4424 12.8321 74.1619 13.2528 73.7938 13.6209C73.4432 13.989 73.0312 14.2783 72.5579 14.4887C72.0846 14.6815 71.5937 14.7779 71.0853 14.7779C70.0335 14.7779 69.122 14.3922 68.3506 13.6209C67.9825 13.2528 67.702 12.8321 67.5092 12.3587C67.3164 11.8679 67.22 11.3508 67.22 10.8073V0.262951H64.2486V10.8073C64.2486 11.7189 64.4151 12.5954 64.7482 13.4368C65.0988 14.2783 65.5984 15.0321 66.247 15.6982C66.8781 16.3468 67.6056 16.8465 68.4295 17.1971C69.271 17.5477 70.1562 17.723 71.0853 17.723Z" fill="#BF0000"/>
<path d="M100 17.5652V0L91.1385 12.4113L82.2244 0V17.5652H85.1695V9.20332L91.1385 17.4863L97.0549 9.22961V17.5652H100Z" fill="#BF0000"/>
</svg>
