<svg width="100" height="20" viewBox="0 0 100 20" fill="none" xmlns="http://www.w3.org/2000/svg">
<g clip-path="url(#clip0)">
<path fill-rule="evenodd" clip-rule="evenodd" d="M49.0483 20L60.4685 0H64.8606L76.2813 20H71.1568H56.2226L58.1259 16.3504H69.2535L62.5183 3.79562L57.9795 12.1168L57.8331 12.4088L55.6369 16.3504L53.7335 20H49.0483Z" fill="#343436"/>
<path fill-rule="evenodd" clip-rule="evenodd" d="M44.6559 3.50365H34.407V16.2044H44.6559V12.8467H49.3412V15.1824C49.3412 16.9343 49.0483 18.2482 48.3163 18.8321C47.5842 19.5621 46.2665 19.854 44.3631 19.854H34.6999C32.7965 19.854 31.4788 19.5621 30.7467 18.8321C30.0146 18.1022 29.7218 16.9343 29.7218 15.1824V4.67153C29.7218 2.91971 30.0146 1.60584 30.7467 1.0219C31.3324 0.291971 32.6501 0 34.6999 0H44.3631C46.2665 0 47.5842 0.291971 48.3163 1.0219C49.0483 1.75183 49.3412 2.91971 49.3412 4.67153V6.56935H44.6559V3.50365Z" fill="#343436"/>
<path fill-rule="evenodd" clip-rule="evenodd" d="M23.5724 10.6569V10.511V0H27.8183V14.1606L23.5724 10.6569ZM7.02777 20V0H10.2488L27.8183 16.9343V19.854H24.5973L12.7378 7.59123C12.2986 7.29929 12.0058 7.00729 11.7129 6.71535C11.5665 6.56935 11.2737 6.27737 10.9809 5.9854C10.9809 6.56936 11.1273 7.15329 11.1273 7.73723C11.1273 8.32116 11.1273 8.7591 11.1273 9.1971V20H7.02777Z" fill="#3462F2"/>
<path d="M4.68521 0H0V20H4.68521V0Z" fill="#3462F2"/>
<path fill-rule="evenodd" clip-rule="evenodd" d="M90.0439 0H94.5826H96.9252C98.5361 0 99.8535 1.16788 99.8535 2.77372V3.50365H95.6077H94.729H90.1903H81.8445V6.71535L95.0219 9.48903C97.0716 9.92703 98.6826 10.073 99.4142 10.8029C100.146 11.5328 100.293 12.4088 100.293 14.3066V15.3285C100.293 17.0803 100 18.3942 99.2677 18.9781C98.5361 19.708 97.2181 20 95.0219 20H86.2374H84.6265H80.5271C78.6239 20 77.1594 18.5401 77.1594 16.7883V16.2044H84.3336H84.48H85.9445H95.6077V13.2846L82.4303 10.511C80.3807 10.073 78.7703 9.78103 78.0381 9.0511C77.3058 8.32116 77.1594 7.59123 77.1594 5.69343V4.67154C77.1594 2.91971 77.4523 1.60584 78.1845 1.0219C79.2097 0.291971 80.5271 0 82.5768 0H90.0439Z" fill="#343436"/>
</g>
<defs>
<clipPath id="clip0">
<rect width="100" height="20" fill="white"/>
</clipPath>
</defs>
</svg>
