<svg width="2224" height="1500" fill="none" xmlns="http://www.w3.org/2000/svg"><g clip-path="url(#clip0)"><mask id="a" maskUnits="userSpaceOnUse" x="0" y="-376" width="2224" height="2782"><path d="M2224-375.728H0V2405.83h2224V-375.728z" fill="#63687D"/></mask><g mask="url(#a)"><path fill-rule="evenodd" clip-rule="evenodd" d="M705 1799.01c579.35 0 1049.01-469.66 1049.01-1049.01 0-579.351-469.66-1049.007-1049.01-1049.007C125.649-299.007-344.007 170.649-344.007 750c0 579.35 469.656 1049.01 1049.007 1049.01zm0 .99c579.9 0 1050-470.1 1050-1050 0-579.899-470.1-1050-1050-1050C125.101-300-345 170.101-345 750c0 579.9 470.101 1050 1050 1050zm0-21.78c567.87 0 1028.22-460.35 1028.22-1028.22 0-567.867-460.35-1028.215-1028.22-1028.215C137.133-278.215-323.213 182.133-323.213 750c0 567.87 460.346 1028.22 1028.213 1028.22zm0 .99c568.42 0 1029.21-460.79 1029.21-1029.21 0-568.416-460.79-1029.209-1029.21-1029.209C136.584-279.209-324.207 181.584-324.207 750c0 568.42 460.791 1029.21 1029.207 1029.21zM1712.42 750c0 556.38-451.04 1007.42-1007.42 1007.42-556.385 0-1007.424-451.04-1007.424-1007.42 0-556.384 451.039-1007.422 1007.424-1007.422 556.38 0 1007.42 451.038 1007.42 1007.422zm1 0c0 556.93-451.49 1008.42-1008.42 1008.42-556.933 0-1008.417-451.49-1008.417-1008.42 0-556.933 451.484-1008.415 1008.417-1008.415 556.93 0 1008.42 451.482 1008.42 1008.415zM705 1736.63c544.9 0 986.63-441.73 986.63-986.63 0-544.901-441.73-986.63-986.63-986.63-544.901 0-986.63 441.729-986.63 986.63 0 544.9 441.729 986.63 986.63 986.63zm0 .99c545.45 0 987.62-442.17 987.62-987.62S1250.45-237.624 705-237.624-282.624 204.55-282.624 750 159.55 1737.62 705 1737.62zM1670.84 750c0 533.42-432.42 965.84-965.84 965.84-533.418 0-965.839-432.42-965.839-965.84 0-533.418 432.421-965.839 965.839-965.839 533.42 0 965.84 432.421 965.84 965.839zm.99 0c0 533.97-432.86 966.83-966.83 966.83-533.967 0-966.832-432.86-966.832-966.83 0-533.967 432.865-966.832 966.832-966.832 533.97 0 966.83 432.865 966.83 966.832zM705 1695.05c521.93 0 945.05-423.12 945.05-945.05 0-521.935-423.12-945.046-945.05-945.046-521.935 0-945.046 423.111-945.046 945.046 0 521.93 423.111 945.05 945.046 945.05zm0 .99c522.48 0 946.04-423.56 946.04-946.04 0-522.483-423.56-946.039-946.04-946.039-522.483 0-946.039 423.556-946.039 946.039 0 522.48 423.556 946.04 946.039 946.04zM1629.25 750c0 510.45-413.8 924.25-924.25 924.25-510.452 0-924.254-413.8-924.254-924.25 0-510.452 413.802-924.254 924.254-924.254 510.45 0 924.25 413.802 924.25 924.254zm1 0c0 511-414.25 925.25-925.25 925.25-511.001 0-925.248-414.25-925.248-925.25S193.999-175.248 705-175.248c511 0 925.25 414.248 925.25 925.248zM705 1653.46c498.97 0 903.46-404.49 903.46-903.46 0-498.968-404.49-903.463-903.46-903.463-498.968 0-903.463 404.495-903.463 903.463 0 498.97 404.495 903.46 903.463 903.46zm0 .99c499.52 0 904.45-404.93 904.45-904.45 0-499.517-404.93-904.456-904.45-904.456-499.517 0-904.456 404.939-904.456 904.456 0 499.52 404.939 904.45 904.456 904.45zM1587.67 750c0 487.49-395.18 882.67-882.67 882.67-487.485 0-882.67-395.18-882.67-882.67 0-487.485 395.185-882.67 882.67-882.67 487.49 0 882.67 395.185 882.67 882.67zm.99 0c0 488.03-395.63 883.66-883.66 883.66-488.033 0-883.663-395.63-883.663-883.66 0-488.034 395.63-883.663 883.663-883.663 488.03 0 883.66 395.629 883.66 883.663zM705 1611.88c476 0 861.88-385.88 861.88-861.88 0-476.002-385.88-861.878-861.88-861.878-476.002 0-861.878 385.876-861.878 861.878 0 476 385.876 861.88 861.878 861.88zm0 .99c476.55 0 862.87-386.32 862.87-862.87 0-476.551-386.32-862.872-862.87-862.872S-157.872 273.449-157.872 750c0 476.55 386.322 862.87 862.872 862.87zM1546.08 750c0 464.52-376.56 841.09-841.08 841.09-464.519 0-841.087-376.57-841.087-841.09 0-464.519 376.568-841.085 841.087-841.085 464.52 0 841.08 376.566 841.08 841.085zm1 0c0 465.07-377.01 842.08-842.08 842.08-465.068 0-842.08-377.01-842.08-842.08 0-465.067 377.012-842.078 842.08-842.078 465.07 0 842.08 377.011 842.08 842.078zM705 1570.29c453.04 0 820.29-367.25 820.29-820.29 0-453.036-367.25-820.293-820.29-820.293-453.036 0-820.293 367.257-820.293 820.293 0 453.04 367.257 820.29 820.293 820.29zm0 1c453.58 0 821.29-367.71 821.29-821.29 0-453.585-367.71-821.287-821.29-821.287-453.584 0-821.287 367.702-821.287 821.287 0 453.58 367.703 821.29 821.287 821.29zM1504.5 750c0 441.55-357.95 799.5-799.5 799.5-441.553 0-799.502-357.95-799.502-799.5 0-441.553 357.949-799.502 799.502-799.502 441.55 0 799.5 357.949 799.5 799.502zm1 0c0 442.1-358.4 800.5-800.5 800.5-442.101 0-800.495-358.4-800.495-800.5 0-442.101 358.394-800.495 800.495-800.495 442.1 0 800.5 358.394 800.5 800.495zM705 1528.71c430.07 0 778.71-348.64 778.71-778.71 0-430.069-348.64-778.71-778.71-778.71C274.93-28.71-73.71 319.93-73.71 750c0 430.07 348.64 778.71 778.71 778.71zm0 .99c430.62 0 779.7-349.08 779.7-779.7 0-430.618-349.08-779.704-779.7-779.704C274.382-29.704-74.704 319.382-74.704 750c0 430.62 349.086 779.7 779.704 779.7zM1462.92 750c0 418.59-339.33 757.92-757.92 757.92-418.587 0-757.917-339.33-757.917-757.92C-52.917 331.414 286.413-7.917 705-7.917c418.59 0 757.92 339.331 757.92 757.917zm.99 0c0 419.14-339.78 758.91-758.91 758.91-419.136 0-758.91-339.77-758.91-758.91C-53.91 330.865 285.863-8.91 705-8.91c419.13 0 758.91 339.775 758.91 758.91zM705 1487.13c407.1 0 737.13-330.03 737.13-737.13 0-407.103-330.03-737.126-737.13-737.126C297.897 12.874-32.126 342.897-32.126 750c0 407.1 330.023 737.13 737.126 737.13zm0 .99c407.65 0 738.12-330.47 738.12-738.12 0-407.652-330.47-738.12-738.12-738.12C297.348 11.88-33.12 342.349-33.12 750c0 407.65 330.468 738.12 738.12 738.12zM1421.33 750c0 395.62-320.71 716.33-716.33 716.33-395.619 0-716.332-320.71-716.332-716.33C-11.332 354.38 309.38 33.666 705 33.666c395.62 0 716.33 320.714 716.33 716.334zm1 0c0 396.17-321.16 717.33-717.33 717.33-396.168 0-717.326-321.16-717.326-717.33 0-396.169 321.158-717.328 717.326-717.328 396.17 0 717.33 321.159 717.33 717.328zM705 1445.54c384.14 0 695.54-311.4 695.54-695.54 0-384.137-311.4-695.541-695.54-695.541C320.864 54.459 9.459 365.863 9.459 750c0 384.14 311.405 695.54 695.541 695.54zm0 .99c384.69 0 696.53-311.84 696.53-696.53 0-384.686-311.84-696.534-696.53-696.534C320.315 53.466 8.466 365.314 8.466 750c0 384.69 311.849 696.53 696.534 696.53zM1379.75 750c0 372.65-302.1 674.75-674.75 674.75-372.653 0-674.75-302.1-674.75-674.75C30.25 377.346 332.347 75.25 705 75.25c372.65 0 674.75 302.096 674.75 674.75zm.99 0c0 373.2-302.54 675.74-675.74 675.74-373.202 0-675.743-302.54-675.743-675.74C29.257 376.798 331.798 74.257 705 74.257c373.2 0 675.74 302.541 675.74 675.743zM705 1403.96c361.17 0 653.96-292.79 653.96-653.96 0-361.171-292.79-653.957-653.96-653.957C343.829 96.043 51.043 388.829 51.043 750c0 361.17 292.786 653.96 653.957 653.96zm0 .99c361.72 0 654.95-293.23 654.95-654.95 0-361.719-293.23-654.95-654.95-654.95C343.281 95.05 50.05 388.28 50.05 750c0 361.72 293.231 654.95 654.95 654.95zM1338.16 750c0 349.69-283.47 633.16-633.16 633.16-349.688 0-633.165-283.47-633.165-633.16 0-349.687 283.477-633.165 633.165-633.165 349.69 0 633.16 283.478 633.16 633.165zm1 0c0 350.24-283.92 634.16-634.16 634.16-350.236 0-634.159-283.92-634.159-634.16 0-350.236 283.923-634.158 634.159-634.158 350.24 0 634.16 283.922 634.16 634.158zM705 1362.37c338.2 0 612.37-274.17 612.37-612.37 0-338.204-274.17-612.373-612.37-612.373-338.204 0-612.373 274.169-612.373 612.373 0 338.2 274.169 612.37 612.373 612.37zm0 1c338.75 0 613.37-274.62 613.37-613.37 0-338.753-274.62-613.366-613.37-613.366-338.753 0-613.366 274.613-613.366 613.366 0 338.75 274.613 613.37 613.366 613.37zM1296.58 750c0 326.72-264.86 591.58-591.58 591.58-326.722 0-591.582-264.86-591.582-591.58 0-326.721 264.86-591.581 591.582-591.581 326.72 0 591.58 264.86 591.58 591.581zm.99 0c0 327.27-265.3 592.57-592.57 592.57-327.271 0-592.575-265.3-592.575-592.57 0-327.27 265.304-592.574 592.575-592.574 327.27 0 592.57 265.304 592.57 592.574zM705 1320.79c315.24 0 570.79-255.55 570.79-570.79 0-315.238-255.55-570.789-570.79-570.789-315.238 0-570.789 255.551-570.789 570.789 0 315.24 255.551 570.79 570.789 570.79zm0 .99c315.79 0 571.78-255.99 571.78-571.78 0-315.787-255.99-571.782-571.78-571.782-315.787 0-571.783 255.995-571.783 571.782 0 315.79 255.996 571.78 571.783 571.78zM1255 750c0 303.75-246.25 550-550 550-303.755 0-549.997-246.25-549.997-550 0-303.755 246.242-549.997 549.997-549.997 303.75 0 550 246.242 550 549.997zm.99 0c0 304.3-246.69 550.99-550.99 550.99-304.304 0-550.99-246.69-550.99-550.99 0-304.304 246.686-550.99 550.99-550.99 304.3 0 550.99 246.686 550.99 550.99zM705 1279.2c292.272 0 529.2-236.93 529.2-529.2 0-292.272-236.928-529.205-529.2-529.205-292.272 0-529.205 236.933-529.205 529.205 0 292.27 236.933 529.2 529.205 529.2zm0 1c292.82 0 530.2-237.38 530.2-530.2 0-292.82-237.38-530.198-530.2-530.198-292.821 0-530.198 237.378-530.198 530.198S412.179 1280.2 705 1280.2zM1213.41 750c0 280.79-227.62 508.41-508.41 508.41-280.788 0-508.412-227.62-508.412-508.41 0-280.788 227.624-508.413 508.412-508.413 280.79 0 508.41 227.625 508.41 508.413zm1 0c0 281.34-228.072 509.41-509.41 509.41-281.336 0-509.405-228.07-509.405-509.41 0-281.336 228.069-509.406 509.405-509.406 281.338 0 509.41 228.07 509.41 509.406zM705 1237.62c269.307 0 487.62-218.32 487.62-487.62 0-269.305-218.313-487.62-487.62-487.62-269.305 0-487.62 218.315-487.62 487.62 0 269.3 218.315 487.62 487.62 487.62zm0 .99c269.855 0 488.61-218.76 488.61-488.61 0-269.855-218.755-488.614-488.61-488.614-269.854 0-488.614 218.759-488.614 488.614 0 269.85 218.76 488.61 488.614 488.61zM1171.83 750c0 257.82-209.007 466.83-466.83 466.83-257.821 0-466.828-209.01-466.828-466.83 0-257.821 209.007-466.828 466.828-466.828 257.823 0 466.83 209.007 466.83 466.828zm.99 0c0 258.37-209.448 467.82-467.82 467.82-258.37 0-467.821-209.45-467.821-467.82 0-258.372 209.451-467.822 467.821-467.822 258.372 0 467.82 209.45 467.82 467.822zM705 1196.04c246.34 0 446.04-199.7 446.04-446.04 0-246.34-199.7-446.036-446.04-446.036-246.34 0-446.036 199.696-446.036 446.036S458.66 1196.04 705 1196.04zm0 .99c246.888 0 447.03-200.142 447.03-447.03 0-246.888-200.142-447.03-447.03-447.03-246.888 0-447.03 200.142-447.03 447.03 0 246.888 200.142 447.03 447.03 447.03zM1130.25 750c0 234.856-190.394 425.25-425.25 425.25S279.756 984.856 279.756 750 470.144 324.756 705 324.756c234.856 0 425.25 190.388 425.25 425.244zm.99 0c0 235.405-190.835 426.24-426.24 426.24S278.763 985.405 278.763 750 469.595 323.762 705 323.762c235.405 0 426.24 190.833 426.24 426.238zM705 1154.45c223.373 0 404.45-181.077 404.45-404.45S928.373 345.548 705 345.548 300.548 526.627 300.548 750 481.627 1154.45 705 1154.45zm0 1c223.921 0 405.45-181.529 405.45-405.45S928.921 344.555 705 344.555 299.554 526.079 299.554 750 481.079 1155.45 705 1155.45zM1088.66 750c0 211.889-171.771 383.66-383.66 383.66-211.889 0-383.66-171.771-383.66-383.66 0-211.889 171.771-383.66 383.66-383.66 211.889 0 383.66 171.771 383.66 383.66zm.99 0c0 212.438-172.212 384.65-384.65 384.65S320.346 962.438 320.346 750 492.562 365.347 705 365.347 1089.65 537.562 1089.65 750zM705 1112.87c200.406 0 362.87-162.464 362.87-362.87S905.406 387.132 705 387.132 342.132 549.594 342.132 750 504.594 1112.87 705 1112.87zm0 .99c200.954 0 363.86-162.906 363.86-363.86S905.954 386.139 705 386.139 341.139 549.046 341.139 750c0 200.954 162.907 363.86 363.861 363.86zM1047.08 750c0 188.923-153.157 342.08-342.08 342.08-188.925 0-342.076-153.157-342.076-342.08 0-188.923 153.151-342.076 342.076-342.076 188.923 0 342.08 153.153 342.08 342.076zm.99 0c0 189.471-153.599 343.07-343.07 343.07-189.473 0-343.069-153.599-343.069-343.07 0-189.473 153.596-343.069 343.069-343.069 189.471 0 343.07 153.596 343.07 343.069zM705 1071.28c177.441 0 321.28-143.839 321.28-321.28 0-177.441-143.839-321.284-321.28-321.284-177.441 0-321.284 143.843-321.284 321.284S527.559 1071.28 705 1071.28zm0 1c177.989 0 322.28-144.291 322.28-322.28 0-177.989-144.291-322.277-322.28-322.277-177.989 0-322.277 144.288-322.277 322.277 0 177.989 144.288 322.28 322.277 322.28zM1005.49 750c0 165.958-134.532 300.49-300.49 300.49S404.508 915.958 404.508 750 539.042 449.508 705 449.508c165.958 0 300.49 134.534 300.49 300.492zm.99 0c0 166.506-134.974 301.48-301.48 301.48-166.506 0-301.485-134.974-301.485-301.48 0-166.506 134.979-301.485 301.485-301.485S1006.48 583.494 1006.48 750zM705 1029.7c154.474 0 279.699-125.226 279.699-279.7S859.474 470.301 705 470.301c-154.474 0-279.7 125.225-279.7 279.699 0 154.474 125.226 279.7 279.7 279.7zm0 .99c155.023 0 280.693-125.667 280.693-280.69S860.023 469.307 705 469.307c-155.023 0-280.693 125.67-280.693 280.693 0 155.023 125.67 280.69 280.693 280.69zM963.908 750c0 142.991-115.917 258.91-258.908 258.91S446.092 892.991 446.092 750c0-142.991 115.917-258.908 258.908-258.908S963.908 607.009 963.908 750zm.993 0c0 143.539-116.362 259.9-259.901 259.9-143.539 0-259.901-116.361-259.901-259.9S561.461 490.099 705 490.099c143.539 0 259.901 116.362 259.901 259.901zM705 988.117c131.507 0 238.115-106.61 238.115-238.117S836.507 511.885 705 511.885 466.883 618.493 466.883 750 573.493 988.117 705 988.117zm0 .993c132.056 0 239.108-107.054 239.108-239.11S837.056 510.892 705 510.892c-132.056 0-239.11 107.052-239.11 239.108 0 132.056 107.054 239.11 239.11 239.11zM922.323 750c0 120.024-97.299 217.323-217.323 217.323S487.677 870.024 487.677 750 584.976 532.677 705 532.677 922.323 629.976 922.323 750zm.994 0c0 120.572-97.745 218.317-218.317 218.317S486.683 870.572 486.683 750c0-120.574 97.745-218.317 218.317-218.317S923.317 629.426 923.317 750zM705 946.532c108.54 0 196.532-87.99 196.532-196.532 0-108.54-87.992-196.532-196.532-196.532-108.542 0-196.532 87.992-196.532 196.532 0 108.542 87.99 196.532 196.532 196.532zm0 .993c109.091 0 197.525-88.434 197.525-197.525 0-109.091-88.434-197.525-197.525-197.525-109.091 0-197.525 88.434-197.525 197.525 0 109.091 88.434 197.525 197.525 197.525zM880.738 750c0 97.059-78.681 175.74-175.738 175.74-97.059 0-175.74-78.681-175.74-175.74 0-97.059 78.681-175.738 175.74-175.738 97.057 0 175.738 78.679 175.738 175.738zm.994 0c0 97.607-79.127 176.734-176.732 176.734-97.607 0-176.734-79.127-176.734-176.734 0-97.607 79.127-176.732 176.734-176.732 97.605 0 176.732 79.125 176.732 176.732zM705 904.947c85.576 0 154.947-69.371 154.947-154.947 0-85.576-69.371-154.947-154.947-154.947-85.576 0-154.947 69.371-154.947 154.947 0 85.576 69.371 154.947 154.947 154.947zm0 .993c86.124 0 155.94-69.816 155.94-155.94S791.124 594.06 705 594.06 549.06 663.876 549.06 750 618.876 905.94 705 905.94zM839.156 750c0 74.092-60.064 134.156-134.156 134.156-74.092 0-134.156-60.064-134.156-134.156 0-74.092 60.064-134.156 134.156-134.156 74.092 0 134.156 60.064 134.156 134.156zm.993 0c0 74.64-60.509 135.149-135.149 135.149S569.851 824.64 569.851 750 630.36 614.851 705 614.851 840.149 675.36 840.149 750zM705 863.362c62.609 0 113.362-50.753 113.362-113.362 0-62.609-50.753-113.364-113.362-113.364-62.609 0-113.364 50.755-113.364 113.364S642.391 863.362 705 863.362zm0 .994c63.157 0 114.356-51.199 114.356-114.356S768.157 635.642 705 635.642c-63.159 0-114.358 51.201-114.358 114.358 0 63.157 51.199 114.356 114.358 114.356zM755.986 750c0 28.158-22.828 50.986-50.986 50.986-28.16 0-50.988-22.828-50.988-50.986 0-28.16 22.828-50.986 50.988-50.986 28.158 0 50.986 22.826 50.986 50.986zm.993 0c0 28.709-23.272 51.979-51.979 51.979-28.709 0-51.981-23.27-51.981-51.979s23.272-51.979 51.981-51.979c28.707 0 51.979 23.27 51.979 51.979zM705 780.195c16.675 0 30.195-13.518 30.195-30.195s-13.52-30.195-30.195-30.195c-16.677 0-30.195 13.518-30.195 30.195s13.518 30.195 30.195 30.195zm0 .993c17.225 0 31.188-13.963 31.188-31.188S722.225 718.812 705 718.812 673.812 732.775 673.812 750s13.963 31.188 31.188 31.188zM714.403 750a9.403 9.403 0 11-18.806 0 9.403 9.403 0 0118.806 0zm.994 0c0 5.742-4.655 10.397-10.397 10.397s-10.397-4.655-10.397-10.397 4.655-10.397 10.397-10.397 10.397 4.655 10.397 10.397zM705 842.571c51.125 0 92.571-41.446 92.571-92.571S756.125 657.429 705 657.429 612.429 698.875 612.429 750s41.446 92.571 92.571 92.571zm0 .993c51.674 0 93.564-41.89 93.564-93.564 0-51.674-41.89-93.564-93.564-93.564-51.674 0-93.564 41.89-93.564 93.564 0 51.674 41.89 93.564 93.564 93.564zM776.78 750c0 39.642-32.138 71.78-71.78 71.78s-71.779-32.138-71.779-71.78 32.137-71.779 71.779-71.779c39.642 0 71.78 32.137 71.78 71.779zm.993 0c0 40.192-32.581 72.773-72.773 72.773-40.19 0-72.773-32.581-72.773-72.773 0-40.19 32.583-72.773 72.773-72.773 40.192 0 72.773 32.583 72.773 72.773z" fill="url(#paint0_linear)"/></g></g><defs><linearGradient id="paint0_linear" x1="5" y1="548" x2="1755" y2="552.318" gradientUnits="userSpaceOnUse"><stop stop-color="#fff" stop-opacity="0"/><stop offset="1" stop-color="#fff" stop-opacity=".05"/></linearGradient><clipPath id="clip0"><path fill="#fff" d="M0 0h2224v1500H0z"/></clipPath></defs></svg>