<svg width="60" height="60" viewBox="0 0 60 60" fill="none" xmlns="http://www.w3.org/2000/svg">
<path fill-rule="evenodd" clip-rule="evenodd" d="M34.36 5.08984C41.82 5.08984 47.86 11.1398 47.86 18.5898C47.86 26.0498 41.82 32.0898 34.36 32.0898H21.61V39.9698H40.83C41.38 39.9698 41.83 40.4198 41.83 40.9698V43.7298C41.83 44.2798 41.38 44.7298 40.83 44.7298H21.61V54.0198C21.61 54.5698 21.16 55.0198 20.61 55.0198H17.84C17.29 55.0198 16.84 54.5698 16.84 54.0198V44.7298H13.03C12.48 44.7298 12.03 44.2798 12.03 43.7298V40.9698C12.03 40.4198 12.48 39.9698 13.03 39.9698H16.84V32.0898H13.03C12.48 32.0898 12.03 31.6398 12.03 31.0898V28.3298C12.03 27.7798 12.48 27.3298 13.03 27.3298H16.84V6.08984C16.84 5.53984 17.29 5.08984 17.84 5.08984H34.36V5.08984ZM34.36 9.85984C39.19 9.85984 43.1 13.7698 43.1 18.5898C43.1 23.4198 39.19 27.3298 34.36 27.3298H21.61V9.85984H34.36Z" fill="#3462F2"/>
</svg>
