<svg width="50" height="50" viewBox="0 0 50 50" fill="none" xmlns="http://www.w3.org/2000/svg">
<path d="M18.6165 30.979C13.1175 30.979 2.1665 33.7285 2.1665 39.204V43.3165H35.0665V39.204C35.0665 33.7285 24.1155 30.979 18.6165 30.979ZM7.6655 38.6165C9.6395 37.2535 14.41 35.679 18.6165 35.679C22.823 35.679 27.5935 37.2535 29.5675 38.6165H7.6655ZM18.6165 26.8665C23.152 26.8665 26.8415 23.177 26.8415 18.6415C26.8415 14.106 23.152 10.4165 18.6165 10.4165C14.081 10.4165 10.3915 14.106 10.3915 18.6415C10.3915 23.177 14.081 26.8665 18.6165 26.8665ZM18.6165 15.1165C20.567 15.1165 22.1415 16.691 22.1415 18.6415C22.1415 20.592 20.567 22.1665 18.6165 22.1665C16.666 22.1665 15.0915 20.592 15.0915 18.6415C15.0915 16.691 16.666 15.1165 18.6165 15.1165ZM35.1605 31.12C37.8865 33.094 39.7665 35.726 39.7665 39.204V43.3165H49.1665V39.204C49.1665 34.457 40.9415 31.7545 35.1605 31.12V31.12ZM32.7165 26.8665C37.252 26.8665 40.9415 23.177 40.9415 18.6415C40.9415 14.106 37.252 10.4165 32.7165 10.4165C31.4475 10.4165 30.2725 10.722 29.1915 11.239C30.672 13.3305 31.5415 15.892 31.5415 18.6415C31.5415 21.391 30.672 23.9525 29.1915 26.044C30.2725 26.561 31.4475 26.8665 32.7165 26.8665Z" fill="#3462F2"/>
</svg>
