<svg width="635" height="329" viewBox="0 0 635 329" fill="none" xmlns="http://www.w3.org/2000/svg">
<mask id="mask0" mask-type="alpha" maskUnits="userSpaceOnUse" x="0" y="0" width="635" height="329">
<path d="M629 0H6C2.68629 0 0 2.68629 0 6V323C0 326.314 2.68629 329 6 329H629C632.314 329 635 326.314 635 323V6C635 2.68629 632.314 0 629 0Z" fill="url(#paint0_linear)"/>
</mask>
<g mask="url(#mask0)">
<path fill-rule="evenodd" clip-rule="evenodd" d="M117.82 377.25C351.499 377.25 540.89 193.999 540.89 -32C540.89 -257.999 351.499 -441.25 117.82 -441.25C-115.859 -441.25 -305.25 -257.999 -305.25 -32C-305.25 193.999 -115.859 377.25 117.82 377.25ZM117.82 378C351.89 378 541.64 194.437 541.64 -32C541.64 -258.437 351.89 -442 117.82 -442C-116.249 -442 -306 -258.437 -306 -32C-306 194.437 -116.249 378 117.82 378ZM117.82 369.131C346.864 369.131 532.498 189.515 532.498 -32C532.498 -253.515 346.864 -433.131 117.82 -433.131C-111.224 -433.131 -296.858 -253.515 -296.858 -32.001C-296.858 189.515 -111.224 369.131 117.82 369.131V369.131ZM117.82 369.881C347.255 369.881 533.248 189.953 533.248 -32C533.248 -253.953 347.255 -433.881 117.82 -433.881C-111.614 -433.881 -297.608 -253.953 -297.608 -32.001C-297.608 189.953 -111.614 369.881 117.82 369.881V369.881ZM524.105 -32C524.105 185.031 342.229 361.012 117.82 361.012C-106.589 361.012 -288.465 185.031 -288.465 -32C-288.465 -249.031 -106.589 -425.012 117.82 -425.012C342.229 -425.012 524.105 -249.031 524.105 -32ZM524.855 -32C524.855 185.469 342.62 361.762 117.82 361.762C-106.979 361.762 -289.215 185.469 -289.215 -32C-289.215 -249.469 -106.979 -425.762 117.82 -425.762C342.62 -425.762 524.855 -249.469 524.855 -32ZM117.82 352.894C337.594 352.894 515.713 180.548 515.713 -32C515.713 -244.548 337.594 -416.894 117.82 -416.894C-101.954 -416.894 -280.073 -244.548 -280.073 -32C-280.073 180.548 -101.954 352.894 117.82 352.894ZM117.82 353.644C337.984 353.644 516.463 180.985 516.463 -32C516.463 -244.985 337.984 -417.644 117.82 -417.644C-102.344 -417.644 -280.823 -244.985 -280.823 -32C-280.823 180.985 -102.344 353.644 117.82 353.644ZM507.32 -32C507.32 176.064 332.959 344.775 117.82 344.775C-97.318 344.775 -271.68 176.064 -271.68 -32C-271.68 -240.064 -97.318 -408.775 117.82 -408.775C332.959 -408.775 507.32 -240.064 507.32 -32ZM508.07 -32C508.07 176.501 333.349 345.525 117.82 345.525C-97.71 345.525 -272.43 176.501 -272.43 -32C-272.43 -240.501 -97.71 -409.525 117.82 -409.525C333.349 -409.525 508.07 -240.501 508.07 -32ZM117.82 336.656C328.324 336.656 498.928 171.58 498.928 -32C498.928 -235.58 328.324 -400.656 117.82 -400.656C-92.683 -400.656 -263.288 -235.58 -263.288 -32C-263.288 171.58 -92.683 336.656 117.82 336.656ZM117.82 337.406C328.714 337.406 499.678 172.017 499.678 -32C499.678 -236.017 328.714 -401.406 117.82 -401.406C-93.074 -401.406 -264.038 -236.017 -264.038 -32C-264.038 172.017 -93.074 337.406 117.82 337.406ZM490.536 -32C490.536 167.096 323.689 328.537 117.82 328.537C-88.048 328.537 -254.895 167.096 -254.895 -32C-254.895 -231.096 -88.048 -392.537 117.82 -392.537C323.689 -392.537 490.536 -231.096 490.536 -32ZM491.286 -32C491.286 167.533 324.079 329.287 117.82 329.287C-88.439 329.287 -255.645 167.533 -255.645 -32C-255.645 -231.533 -88.439 -393.287 117.82 -393.287C324.079 -393.287 491.286 -231.533 491.286 -32ZM117.82 320.418C319.054 320.418 482.143 162.612 482.143 -32C482.143 -226.612 319.054 -384.418 117.82 -384.418C-83.413 -384.418 -246.503 -226.612 -246.503 -32C-246.503 162.612 -83.413 320.418 117.82 320.418ZM117.82 321.168C319.444 321.168 482.893 163.049 482.893 -32C482.893 -227.049 319.444 -385.168 117.82 -385.168C-83.804 -385.168 -247.253 -227.049 -247.253 -32C-247.253 163.049 -83.804 321.168 117.82 321.168ZM473.751 -32C473.751 158.128 314.419 312.299 117.82 312.299C-78.778 312.299 -238.11 158.128 -238.11 -32C-238.11 -222.128 -78.778 -376.299 117.82 -376.299C314.419 -376.299 473.751 -222.128 473.751 -32ZM474.501 -32C474.501 158.566 314.809 313.049 117.82 313.049C-79.169 313.049 -238.86 158.566 -238.86 -32C-238.86 -222.566 -79.169 -377.049 117.82 -377.049C314.809 -377.049 474.501 -222.566 474.501 -32ZM117.82 304.181C309.784 304.181 465.358 153.644 465.358 -32C465.358 -217.644 309.784 -368.181 117.82 -368.181C-74.143 -368.181 -229.718 -217.644 -229.718 -32C-229.718 153.644 -74.143 304.181 117.82 304.181ZM117.82 304.931C310.174 304.931 466.108 154.082 466.108 -32C466.108 -218.082 310.174 -368.931 117.82 -368.931C-74.534 -368.931 -230.468 -218.082 -230.468 -32C-230.468 154.082 -74.534 304.931 117.82 304.931ZM456.966 -32C456.966 149.16 305.149 296.062 117.82 296.062C-69.508 296.062 -221.325 149.16 -221.325 -32C-221.325 -213.16 -69.508 -360.062 117.82 -360.062C305.149 -360.062 456.966 -213.16 456.966 -32ZM457.716 -32C457.716 149.598 305.539 296.812 117.82 296.812C-69.899 296.812 -222.075 149.598 -222.075 -32C-222.075 -213.598 -69.899 -360.812 117.82 -360.812C305.539 -360.812 457.716 -213.598 457.716 -32ZM117.82 287.943C300.514 287.943 448.573 144.676 448.573 -32C448.573 -208.676 300.514 -351.943 117.82 -351.943C-64.873 -351.943 -212.933 -208.676 -212.933 -32C-212.933 144.676 -64.873 287.943 117.82 287.943ZM117.82 288.693C300.904 288.693 449.323 145.114 449.323 -32C449.323 -209.114 300.904 -352.693 117.82 -352.693C-65.264 -352.693 -213.683 -209.114 -213.683 -32C-213.683 145.114 -65.263 288.693 117.82 288.693ZM440.181 -32C440.181 140.193 295.879 279.824 117.82 279.824C-60.238 279.824 -204.54 140.193 -204.54 -32C-204.54 -204.193 -60.238 -343.824 117.82 -343.824C295.879 -343.824 440.181 -204.193 440.181 -32ZM440.931 -32C440.931 140.63 296.269 280.574 117.82 280.574C-60.629 280.574 -205.29 140.63 -205.29 -32C-205.29 -204.63 -60.629 -344.574 117.82 -344.574C296.269 -344.574 440.931 -204.63 440.931 -32ZM117.82 271.706C291.244 271.706 431.788 135.709 431.788 -32C431.788 -199.709 291.244 -335.705 117.82 -335.705C-55.603 -335.705 -196.148 -199.709 -196.148 -32C-196.148 135.709 -55.603 271.706 117.82 271.706ZM117.82 272.456C291.634 272.456 432.538 136.146 432.538 -32C432.538 -200.146 291.634 -336.455 117.82 -336.455C-55.994 -336.455 -196.898 -200.146 -196.898 -32C-196.898 136.146 -55.994 272.456 117.82 272.456ZM423.396 -32C423.396 131.225 286.609 263.587 117.82 263.587C-50.968 263.587 -187.755 131.225 -187.755 -32C-187.755 -195.225 -50.968 -327.587 117.82 -327.587C286.609 -327.587 423.396 -195.225 423.396 -32ZM424.146 -32C424.146 131.662 286.999 264.337 117.82 264.337C-51.359 264.337 -188.505 131.662 -188.505 -32C-188.505 -195.662 -51.359 -328.337 117.82 -328.337C286.999 -328.337 424.146 -195.662 424.146 -32ZM117.82 255.468C281.974 255.468 415.003 126.741 415.003 -32C415.003 -190.741 281.974 -319.468 117.82 -319.468C-46.333 -319.468 -179.363 -190.741 -179.363 -32C-179.363 126.741 -46.333 255.468 117.82 255.468V255.468ZM117.82 256.218C282.364 256.218 415.753 127.178 415.753 -32C415.753 -191.178 282.364 -320.218 117.82 -320.218C-46.724 -320.218 -180.113 -191.178 -180.113 -32C-180.113 127.178 -46.723 256.218 117.82 256.218ZM406.611 -32C406.611 122.257 277.339 247.349 117.82 247.349C-41.698 247.349 -170.97 122.257 -170.97 -32C-170.97 -186.257 -41.698 -311.349 117.82 -311.349C277.339 -311.349 406.611 -186.257 406.611 -32ZM407.361 -32C407.361 122.694 277.729 248.099 117.82 248.099C-42.089 248.099 -171.72 122.694 -171.72 -32C-171.72 -186.694 -42.089 -312.099 117.82 -312.099C277.729 -312.099 407.361 -186.694 407.361 -32ZM117.82 239.23C272.703 239.23 398.218 117.773 398.218 -32C398.218 -181.773 272.703 -303.23 117.82 -303.23C-37.063 -303.23 -162.578 -181.773 -162.578 -32C-162.578 117.773 -37.063 239.23 117.82 239.23V239.23ZM117.82 239.98C273.094 239.98 398.968 118.21 398.968 -32C398.968 -182.211 273.094 -303.98 117.82 -303.98C-37.454 -303.98 -163.328 -182.211 -163.328 -32C-163.328 118.21 -37.454 239.98 117.82 239.98V239.98ZM389.826 -32C389.826 113.289 268.068 231.111 117.82 231.111C-32.428 231.111 -154.185 113.289 -154.185 -32C-154.185 -177.289 -32.428 -295.111 117.82 -295.111C268.068 -295.111 389.826 -177.289 389.826 -32ZM390.576 -32C390.576 113.727 268.459 231.861 117.82 231.861C-32.818 231.861 -154.935 113.727 -154.935 -32C-154.935 -177.727 -32.818 -295.861 117.82 -295.861C268.459 -295.861 390.576 -177.727 390.576 -32ZM117.82 222.993C263.433 222.993 381.433 108.805 381.433 -32C381.433 -172.805 263.433 -286.993 117.82 -286.993C-27.793 -286.993 -145.793 -172.805 -145.793 -32C-145.793 108.805 -27.793 222.993 117.82 222.993ZM117.82 223.743C263.824 223.743 382.183 109.243 382.183 -32C382.183 -173.243 263.824 -287.743 117.82 -287.743C-28.184 -287.743 -146.543 -173.243 -146.543 -32C-146.543 109.243 -28.183 223.743 117.82 223.743ZM373.041 -32C373.041 104.321 258.798 214.874 117.82 214.874C-23.158 214.874 -137.4 104.321 -137.4 -32C-137.4 -168.321 -23.158 -278.874 117.82 -278.874C258.798 -278.874 373.041 -168.321 373.041 -32ZM373.791 -32C373.791 104.759 259.189 215.624 117.82 215.624C-23.548 215.624 -138.15 104.759 -138.15 -32C-138.15 -168.759 -23.548 -279.624 117.82 -279.624C259.189 -279.624 373.791 -168.759 373.791 -32V-32ZM117.82 206.755C254.163 206.755 364.648 99.838 364.648 -32C364.648 -163.837 254.163 -270.755 117.82 -270.755C-18.523 -270.755 -129.008 -163.837 -129.008 -32C-129.008 99.838 -18.523 206.755 117.82 206.755V206.755ZM117.82 207.505C254.554 207.505 365.398 100.275 365.398 -32C365.398 -164.275 254.554 -271.505 117.82 -271.505C-18.913 -271.505 -129.758 -164.275 -129.758 -32C-129.758 100.275 -18.913 207.505 117.82 207.505V207.505ZM356.256 -32C356.256 95.353 249.528 198.636 117.82 198.636C-13.888 198.636 -120.615 95.354 -120.615 -32C-120.615 -159.354 -13.888 -262.636 117.82 -262.636C249.528 -262.636 356.256 -159.354 356.256 -32ZM357.006 -32C357.006 95.79 249.919 199.386 117.82 199.386C-14.278 199.386 -121.365 95.791 -121.365 -32C-121.365 -159.791 -14.278 -263.386 117.82 -263.386C249.919 -263.386 357.006 -159.791 357.006 -32V-32ZM117.82 190.517C244.893 190.517 347.863 90.87 347.863 -32C347.863 -154.87 244.893 -254.517 117.82 -254.517C-9.25299 -254.517 -112.223 -154.87 -112.223 -32C-112.223 90.87 -9.25299 190.517 117.82 190.517ZM117.82 191.267C245.284 191.267 348.613 91.307 348.613 -32C348.613 -155.307 245.284 -255.267 117.82 -255.267C-9.64299 -255.267 -112.973 -155.307 -112.973 -32C-112.973 91.307 -9.64299 191.267 117.82 191.267ZM339.471 -32C339.471 86.386 240.258 182.399 117.82 182.399C-4.618 182.399 -103.831 86.386 -103.831 -32C-103.831 -150.386 -4.618 -246.398 117.82 -246.398C240.258 -246.398 339.471 -150.386 339.471 -32ZM340.221 -32C340.221 86.823 240.649 183.149 117.82 183.149C-5.008 183.149 -104.581 86.823 -104.581 -32C-104.581 -150.823 -5.008 -247.148 117.82 -247.148C240.649 -247.148 340.221 -150.823 340.221 -32ZM117.82 174.28C235.623 174.28 331.078 81.902 331.078 -32C331.078 -145.902 235.623 -238.28 117.82 -238.28C0.0170059 -238.28 -95.438 -145.902 -95.438 -32C-95.438 81.902 0.0170059 174.28 117.82 174.28ZM117.82 175.03C236.014 175.03 331.828 82.34 331.828 -32C331.828 -146.339 236.014 -239.03 117.82 -239.03C-0.372993 -239.03 -96.188 -146.339 -96.188 -32C-96.188 82.34 -0.372993 175.03 117.82 175.03V175.03ZM322.686 -32C322.686 77.418 230.988 166.161 117.82 166.161C4.65201 166.161 -87.045 77.418 -87.045 -32C-87.045 -141.418 4.65101 -230.161 117.82 -230.161C230.989 -230.161 322.686 -141.418 322.686 -32.001V-32ZM323.436 -32C323.436 77.855 231.379 166.911 117.82 166.911C4.26201 166.911 -87.795 77.855 -87.795 -32C-87.795 -141.856 4.26201 -230.911 117.82 -230.911C231.379 -230.911 323.436 -141.856 323.436 -32.001V-32ZM117.82 158.042C226.353 158.042 314.293 72.934 314.293 -32C314.293 -136.934 226.353 -222.042 117.82 -222.042C9.28701 -222.042 -78.653 -136.934 -78.653 -32C-78.653 72.934 9.28701 158.042 117.82 158.042ZM117.82 158.792C226.744 158.792 315.043 73.372 315.043 -32C315.043 -137.372 226.744 -222.792 117.82 -222.792C8.89701 -222.792 -79.403 -137.372 -79.403 -32C-79.403 73.371 8.89701 158.792 117.82 158.792V158.792ZM305.901 -32C305.901 68.45 221.718 149.923 117.82 149.923C13.922 149.923 -70.26 68.45 -70.26 -32C-70.26 -132.45 13.922 -213.923 117.82 -213.923C221.718 -213.923 305.901 -132.45 305.901 -32ZM306.651 -32C306.651 68.888 222.109 150.673 117.82 150.673C13.532 150.673 -71.01 68.888 -71.01 -32C-71.01 -132.888 13.532 -214.673 117.82 -214.673C222.109 -214.673 306.651 -132.888 306.651 -32ZM117.82 141.804C217.083 141.804 297.508 63.966 297.508 -32C297.508 -127.966 217.083 -205.804 117.82 -205.804C18.557 -205.804 -61.868 -127.966 -61.868 -32C-61.868 63.966 18.557 141.804 117.82 141.804ZM117.82 142.554C217.474 142.554 298.258 64.404 298.258 -32C298.258 -128.404 217.474 -206.554 117.82 -206.554C18.167 -206.554 -62.618 -128.404 -62.618 -32C-62.618 64.404 18.167 142.554 117.82 142.554ZM289.116 -32C289.116 59.483 212.448 133.686 117.82 133.686C23.193 133.686 -53.476 59.482 -53.476 -32C-53.476 -123.482 23.192 -197.686 117.82 -197.686C212.448 -197.686 289.116 -123.482 289.116 -32ZM289.866 -32C289.866 59.92 212.839 134.436 117.82 134.436C22.802 134.436 -54.226 59.92 -54.226 -32C-54.226 -123.92 22.802 -198.436 117.82 -198.436C212.839 -198.436 289.866 -123.92 289.866 -32ZM117.82 125.567C207.813 125.567 280.724 54.999 280.724 -32C280.724 -118.999 207.813 -189.567 117.82 -189.567C27.828 -189.567 -45.083 -118.999 -45.083 -32C-45.083 54.999 27.827 125.567 117.82 125.567V125.567ZM117.82 126.317C208.203 126.317 281.474 55.436 281.474 -32C281.474 -119.436 208.203 -190.317 117.82 -190.317C27.437 -190.317 -45.833 -119.436 -45.833 -32C-45.833 55.436 27.437 126.317 117.82 126.317V126.317ZM272.331 -32C272.331 50.514 203.178 117.448 117.82 117.448C32.463 117.448 -36.69 50.515 -36.69 -32C-36.69 -114.515 32.463 -181.448 117.82 -181.448C203.178 -181.448 272.331 -114.515 272.331 -32ZM273.081 -32C273.081 50.952 203.568 118.198 117.82 118.198C32.072 118.198 -37.44 50.952 -37.44 -32C-37.44 -114.952 32.072 -182.198 117.82 -182.198C203.568 -182.198 273.081 -114.952 273.081 -32ZM117.82 109.329C198.543 109.329 263.939 46.031 263.939 -32.001C263.939 -110.031 198.543 -173.329 117.82 -173.329C37.098 -173.329 -28.298 -110.031 -28.298 -32C-28.298 46.03 37.098 109.329 117.82 109.329V109.329ZM117.82 110.079C198.933 110.079 264.689 46.469 264.689 -32.001C264.689 -110.468 198.933 -174.079 117.82 -174.079C36.707 -174.079 -29.048 -110.468 -29.048 -32C-29.048 46.468 36.707 110.079 117.82 110.079V110.079ZM255.546 -32C255.546 41.547 193.908 101.211 117.82 101.211C41.733 101.211 -19.906 41.547 -19.906 -31.999C-19.906 -105.547 41.733 -165.21 117.82 -165.21C193.908 -165.21 255.546 -105.547 255.546 -32ZM256.296 -32C256.296 41.984 194.298 101.961 117.82 101.961C41.342 101.961 -20.656 41.984 -20.656 -31.999C-20.656 -105.984 41.342 -165.96 117.82 -165.96C194.298 -165.96 256.296 -105.984 256.296 -32ZM117.82 93.092C189.273 93.092 247.154 37.062 247.154 -32C247.154 -101.063 189.273 -157.092 117.82 -157.092C46.368 -157.092 -11.513 -101.063 -11.513 -32C-11.513 37.063 46.367 93.092 117.82 93.092V93.092ZM117.82 93.842C189.663 93.842 247.904 37.5 247.904 -32C247.904 -101.5 189.663 -157.842 117.82 -157.842C45.977 -157.842 -12.263 -101.5 -12.263 -32C-12.263 37.5 45.977 93.842 117.82 93.842ZM238.761 -32C238.761 32.579 184.638 84.973 117.82 84.973C51.003 84.973 -3.12 32.579 -3.12 -32C-3.12 -96.579 51.003 -148.973 117.82 -148.973C184.638 -148.973 238.761 -96.579 238.761 -32V-32ZM239.511 -32C239.511 33.017 185.028 85.723 117.82 85.723C50.612 85.723 -3.87 33.017 -3.87 -32C-3.87 -97.016 50.612 -149.723 117.82 -149.723C185.028 -149.723 239.511 -97.016 239.511 -32ZM117.82 76.854C180.003 76.854 230.369 28.095 230.369 -32C230.369 -92.095 180.003 -140.854 117.82 -140.854C55.638 -140.854 5.272 -92.095 5.272 -32C5.272 28.095 55.638 76.854 117.82 76.854ZM117.82 77.604C180.393 77.604 231.119 28.533 231.119 -32C231.119 -92.533 180.393 -141.604 117.82 -141.604C55.247 -141.604 4.522 -92.533 4.522 -32C4.522 28.533 55.247 77.604 117.82 77.604ZM221.976 -32C221.976 23.611 175.368 68.735 117.82 68.735C60.273 68.735 13.664 23.611 13.664 -32C13.664 -87.611 60.273 -132.735 117.82 -132.735C175.368 -132.735 221.976 -87.611 221.976 -32V-32ZM222.726 -32C222.726 24.049 175.758 69.485 117.82 69.485C59.882 69.485 12.914 24.05 12.914 -32C12.914 -88.05 59.882 -133.485 117.82 -133.485C175.758 -133.485 222.726 -88.049 222.726 -32ZM117.82 60.616C170.733 60.616 213.584 19.127 213.584 -32C213.584 -83.127 170.733 -124.616 117.82 -124.616C64.908 -124.616 22.057 -83.127 22.057 -32C22.057 19.127 64.907 60.616 117.82 60.616V60.616ZM117.82 61.366C171.123 61.366 214.334 19.565 214.334 -32C214.334 -83.565 171.123 -125.366 117.82 -125.366C64.517 -125.366 21.307 -83.565 21.307 -32C21.307 19.565 64.517 61.366 117.82 61.366V61.366ZM205.191 -32C205.191 14.643 166.098 52.498 117.82 52.498C69.543 52.498 30.45 14.643 30.45 -32C30.45 -78.644 69.543 -116.498 117.82 -116.498C166.098 -116.498 205.191 -78.643 205.191 -32ZM205.941 -32C205.941 15.08 166.488 53.248 117.82 53.248C69.152 53.248 29.7 15.08 29.7 -32C29.7 -79.08 69.152 -117.248 117.82 -117.248C166.488 -117.248 205.941 -79.081 205.941 -32ZM117.82 44.379C161.463 44.379 196.799 10.159 196.799 -32C196.799 -74.16 161.463 -108.379 117.82 -108.379C74.178 -108.379 38.842 -74.159 38.842 -32C38.842 10.16 74.178 44.379 117.82 44.379V44.379ZM117.82 45.129C161.853 45.129 197.549 10.597 197.549 -32C197.549 -74.597 161.853 -109.129 117.82 -109.129C73.787 -109.129 38.092 -74.597 38.092 -32C38.092 10.597 73.787 45.129 117.82 45.129V45.129ZM188.406 -32.001C188.406 5.67599 156.827 36.259 117.82 36.259C78.813 36.259 47.234 5.677 47.234 -32C47.234 -69.675 78.813 -100.259 117.82 -100.259C156.827 -100.259 188.406 -69.676 188.406 -32V-32.001ZM189.156 -32.001C189.156 6.11299 157.218 37.009 117.82 37.009C78.422 37.009 46.484 6.11299 46.484 -32.001C46.484 -70.113 78.422 -101.01 117.82 -101.01C157.218 -101.01 189.156 -70.113 189.156 -32V-32.001ZM117.82 28.142C152.192 28.142 180.014 1.19201 180.014 -31.999C180.014 -65.191 152.192 -92.14 117.82 -92.14C83.448 -92.14 55.627 -65.191 55.627 -32C55.627 1.192 83.448 28.141 117.82 28.141V28.142ZM117.82 28.892C152.583 28.892 180.764 1.63001 180.764 -31.999C180.764 -65.629 152.583 -92.89 117.82 -92.89C83.057 -92.89 54.877 -65.628 54.877 -31.999C54.877 1.63101 83.057 28.892 117.82 28.892V28.892ZM171.621 -32C171.621 -3.292 147.557 20.022 117.82 20.022C88.083 20.022 64.02 -3.292 64.02 -32C64.02 -60.708 88.083 -84.022 117.82 -84.022C147.557 -84.022 171.621 -60.708 171.621 -32ZM172.371 -32C172.371 -2.855 147.948 20.772 117.82 20.772C87.693 20.772 63.27 -2.855 63.27 -32C63.27 -61.145 87.692 -84.772 117.82 -84.772C147.948 -84.772 172.371 -61.145 172.371 -32V-32ZM117.82 11.903C142.922 11.903 163.229 -7.777 163.229 -32C163.229 -56.224 142.922 -75.903 117.82 -75.903C92.718 -75.903 72.412 -56.224 72.412 -32C72.412 -7.776 92.718 11.903 117.82 11.903V11.903ZM117.82 12.653C143.313 12.653 163.979 -7.339 163.979 -32C163.979 -56.661 143.313 -76.653 117.82 -76.653C92.328 -76.653 71.662 -56.661 71.662 -32C71.662 -7.339 92.327 12.653 117.82 12.653V12.653ZM138.051 -32C138.051 -21.228 129.017 -12.453 117.82 -12.453C106.623 -12.453 97.589 -21.228 97.589 -32C97.589 -42.772 106.623 -51.547 117.82 -51.547C129.017 -51.547 138.051 -42.772 138.051 -32V-32ZM138.801 -32C138.801 -20.79 129.408 -11.703 117.82 -11.703C106.233 -11.703 96.839 -20.79 96.839 -32C96.839 -43.21 106.233 -52.297 117.82 -52.297C129.408 -52.297 138.801 -43.21 138.801 -32V-32ZM117.82 -20.572C124.382 -20.572 129.659 -25.712 129.659 -32C129.659 -38.288 124.382 -43.428 117.82 -43.428C111.258 -43.428 105.981 -38.288 105.981 -32C105.981 -25.712 111.258 -20.572 117.82 -20.572ZM117.82 -19.822C124.773 -19.822 130.409 -25.274 130.409 -32C130.409 -38.726 124.773 -44.178 117.82 -44.178C110.868 -44.178 105.231 -38.726 105.231 -32C105.231 -25.274 110.868 -19.822 117.82 -19.822V-19.822ZM121.266 -32C121.266 -30.196 119.747 -28.69 117.82 -28.69C115.893 -28.69 114.374 -30.196 114.374 -32C114.374 -33.805 115.893 -35.31 117.82 -35.31C119.747 -35.31 121.266 -33.805 121.266 -32ZM122.016 -32C122.016 -29.758 120.138 -27.94 117.82 -27.94C115.503 -27.94 113.624 -29.758 113.624 -32C113.624 -34.242 115.503 -36.06 117.82 -36.06C120.138 -36.06 122.016 -34.242 122.016 -32ZM117.82 3.785C138.287 3.785 154.836 -12.26 154.836 -32C154.836 -51.74 138.287 -67.785 117.82 -67.785C97.353 -67.785 80.804 -51.74 80.804 -32C80.804 -12.26 97.354 3.785 117.82 3.785V3.785ZM117.82 4.535C138.678 4.535 155.586 -11.823 155.586 -32C155.586 -52.178 138.678 -68.535 117.82 -68.535C96.963 -68.535 80.054 -52.178 80.054 -32C80.054 -11.823 96.963 4.535 117.82 4.535V4.535ZM146.444 -32C146.444 -16.744 133.652 -4.33401 117.82 -4.33401C101.988 -4.33401 89.197 -16.744 89.197 -32C89.197 -47.256 101.988 -59.666 117.82 -59.666C133.652 -59.666 146.444 -47.256 146.444 -32ZM147.194 -32C147.194 -16.306 134.043 -3.58401 117.82 -3.58401C101.598 -3.58401 88.447 -16.306 88.447 -32C88.447 -47.694 101.598 -60.416 117.82 -60.416C134.043 -60.416 147.194 -47.694 147.194 -32V-32Z" fill="url(#paint1_linear)"/>
</g>
<defs>
<linearGradient id="paint0_linear" x1="317.5" y1="0" x2="317.5" y2="329" gradientUnits="userSpaceOnUse">
<stop stop-color="#EFF2F4" stop-opacity="0.51"/>
<stop offset="1" stop-color="#EFF2F4"/>
</linearGradient>
<linearGradient id="paint1_linear" x1="118" y1="-0.499979" x2="354.5" y2="312.5" gradientUnits="userSpaceOnUse">
<stop offset="0.423" stop-opacity="0.07"/>
<stop offset="1" stop-color="white" stop-opacity="0.23"/>
</linearGradient>
</defs>
</svg>
