<svg width="800" height="415" fill="none" xmlns="http://www.w3.org/2000/svg"><mask id="a" maskUnits="userSpaceOnUse" x="0" y="0" width="800" height="415"><path d="M792.441 0H7.559A7.56 7.56 0 000 7.56v399.369a7.559 7.559 0 007.56 7.559H792.44a7.559 7.559 0 007.559-7.559V7.559A7.559 7.559 0 00792.441 0z" fill="url(#paint0_linear)"/></mask><g mask="url(#a)"><path fill-rule="evenodd" clip-rule="evenodd" d="M579.946 363.126c294.399 0 533.004-230.868 533.004-515.591s-238.605-515.59-533.004-515.59c-294.398 0-533.001 230.867-533.001 515.59 0 284.723 238.603 515.591 533.001 515.591zm0 .945c294.892 0 533.944-231.261 533.944-516.536S874.838-669 579.946-669C285.056-669 46-437.74 46-152.465s239.056 516.536 533.946 516.536zm0-11.174c288.56 0 522.434-226.288 522.434-505.362S868.506-657.826 579.946-657.826c-288.559 0-522.428 226.287-522.428 505.361 0 279.074 233.869 505.362 522.428 505.362zm0 .945c289.052 0 523.374-226.681 523.374-506.307 0-279.625-234.322-506.306-523.374-506.306-289.05 0-523.373 226.681-523.373 506.306 0 279.626 234.323 506.307 523.373 506.307zM1091.8-152.465c0 273.425-229.134 495.134-511.854 495.134S68.091 120.96 68.091-152.465c0-273.424 229.135-495.133 511.855-495.133S1091.8-425.889 1091.8-152.465zm.95 0c0 273.977-229.591 496.078-512.804 496.078-283.211 0-512.8-222.101-512.8-496.078 0-273.976 229.589-496.078 512.8-496.078 283.213 0 512.804 222.102 512.804 496.078zM579.946 332.441c276.881 0 501.284-217.129 501.284-484.906 0-267.777-224.403-484.905-501.284-484.905-276.88 0-501.282 217.128-501.282 484.905s224.402 484.906 501.282 484.906zm0 .945c277.372 0 502.224-217.523 502.224-485.851 0-268.327-224.852-485.85-502.224-485.85-277.372 0-502.227 217.523-502.227 485.85 0 268.328 224.855 485.851 502.227 485.851zm490.714-485.851c0 262.128-219.672 474.678-490.714 474.678-271.04 0-490.708-212.55-490.708-474.678 0-262.127 219.668-474.677 490.708-474.677 271.042 0 490.714 212.55 490.714 474.677zm.94 0c0 262.679-220.121 475.622-491.654 475.622-271.532 0-491.653-212.943-491.653-475.622 0-262.678 220.121-475.622 491.653-475.622 271.533 0 491.654 212.944 491.654 475.622zM579.946 311.984c265.202 0 480.134-207.97 480.134-464.449 0-256.478-214.932-464.448-480.134-464.448-265.201 0-480.136 207.97-480.136 464.448 0 256.479 214.935 464.449 480.136 464.449zm0 .945c265.694 0 481.084-208.364 481.084-465.394 0-257.029-215.39-465.393-481.084-465.393-265.693 0-481.08 208.364-481.08 465.393 0 257.03 215.387 465.394 481.08 465.394zm469.564-465.394c0 250.83-210.201 454.22-469.564 454.22-259.361 0-469.562-203.39-469.562-454.22 0-250.829 210.201-454.219 469.562-454.219 259.363 0 469.564 203.39 469.564 454.219zm.94 0c0 251.38-210.65 455.165-470.504 455.165-259.853 0-470.507-203.784-470.507-455.165 0-251.38 210.654-455.164 470.507-455.164 259.854 0 470.504 203.784 470.504 455.164zM579.946 291.526c253.524 0 458.994-198.81 458.994-443.991 0-245.18-205.47-443.991-458.994-443.991-253.522 0-458.989 198.811-458.989 443.991 0 245.18 205.467 443.991 458.989 443.991zm0 .945c254.015 0 459.934-199.205 459.934-444.936 0-245.731-205.919-444.936-459.934-444.936-254.014 0-459.934 199.205-459.934 444.936 0 245.731 205.92 444.936 459.934 444.936zm448.414-444.936c0 239.532-200.73 433.763-448.414 433.763-247.682 0-448.415-194.231-448.415-433.763 0-239.531 200.733-433.762 448.415-433.762 247.684 0 448.414 194.231 448.414 433.762zm.95 0c0 240.084-201.188 434.708-449.364 434.708-248.175 0-449.36-194.625-449.36-434.708 0-240.083 201.185-434.707 449.36-434.707 248.176 0 449.364 194.624 449.364 434.707zM579.946 271.07c241.845 0 437.844-189.652 437.844-423.535C1017.79-386.347 821.791-576 579.946-576c-241.843 0-437.843 189.653-437.843 423.535 0 233.883 196 423.535 437.843 423.535zm0 .945c242.336 0 438.784-190.046 438.784-424.48 0-234.434-196.448-424.48-438.784-424.48-242.335 0-438.788 190.046-438.788 424.48 0 234.434 196.453 424.48 438.788 424.48zm427.274-424.48c0 228.233-191.269 413.307-427.274 413.307-236.004 0-427.269-185.074-427.269-413.307s191.265-413.306 427.269-413.306c236.005 0 427.274 185.073 427.274 413.306zm.94 0c0 228.785-191.717 414.252-428.214 414.252-236.496 0-428.214-185.467-428.214-414.252 0-228.784 191.718-414.251 428.214-414.251 236.497 0 428.214 185.467 428.214 414.251zM579.946 250.613c230.166 0 416.697-180.494 416.697-403.078 0-222.584-186.531-403.077-416.697-403.077-230.164 0-416.696 180.493-416.696 403.077s186.532 403.078 416.696 403.078zm0 .945c230.657 0 417.642-180.887 417.642-404.023 0-223.135-186.985-404.022-417.642-404.022-230.656 0-417.641 180.887-417.641 404.022 0 223.136 186.985 404.023 417.641 404.023zm406.125-404.023c0 216.936-181.798 392.849-406.125 392.849-224.325 0-406.122-175.913-406.122-392.849 0-216.936 181.797-392.849 406.122-392.849 224.327 0 406.125 175.913 406.125 392.849zm.944 0c0 217.487-182.251 393.794-407.069 393.794-224.817 0-407.067-176.307-407.067-393.794 0-217.486 182.25-393.794 407.067-393.794 224.818 0 407.069 176.308 407.069 393.794zM579.946 230.157c218.487 0 395.551-171.335 395.551-382.622s-177.064-382.62-395.551-382.62c-218.485 0-395.55 171.333-395.55 382.62s177.065 382.622 395.55 382.622zm0 .945c218.979 0 396.496-171.73 396.496-383.567 0-211.837-177.517-383.565-396.496-383.565-218.977 0-396.495 171.728-396.495 383.565 0 211.838 177.518 383.567 396.495 383.567zm384.978-383.567c0 205.638-172.33 372.393-384.978 372.393-212.646 0-384.976-166.755-384.976-372.393 0-205.637 172.33-372.393 384.976-372.393 212.648 0 384.978 166.756 384.978 372.393zm.945 0c0 206.189-172.784 373.338-385.923 373.338-213.138 0-385.921-167.15-385.921-373.338 0-206.188 172.783-373.338 385.921-373.338 213.139 0 385.923 167.15 385.923 373.338zM579.946 209.7c206.809 0 374.404-162.176 374.404-362.165 0-199.988-167.595-362.164-374.404-362.164-206.807 0-374.403 162.176-374.403 362.164 0 199.989 167.596 362.165 374.403 362.165zm0 .945c207.3 0 375.349-162.57 375.349-363.11 0-200.539-168.049-363.109-375.349-363.109-207.299 0-375.348 162.57-375.348 363.109 0 200.54 168.049 363.11 375.348 363.11zm363.832-363.11c0 194.34-162.863 351.936-363.832 351.936-200.967 0-363.829-157.596-363.829-351.936 0-194.339 162.862-351.935 363.829-351.935 200.969 0 363.832 157.596 363.832 351.935zm.944 0c0 194.89-163.315 352.881-364.776 352.881-201.459 0-364.774-157.99-364.774-352.881 0-194.89 163.315-352.88 364.774-352.88 201.461 0 364.776 157.99 364.776 352.88zM579.946 189.242c195.129 0 353.258-153.016 353.258-341.707 0-188.69-158.129-341.707-353.258-341.707-195.128 0-353.257 153.017-353.257 341.707s158.129 341.707 353.257 341.707zm0 .945c195.621 0 354.203-153.41 354.203-342.652S775.567-495.117 579.946-495.117c-195.62 0-354.202 153.41-354.202 342.652 0 189.241 158.582 342.652 354.202 342.652zm342.685-342.652c0 183.042-153.396 331.479-342.685 331.479-189.288 0-342.683-148.437-342.683-331.479 0-183.041 153.395-331.478 342.683-331.478 189.289 0 342.685 148.437 342.685 331.478zm.945 0c0 183.593-153.848 332.424-343.63 332.424-189.78 0-343.628-148.83-343.628-332.424 0-183.593 153.848-332.423 343.628-332.423 189.782 0 343.63 148.83 343.63 332.423zm-343.63 321.251c183.45 0 332.111-143.858 332.111-321.251 0-177.392-148.661-321.251-332.111-321.251-183.449 0-332.11 143.859-332.11 321.251 0 177.393 148.661 321.251 332.11 321.251zm0 .945c183.943 0 333.056-144.252 333.056-322.196 0-177.944-149.113-322.196-333.056-322.196-183.941 0-333.055 144.252-333.055 322.196 0 177.944 149.114 322.196 333.055 322.196zm321.539-322.196c0 171.743-143.928 311.023-321.539 311.023-177.609 0-321.537-139.28-321.537-311.023 0-171.743 143.928-311.022 321.537-311.022 177.611 0 321.539 139.279 321.539 311.022zm.945 0c0 172.295-144.381 311.968-322.484 311.968-178.101 0-322.481-139.673-322.481-311.968 0-172.294 144.38-311.967 322.481-311.967 178.103 0 322.484 139.673 322.484 311.967zM579.946 148.329c171.771 0 310.965-134.7 310.965-300.794 0-166.093-139.194-300.793-310.965-300.793-171.77 0-310.964 134.7-310.964 300.793 0 166.095 139.194 300.794 310.964 300.794zm0 .945c172.264 0 311.91-135.093 311.91-301.739 0-166.645-139.646-301.738-311.91-301.738-172.262 0-311.909 135.093-311.909 301.738 0 166.646 139.647 301.739 311.909 301.739zm300.392-301.739c0 160.446-134.46 290.565-300.392 290.565-165.931 0-300.39-130.12-300.39-290.565 0-160.446 134.459-290.565 300.39-290.565 165.932 0 300.392 130.119 300.392 290.565zm.945 0c0 160.997-134.913 291.51-301.337 291.51-166.423 0-301.335-130.513-301.335-291.51 0-160.996 134.912-291.509 301.335-291.509 166.424 0 301.337 130.513 301.337 291.509zM579.946 127.872c160.092 0 289.818-125.54 289.818-280.337 0-154.796-129.726-280.336-289.818-280.336-160.091 0-289.817 125.54-289.817 280.336 0 154.797 129.726 280.337 289.817 280.337zm0 .945c160.585 0 290.763-125.934 290.763-281.282 0-155.347-130.178-281.281-290.763-281.281-160.583 0-290.762 125.934-290.762 281.281 0 155.348 130.179 281.282 290.762 281.282zm279.246-281.282c0 149.148-124.993 270.109-279.246 270.109-154.252 0-279.245-120.961-279.245-270.109 0-149.147 124.993-270.107 279.245-270.107 154.253 0 279.246 120.96 279.246 270.107zm.945 0c0 149.699-125.445 271.054-280.191 271.054-154.744 0-280.19-121.355-280.19-271.054 0-149.698 125.446-271.052 280.19-271.052 154.746 0 280.191 121.354 280.191 271.052zM579.946 107.416c148.414 0 268.672-116.382 268.672-259.881 0-143.498-120.258-259.88-268.672-259.88-148.412 0-268.671 116.382-268.671 259.88 0 143.499 120.259 259.881 268.671 259.881zm0 .945c148.906 0 269.617-116.776 269.617-260.826 0-144.049-120.711-260.825-269.617-260.825-148.904 0-269.616 116.776-269.616 260.825 0 144.05 120.712 260.826 269.616 260.826zm258.099-260.826c0 137.85-115.525 249.652-258.099 249.652-142.573 0-258.098-111.802-258.098-249.652 0-137.849 115.525-249.651 258.098-249.651 142.574 0 258.099 111.802 258.099 249.651zm.945 0c0 138.4-115.977 250.597-259.044 250.597-143.065 0-259.043-112.196-259.043-250.597s115.978-250.596 259.043-250.596c143.067 0 259.044 112.195 259.044 250.596zM579.946 86.958c136.735 0 247.525-107.222 247.525-239.423 0-132.2-110.79-239.423-247.525-239.423-136.734 0-247.525 107.223-247.525 239.423S443.212 86.958 579.946 86.958zm0 .945c137.228 0 248.47-107.616 248.47-240.368s-111.242-240.367-248.47-240.367c-137.226 0-248.47 107.615-248.47 240.367S442.72 87.903 579.946 87.903zm236.953-240.368c0 126.552-106.057 229.195-236.953 229.195-130.894 0-236.951-102.643-236.951-229.195 0-126.551 106.057-229.194 236.951-229.194 130.896 0 236.953 102.643 236.953 229.194zm.945 0c0 127.103-106.51 230.14-237.898 230.14-131.386 0-237.896-103.037-237.896-230.14 0-127.103 106.51-230.139 237.896-230.139 131.388 0 237.898 103.036 237.898 230.139zM579.946 66.501c125.056 0 226.379-98.063 226.379-218.966 0-120.902-101.323-218.965-226.379-218.965-125.055 0-226.378 98.063-226.378 218.965 0 120.903 101.323 218.966 226.378 218.966zm0 .945c125.549 0 227.324-98.457 227.324-219.911 0-121.453-101.775-219.91-227.324-219.91-125.547 0-227.323 98.457-227.323 219.91 0 121.454 101.776 219.91 227.323 219.91zm215.806-219.911c0 115.254-96.589 208.739-215.806 208.739-119.215 0-215.805-93.485-215.805-208.739 0-115.253 96.59-208.738 215.805-208.738 119.217 0 215.806 93.485 215.806 208.738zm.945 0c0 115.805-97.042 209.684-216.751 209.684-119.707 0-216.75-93.879-216.75-209.684 0-115.804 97.043-209.683 216.75-209.683 119.709 0 216.751 93.879 216.751 209.683zM579.946 46.045c113.377 0 205.234-88.905 205.234-198.51 0-109.605-91.857-198.509-205.234-198.509-113.376 0-205.232 88.904-205.232 198.509 0 109.605 91.856 198.51 205.232 198.51zm0 .945c113.869 0 206.179-89.299 206.179-199.455 0-110.155-92.31-199.454-206.179-199.454-113.868 0-206.177 89.299-206.177 199.454 0 110.156 92.309 199.455 206.177 199.455zm194.66-199.455c0 103.956-87.122 188.281-194.66 188.281-107.536 0-194.659-84.325-194.659-188.281s87.123-188.281 194.659-188.281c107.538 0 194.66 84.325 194.66 188.281zm.945 0c0 104.507-87.576 189.226-195.605 189.226s-195.604-84.72-195.604-189.226S471.917-341.69 579.946-341.69c108.029 0 195.605 84.719 195.605 189.225zM579.946 25.588c101.699 0 184.087-79.746 184.087-178.053 0-98.306-82.388-178.052-184.087-178.052-101.697 0-184.085 79.746-184.085 178.052 0 98.307 82.388 178.053 184.085 178.053zm0 .944c102.19 0 185.032-80.14 185.032-178.997 0-98.857-82.842-178.997-185.032-178.997-102.189 0-185.03 80.14-185.03 178.997 0 98.858 82.841 178.998 185.03 178.998zM753.46-152.465c0 92.658-77.655 167.825-173.514 167.825-95.858 0-173.512-75.167-173.512-167.825 0-92.657 77.654-167.823 173.512-167.823 95.859 0 173.514 75.166 173.514 167.823zm.944 0c0 93.21-78.107 168.77-174.458 168.77-96.35 0-174.457-75.56-174.457-168.77 0-93.208 78.107-168.768 174.457-168.768 96.351 0 174.458 75.56 174.458 168.768zM579.946 5.131c90.02 0 162.941-70.587 162.941-157.596 0-87.008-72.921-157.596-162.941-157.596-90.018 0-162.939 70.588-162.939 157.596 0 87.009 72.921 157.596 162.939 157.596zm0 .945c90.511 0 163.886-70.981 163.886-158.541 0-87.559-73.375-158.541-163.886-158.541-90.51 0-163.884 70.982-163.884 158.541 0 87.56 73.374 158.541 163.884 158.541zm152.367-158.541c0 81.36-68.186 147.368-152.367 147.368-84.179 0-152.366-66.008-152.366-147.368 0-81.359 68.187-147.367 152.366-147.367 84.181 0 152.367 66.008 152.367 147.367zm.945 0c0 81.91-68.64 148.313-153.312 148.313-84.671 0-153.311-66.402-153.311-148.313 0-81.91 68.64-148.312 153.311-148.312 84.672 0 153.312 66.402 153.312 148.312zM579.946-15.325c78.341 0 141.794-61.43 141.794-137.14 0-75.71-63.453-137.139-141.794-137.139-78.339 0-141.793 61.429-141.793 137.139 0 75.71 63.454 137.14 141.793 137.14zm0 .944c78.833 0 142.739-61.822 142.739-138.084 0-76.261-63.906-138.083-142.739-138.083-78.831 0-142.738 61.822-142.738 138.083 0 76.262 63.907 138.084 142.738 138.084zm131.221-138.084c0 70.062-58.719 126.91-131.221 126.91-72.5 0-131.219-56.848-131.219-126.91 0-70.061 58.719-126.91 131.219-126.91 72.502 0 131.221 56.849 131.221 126.91zm.945 0c0 70.613-59.173 127.856-132.166 127.856-72.992 0-132.164-57.243-132.164-127.856 0-70.612 59.172-127.855 132.164-127.855 72.993 0 132.166 57.243 132.166 127.855zM579.946-35.783c66.663 0 120.648-52.27 120.648-116.682s-53.985-116.681-120.648-116.681c-66.661 0-120.646 52.269-120.646 116.681 0 64.413 53.985 116.682 120.646 116.682zm0 .945c67.154 0 121.593-52.663 121.593-117.627 0-64.963-54.439-117.626-121.593-117.626-67.153 0-121.591 52.663-121.591 117.626 0 64.964 54.438 117.627 121.591 117.627zM690.02-152.465c0 58.764-49.251 106.454-110.074 106.454-60.821 0-110.073-47.69-110.073-106.454 0-58.763 49.252-106.454 110.073-106.454 60.823 0 110.074 47.691 110.074 106.454zm.945 0c0 59.315-49.705 107.399-111.019 107.399-61.313 0-111.018-48.084-111.018-107.399 0-59.314 49.705-107.399 111.018-107.399 61.314 0 111.019 48.085 111.019 107.399zM579.946-56.239c54.984 0 99.502-43.111 99.502-96.226 0-53.114-44.518-96.225-99.502-96.225-54.982 0-99.5 43.111-99.5 96.225 0 53.115 44.518 96.226 99.5 96.226zm0 .944c55.475 0 100.446-43.504 100.446-97.17 0-53.665-44.971-97.17-100.446-97.17-55.474 0-100.445 43.505-100.445 97.17 0 53.666 44.971 97.17 100.445 97.17zm88.928-97.17c0 47.466-39.785 85.997-88.928 85.997-49.142 0-88.927-38.531-88.927-85.997 0-47.465 39.785-85.996 88.927-85.996 49.143 0 88.928 38.531 88.928 85.996zm.945 0c0 48.017-40.237 86.942-89.873 86.942-49.634 0-89.872-38.925-89.872-86.942 0-48.016 40.238-86.941 89.872-86.941 49.636 0 89.873 38.925 89.873 86.941zm-89.873 75.769c43.304 0 78.355-33.952 78.355-75.769 0-41.816-35.051-75.768-78.355-75.768-43.303 0-78.353 33.952-78.353 75.768 0 41.817 35.05 75.769 78.353 75.769zm0 .945c43.796 0 79.3-34.346 79.3-76.714 0-42.367-35.504-76.713-79.3-76.713-43.795 0-79.298 34.346-79.298 76.713 0 42.368 35.503 76.714 79.298 76.714zm67.781-76.714c0 36.168-30.317 65.54-67.781 65.54-37.463 0-67.78-29.372-67.78-65.54 0-36.167 30.317-65.54 67.78-65.54 37.464 0 67.781 29.373 67.781 65.54zm.945 0c0 36.719-30.769 66.485-68.726 66.485-37.955 0-68.725-29.766-68.725-66.485 0-36.718 30.77-66.484 68.725-66.484 37.957 0 68.726 29.766 68.726 66.484zm-68.726 55.312c31.625 0 57.209-24.793 57.209-55.312 0-30.518-25.584-55.311-57.209-55.311-31.624 0-57.207 24.793-57.207 55.311 0 30.519 25.583 55.312 57.207 55.312zm0 .945c32.118 0 58.154-25.187 58.154-56.257 0-31.069-26.036-56.256-58.154-56.256-32.116 0-58.152 25.187-58.152 56.256 0 31.07 26.036 56.257 58.152 56.257zm25.488-56.257c0 13.572-11.381 24.627-25.488 24.627-14.106 0-25.487-11.055-25.487-24.627 0-13.571 11.381-24.626 25.487-24.626 14.107 0 25.488 11.055 25.488 24.626zm.945 0c0 14.123-11.833 25.571-26.433 25.571-14.597 0-26.432-11.448-26.432-25.571 0-14.122 11.835-25.571 26.432-25.571 14.6 0 26.433 11.449 26.433 25.571zm-26.433 14.398c8.268 0 14.916-6.475 14.916-14.398 0-7.922-6.648-14.397-14.916-14.397-8.267 0-14.915 6.475-14.915 14.397 0 7.923 6.648 14.398 14.915 14.398zm0 .945c8.76 0 15.861-6.869 15.861-15.343 0-8.473-7.101-15.342-15.861-15.342-8.758 0-15.86 6.869-15.86 15.342 0 8.474 7.102 15.343 15.86 15.343zm4.342-15.343c0 2.274-1.914 4.17-4.342 4.17-2.427 0-4.341-1.896-4.341-4.17 0-2.273 1.914-4.169 4.341-4.169 2.428 0 4.342 1.896 4.342 4.169zm.945 0c0 2.825-2.366 5.114-5.287 5.114-2.919 0-5.286-2.289-5.286-5.114 0-2.824 2.367-5.114 5.286-5.114 2.921 0 5.287 2.29 5.287 5.114zm-5.287 45.083c25.786 0 46.635-20.213 46.635-45.083 0-24.869-20.849-45.083-46.635-45.083-25.785 0-46.634 20.214-46.634 45.083 0 24.87 20.849 45.083 46.634 45.083zm0 .945c26.278 0 47.58-20.607 47.58-46.028 0-25.42-21.302-46.028-47.58-46.028-26.277 0-47.579 20.608-47.579 46.028 0 25.421 21.302 46.028 47.579 46.028zm36.062-46.028c0 19.221-16.116 34.855-36.062 34.855-19.945 0-36.061-15.634-36.061-34.855 0-19.22 16.116-34.854 36.061-34.854 19.946 0 36.062 15.634 36.062 34.854zm.945 0c0 19.772-16.568 35.8-37.007 35.8-20.437 0-37.006-16.028-37.006-35.8 0-19.771 16.569-35.799 37.006-35.799 20.439 0 37.007 16.028 37.007 35.799z" fill="url(#paint1_linear)"/></g><defs><linearGradient id="paint0_linear" x1="400" y1="0" x2="400" y2="414.488" gradientUnits="userSpaceOnUse"><stop stop-color="#EFF2F4" stop-opacity="0"/><stop offset="1" stop-color="#EFF2F4"/></linearGradient><linearGradient id="paint1_linear" x1="580.173" y1="-112.78" x2="878.126" y2="281.551" gradientUnits="userSpaceOnUse"><stop offset=".423" stop-color="#515154"/><stop offset="1" stop-color="#fff" stop-opacity=".57"/></linearGradient></defs></svg>