<svg width="1680" height="770" fill="none" xmlns="http://www.w3.org/2000/svg"><mask id="a" maskUnits="userSpaceOnUse" x="0" y="0" width="1680" height="770"><path fill="#63687D" d="M0 0h1680v770H0z"/></mask><g mask="url(#a)"><path fill-rule="evenodd" clip-rule="evenodd" d="M291.5 1038.5c291.606 0 528-236.394 528-528s-236.394-528-528-528-528 236.394-528 528 236.394 528 528 528zm0 .5C583.383 1039 820 802.383 820 510.5 820 218.618 583.383-18 291.5-18-.382-18-237 218.618-237 510.5-237 802.383-.382 1039 291.5 1039zm0-10.97c285.827 0 517.535-231.703 517.535-517.53 0-285.826-231.708-517.535-517.535-517.535-285.826 0-517.534 231.709-517.534 517.535 0 285.827 231.708 517.53 517.534 517.53zm0 .5c286.103 0 518.035-231.927 518.035-518.03 0-286.103-231.932-518.035-518.035-518.035-286.102 0-518.034 231.932-518.034 518.035 0 286.103 231.932 518.03 518.034 518.03zM798.569 510.5c0 280.047-227.023 507.07-507.069 507.07-280.047 0-507.07-227.023-507.07-507.07S11.453 3.43 291.5 3.43c280.046 0 507.069 227.023 507.069 507.07zm.5 0c0 280.323-227.247 507.57-507.569 507.57-280.323 0-507.57-227.247-507.57-507.57S11.177 2.93 291.5 2.93c280.322 0 507.569 227.247 507.569 507.57zM291.5 1007.1c274.267 0 496.604-222.333 496.604-496.6 0-274.267-222.337-496.604-496.604-496.604S-205.104 236.233-205.104 510.5 17.233 1007.1 291.5 1007.1zm0 .5c274.543 0 497.104-222.557 497.104-497.1S566.043 13.396 291.5 13.396-205.604 235.957-205.604 510.5 16.957 1007.6 291.5 1007.6zm486.138-497.1c0 268.487-217.651 486.139-486.138 486.139-268.487 0-486.139-217.652-486.139-486.139S23.013 24.361 291.5 24.361 777.638 242.013 777.638 510.5zm.5 0c0 268.763-217.875 486.639-486.638 486.639S-195.139 779.263-195.139 510.5c0-268.763 217.876-486.639 486.639-486.639 268.763 0 486.638 217.876 486.638 486.639zM291.5 986.173c262.707 0 475.673-212.966 475.673-475.673S554.207 34.827 291.5 34.827-184.173 247.793-184.173 510.5 28.793 986.173 291.5 986.173zm0 .5c262.983 0 476.173-213.19 476.173-476.173S554.483 34.327 291.5 34.327-184.673 247.517-184.673 510.5 28.517 986.673 291.5 986.673zM756.708 510.5c0 256.927-208.281 465.208-465.208 465.208S-173.708 767.427-173.708 510.5 34.572 45.292 291.5 45.292c256.927 0 465.208 208.281 465.208 465.208zm.5 0c0 257.203-208.505 465.708-465.708 465.708-257.204 0-465.708-208.505-465.708-465.708 0-257.203 208.504-465.708 465.708-465.708 257.203 0 465.708 208.505 465.708 465.708zM291.5 965.242c251.147 0 454.742-203.595 454.742-454.742 0-251.147-203.595-454.743-454.742-454.743-251.147 0-454.743 203.596-454.743 454.743S40.353 965.242 291.5 965.242zm0 .5c251.423 0 455.242-203.819 455.242-455.242 0-251.424-203.819-455.243-455.242-455.243-251.423 0-455.243 203.819-455.243 455.243 0 251.423 203.82 455.242 455.243 455.242zM735.777 510.5c0 245.368-198.909 444.277-444.277 444.277-245.367 0-444.277-198.909-444.277-444.277S46.133 66.223 291.5 66.223c245.368 0 444.277 198.909 444.277 444.277zm.5 0c0 245.644-199.133 444.777-444.777 444.777-245.644 0-444.777-199.133-444.777-444.777 0-245.644 199.133-444.777 444.777-444.777 245.644 0 444.777 199.133 444.777 444.777zM291.5 944.312c239.588 0 433.812-194.224 433.812-433.812 0-239.588-194.224-433.812-433.812-433.812-239.588 0-433.812 194.224-433.812 433.812 0 239.588 194.224 433.812 433.812 433.812zm0 .5c239.864 0 434.312-194.448 434.312-434.312S531.364 76.188 291.5 76.188-142.812 270.636-142.812 510.5 51.636 944.812 291.5 944.812zM714.846 510.5c0 233.808-189.538 423.347-423.346 423.347S-131.847 744.308-131.847 510.5 57.693 87.154 291.5 87.154c233.808 0 423.346 189.538 423.346 423.346zm.5 0c0 234.084-189.762 423.847-423.846 423.847S-132.347 744.584-132.347 510.5c0-234.084 189.763-423.846 423.847-423.846 234.084 0 423.846 189.762 423.846 423.846zM291.5 923.381c228.028 0 412.881-184.853 412.881-412.881 0-228.028-184.853-412.881-412.881-412.881-228.028 0-412.881 184.853-412.881 412.881 0 228.028 184.853 412.881 412.881 412.881zm0 .5c228.304 0 413.381-185.077 413.381-413.381 0-228.304-185.077-413.381-413.381-413.381-228.304 0-413.381 185.077-413.381 413.381 0 228.304 185.077 413.381 413.381 413.381zM693.916 510.5c0 222.248-180.168 402.416-402.416 402.416S-110.916 732.748-110.916 510.5 69.252 108.084 291.5 108.084 693.916 288.252 693.916 510.5zm.5 0c0 222.524-180.392 402.916-402.916 402.916S-111.416 733.024-111.416 510.5 68.976 107.584 291.5 107.584 694.416 287.976 694.416 510.5zM291.5 902.45c216.468 0 391.95-175.482 391.95-391.95S507.968 118.549 291.5 118.549-100.451 294.032-100.451 510.5c0 216.468 175.483 391.95 391.951 391.95zm0 .5c216.744 0 392.45-175.706 392.45-392.45S508.244 118.049 291.5 118.049c-216.745 0-392.451 175.707-392.451 392.451 0 216.744 175.706 392.45 392.451 392.45zM672.985 510.5c0 210.688-170.797 381.485-381.485 381.485-210.689 0-381.485-170.797-381.485-381.485 0-210.688 170.796-381.485 381.485-381.485 210.688 0 381.485 170.797 381.485 381.485zm.5 0c0 210.965-171.021 381.985-381.985 381.985-210.965 0-381.985-171.02-381.985-381.985S80.535 128.515 291.5 128.515c210.964 0 381.985 171.02 381.985 381.985zM291.5 881.52c204.909 0 371.02-166.111 371.02-371.02S496.409 139.48 291.5 139.48-79.52 305.591-79.52 510.5 86.591 881.52 291.5 881.52zm0 .5c205.185 0 371.52-166.335 371.52-371.52 0-205.185-166.335-371.52-371.52-371.52-205.185 0-371.52 166.335-371.52 371.52 0 205.185 166.335 371.52 371.52 371.52zM652.055 510.5c0 199.129-161.426 360.554-360.555 360.554-199.128 0-360.554-161.425-360.554-360.554 0-199.129 161.426-360.555 360.554-360.555 199.129 0 360.555 161.426 360.555 360.555zm.5 0c0 199.405-161.65 361.054-361.055 361.054-199.404 0-361.054-161.649-361.054-361.054 0-199.405 161.65-361.055 361.054-361.055 199.405 0 361.055 161.65 361.055 361.055zM291.5 860.589c193.349 0 350.089-156.74 350.089-350.089S484.849 160.411 291.5 160.411-58.589 317.151-58.589 510.5 98.151 860.589 291.5 860.589zm0 .5c193.625 0 350.589-156.964 350.589-350.589S485.125 159.911 291.5 159.911-59.089 316.875-59.089 510.5 97.875 861.089 291.5 861.089zM631.124 510.5c0 187.569-152.055 339.624-339.624 339.624-187.569 0-339.624-152.055-339.624-339.624 0-187.569 152.055-339.624 339.624-339.624 187.569 0 339.624 152.055 339.624 339.624zm.5 0c0 187.845-152.279 340.124-340.124 340.124-187.845 0-340.124-152.279-340.124-340.124 0-187.845 152.279-340.124 340.124-340.124 187.845 0 340.124 152.279 340.124 340.124zM291.5 839.658c181.789 0 329.158-147.369 329.158-329.158 0-181.789-147.369-329.158-329.158-329.158-181.789 0-329.158 147.369-329.158 329.158 0 181.789 147.369 329.158 329.158 329.158zm0 .5c182.065 0 329.658-147.593 329.658-329.658 0-182.065-147.593-329.658-329.658-329.658-182.065 0-329.658 147.593-329.658 329.658 0 182.065 147.593 329.658 329.658 329.658zM610.193 510.5c0 176.009-142.684 318.693-318.693 318.693S-27.193 686.509-27.193 510.5 115.49 191.807 291.5 191.807 610.193 334.491 610.193 510.5zm.5 0c0 176.286-142.908 319.193-319.193 319.193-176.286 0-319.193-142.907-319.193-319.193 0-176.285 142.907-319.193 319.193-319.193 176.285 0 319.193 142.908 319.193 319.193zM291.5 818.728c170.229 0 308.228-137.999 308.228-308.228 0-170.23-137.999-308.228-308.228-308.228S-16.728 340.27-16.728 510.5c0 170.229 137.999 308.228 308.228 308.228zm0 .5c170.506 0 308.728-138.223 308.728-308.728 0-170.506-138.222-308.728-308.728-308.728S-17.228 339.994-17.228 510.5c0 170.505 138.222 308.728 308.728 308.728zM589.262 510.5c0 164.45-133.313 297.762-297.762 297.762C127.05 808.262-6.263 674.95-6.263 510.5S127.05 212.738 291.5 212.738c164.449 0 297.762 133.312 297.762 297.762zm.5 0c0 164.726-133.537 298.262-298.262 298.262-164.726 0-298.263-133.536-298.263-298.262S126.774 212.238 291.5 212.238c164.725 0 298.262 133.536 298.262 298.262zM291.5 797.797c158.67 0 287.297-128.627 287.297-287.297 0-158.67-128.627-287.297-287.297-287.297C132.83 223.203 4.203 351.83 4.203 510.5c0 158.67 128.627 287.297 287.297 287.297zm0 .5c158.946 0 287.797-128.851 287.797-287.797 0-158.946-128.851-287.797-287.797-287.797-158.946 0-287.797 128.851-287.797 287.797 0 158.946 128.851 287.797 287.797 287.797zM568.332 510.5c0 152.89-123.942 276.832-276.832 276.832S14.668 663.39 14.668 510.5 138.61 233.668 291.5 233.668 568.332 357.61 568.332 510.5zm.5 0c0 153.166-124.166 277.332-277.332 277.332S14.168 663.666 14.168 510.5 138.334 233.168 291.5 233.168 568.832 357.334 568.832 510.5zM291.5 776.866c147.11 0 266.366-119.256 266.366-266.366 0-147.11-119.256-266.366-266.366-266.366-147.11 0-266.366 119.256-266.366 266.366 0 147.11 119.256 266.366 266.366 266.366zm0 .5c147.386 0 266.866-119.48 266.866-266.866 0-147.386-119.48-266.866-266.866-266.866-147.386 0-266.866 119.48-266.866 266.866 0 147.386 119.48 266.866 266.866 266.866zM547.401 510.5c0 141.33-114.57 255.901-255.901 255.901-141.33 0-255.9-114.571-255.9-255.901s114.57-255.901 255.9-255.901c141.331 0 255.901 114.571 255.901 255.901zm.5 0c0 141.606-114.794 256.401-256.401 256.401-141.606 0-256.4-114.795-256.4-256.401s114.794-256.401 256.4-256.401c141.607 0 256.401 114.795 256.401 256.401zM291.5 755.936c135.551 0 245.436-109.886 245.436-245.436S427.051 265.064 291.5 265.064c-135.55 0-245.435 109.886-245.435 245.436S155.95 755.936 291.5 755.936zm0 .5c135.827 0 245.936-110.109 245.936-245.936S427.327 264.564 291.5 264.564c-135.826 0-245.935 110.109-245.935 245.936S155.673 756.436 291.5 756.436zM526.471 510.5c0 129.771-105.2 234.97-234.971 234.97-129.77 0-234.97-105.199-234.97-234.97 0-129.77 105.2-234.97 234.97-234.97 129.771 0 234.971 105.2 234.971 234.97zm.5 0c0 130.047-105.424 235.47-235.471 235.47-130.046 0-235.47-105.423-235.47-235.47S161.454 275.03 291.5 275.03c130.047 0 235.471 105.423 235.471 235.47zM291.5 735.005c123.991 0 224.505-100.514 224.505-224.505S415.491 285.995 291.5 285.995 66.995 386.509 66.995 510.5 167.509 735.005 291.5 735.005zm0 .5c124.267 0 225.005-100.738 225.005-225.005S415.767 285.495 291.5 285.495 66.495 386.233 66.495 510.5 167.233 735.505 291.5 735.505zM505.54 510.5c0 118.211-95.829 214.04-214.04 214.04S77.46 628.711 77.46 510.5 173.29 296.46 291.5 296.46s214.04 95.829 214.04 214.04zm.5 0c0 118.487-96.053 214.54-214.54 214.54S76.96 628.987 76.96 510.5s96.053-214.54 214.54-214.54 214.54 96.053 214.54 214.54zM291.5 714.074c112.431 0 203.574-91.143 203.574-203.574 0-112.431-91.143-203.574-203.574-203.574-112.431 0-203.574 91.143-203.574 203.574 0 112.431 91.143 203.574 203.574 203.574zm0 .5c112.707 0 204.074-91.367 204.074-204.074 0-112.707-91.367-204.074-204.074-204.074-112.707 0-204.074 91.367-204.074 204.074 0 112.707 91.367 204.074 204.074 204.074zM484.609 510.5c0 106.651-86.458 193.109-193.109 193.109-106.651 0-193.11-86.458-193.11-193.109 0-106.651 86.459-193.109 193.11-193.109 106.651 0 193.109 86.458 193.109 193.109zm.5 0c0 106.927-86.682 193.609-193.609 193.609S97.89 617.427 97.89 510.5s86.683-193.609 193.61-193.609S485.109 403.573 485.109 510.5zM291.5 693.144c100.871 0 182.644-81.773 182.644-182.644 0-100.871-81.773-182.644-182.644-182.644-100.871 0-182.644 81.773-182.644 182.644 0 100.871 81.773 182.644 182.644 182.644zm0 .5c101.147 0 183.144-81.997 183.144-183.144S392.647 327.356 291.5 327.356 108.356 409.353 108.356 510.5 190.353 693.644 291.5 693.644zM463.678 510.5c0 95.091-77.087 172.178-172.178 172.178-95.092 0-172.178-77.087-172.178-172.178S196.408 338.322 291.5 338.322c95.091 0 172.178 77.087 172.178 172.178zm.5 0c0 95.367-77.311 172.678-172.678 172.678-95.368 0-172.678-77.311-172.678-172.678 0-95.368 77.31-172.678 172.678-172.678 95.367 0 172.678 77.31 172.678 172.678zM291.5 672.213c89.312 0 161.713-72.401 161.713-161.713S380.812 348.787 291.5 348.787 129.787 421.188 129.787 510.5 202.188 672.213 291.5 672.213zm0 .5c89.588 0 162.213-72.625 162.213-162.213S381.088 348.287 291.5 348.287 129.287 420.912 129.287 510.5 201.912 672.713 291.5 672.713zM442.747 510.5c0 83.532-67.715 151.247-151.247 151.247-83.532 0-151.248-67.715-151.248-151.247 0-83.532 67.716-151.248 151.248-151.248S442.747 426.968 442.747 510.5zm.5 0c0 83.808-67.939 151.747-151.747 151.747-83.808 0-151.748-67.939-151.748-151.747 0-83.808 67.94-151.748 151.748-151.748 83.808 0 151.747 67.94 151.747 151.748zM291.5 651.282c77.752 0 140.782-63.03 140.782-140.782 0-77.752-63.03-140.782-140.782-140.782-77.752 0-140.782 63.03-140.782 140.782 0 77.752 63.03 140.782 140.782 140.782zm0 .5c78.028 0 141.282-63.254 141.282-141.282 0-78.028-63.254-141.282-141.282-141.282-78.028 0-141.282 63.254-141.282 141.282 0 78.028 63.254 141.282 141.282 141.282zM421.817 510.5c0 71.972-58.345 130.317-130.317 130.317-71.972 0-130.317-58.345-130.317-130.317 0-71.972 58.345-130.317 130.317-130.317 71.972 0 130.317 58.345 130.317 130.317zm.5 0c0 72.248-58.569 130.817-130.817 130.817S160.683 582.748 160.683 510.5 219.252 379.683 291.5 379.683 422.317 438.252 422.317 510.5zM291.5 630.352c66.192 0 119.851-53.66 119.851-119.852 0-66.192-53.659-119.851-119.851-119.851-66.192 0-119.852 53.659-119.852 119.851 0 66.192 53.66 119.852 119.852 119.852zm0 .5c66.468 0 120.351-53.884 120.351-120.352S357.968 390.149 291.5 390.149c-66.468 0-120.352 53.883-120.352 120.351 0 66.468 53.884 120.352 120.352 120.352zM400.886 510.5c0 60.412-48.974 109.386-109.386 109.386S182.114 570.912 182.114 510.5 231.088 401.114 291.5 401.114 400.886 450.088 400.886 510.5zm.5 0c0 60.688-49.198 109.886-109.886 109.886-60.688 0-109.886-49.198-109.886-109.886 0-60.689 49.198-109.886 109.886-109.886 60.688 0 109.886 49.197 109.886 109.886zM291.5 609.421c54.632 0 98.921-44.288 98.921-98.921 0-54.632-44.289-98.921-98.921-98.921-54.633 0-98.921 44.289-98.921 98.921 0 54.633 44.288 98.921 98.921 98.921zm0 .5c54.909 0 99.421-44.512 99.421-99.421 0-54.909-44.512-99.421-99.421-99.421-54.909 0-99.421 44.512-99.421 99.421 0 54.909 44.512 99.421 99.421 99.421zm88.455-99.421c0 48.853-39.603 88.456-88.455 88.456-48.853 0-88.456-39.603-88.456-88.456s39.603-88.455 88.456-88.455c48.852 0 88.455 39.602 88.455 88.455zm.5 0c0 49.129-39.827 88.956-88.955 88.956-49.129 0-88.956-39.827-88.956-88.956 0-49.129 39.827-88.955 88.956-88.955 49.128 0 88.955 39.826 88.955 88.955zM291.5 588.49c43.073 0 77.99-34.917 77.99-77.99 0-43.073-34.917-77.99-77.99-77.99-43.073 0-77.99 34.917-77.99 77.99 0 43.073 34.917 77.99 77.99 77.99zm0 .5c43.349 0 78.49-35.141 78.49-78.49s-35.141-78.49-78.49-78.49-78.49 35.141-78.49 78.49 35.141 78.49 78.49 78.49zm67.525-78.49c0 37.293-30.232 67.525-67.525 67.525-37.293 0-67.525-30.232-67.525-67.525 0-37.293 30.232-67.525 67.525-67.525 37.293 0 67.525 30.232 67.525 67.525zm.5 0c0 37.569-30.456 68.025-68.025 68.025s-68.025-30.456-68.025-68.025 30.456-68.025 68.025-68.025 68.025 30.456 68.025 68.025zM291.5 567.559c31.513 0 57.059-25.546 57.059-57.059 0-31.513-25.546-57.06-57.059-57.06-31.513 0-57.06 25.547-57.06 57.06s25.547 57.059 57.06 57.059zm0 .5c31.789 0 57.559-25.77 57.559-57.559 0-31.789-25.77-57.56-57.559-57.56-31.79 0-57.56 25.771-57.56 57.56s25.77 57.559 57.56 57.559zm25.663-57.559c0 14.173-11.49 25.663-25.663 25.663-14.174 0-25.664-11.49-25.664-25.663 0-14.174 11.49-25.663 25.664-25.663 14.173 0 25.663 11.489 25.663 25.663zm.5 0c0 14.45-11.714 26.163-26.163 26.163-14.45 0-26.164-11.713-26.164-26.163 0-14.45 11.714-26.163 26.164-26.163 14.449 0 26.163 11.713 26.163 26.163zM291.5 525.698c8.393 0 15.198-6.804 15.198-15.198s-6.805-15.198-15.198-15.198c-8.394 0-15.198 6.804-15.198 15.198s6.804 15.198 15.198 15.198zm0 .5c8.67 0 15.698-7.028 15.698-15.698 0-8.67-7.028-15.698-15.698-15.698-8.67 0-15.698 7.028-15.698 15.698 0 8.67 7.028 15.698 15.698 15.698zm4.733-15.698a4.733 4.733 0 11-9.466 0 4.733 4.733 0 019.466 0zm.5 0a5.233 5.233 0 11-10.466 0 5.233 5.233 0 0110.466 0zm-5.233 46.594c25.733 0 46.594-20.861 46.594-46.594s-20.861-46.594-46.594-46.594-46.594 20.861-46.594 46.594 20.861 46.594 46.594 46.594zm0 .5c26.009 0 47.094-21.085 47.094-47.094s-21.085-47.094-47.094-47.094-47.094 21.085-47.094 47.094 21.085 47.094 47.094 47.094zm36.129-47.094c0 19.953-16.176 36.129-36.129 36.129s-36.129-16.176-36.129-36.129 16.176-36.129 36.129-36.129 36.129 16.176 36.129 36.129zm.5 0c0 20.23-16.399 36.629-36.629 36.629-20.229 0-36.629-16.399-36.629-36.629 0-20.229 16.4-36.629 36.629-36.629 20.23 0 36.629 16.4 36.629 36.629z" fill="url(#paint0_linear)"/></g><defs><linearGradient id="paint0_linear" x1="-31" y1="436" x2="945" y2="413" gradientUnits="userSpaceOnUse"><stop stop-color="#C6CAD7" stop-opacity=".46"/><stop offset="1" stop-color="#C6CAD7" stop-opacity="0"/></linearGradient></defs></svg>