<svg width="192" height="192" viewBox="0 0 192 192" fill="none" xmlns="http://www.w3.org/2000/svg">
<path d="M0 70.4107C0 45.505 0 33.0521 4.92379 23.5734C9.07301 15.5858 15.5858 9.07301 23.5734 4.92379C33.0521 0 45.505 0 70.4107 0H121.589C146.495 0 158.948 0 168.427 4.92379C176.414 9.07301 182.927 15.5858 187.076 23.5734C192 33.0521 192 45.505 192 70.4107V121.589C192 146.495 192 158.948 187.076 168.427C182.927 176.414 176.414 182.927 168.427 187.076C158.948 192 146.495 192 121.589 192H70.4107C45.505 192 33.0521 192 23.5734 187.076C15.5858 182.927 9.07301 176.414 4.92379 168.427C0 158.948 0 146.495 0 121.589V70.4107Z" fill="#0069FF"/>
<path fill-rule="evenodd" clip-rule="evenodd" d="M34.6568 78.3621C31.0178 77.9792 27.3493 78.7323 24.1557 80.5184C20.962 82.3045 18.4 85.0357 16.8218 88.3371C15.2435 91.6384 14.7265 95.3477 15.3418 98.9547C15.9571 102.562 17.6745 105.89 20.2579 108.481C22.8413 111.073 26.164 112.801 29.7691 113.427C33.3743 114.053 37.085 113.548 40.3912 111.98C43.6974 110.412 46.4367 107.858 48.2328 104.67C50.0289 101.482 50.7934 97.816 50.4213 94.1755C50.0119 90.1291 48.2207 86.3477 45.3493 83.4672C42.478 80.5872 38.7019 78.784 34.6568 78.3621ZM34.0828 105.35C32.1257 105.612 30.1354 105.255 28.3918 104.328C26.6482 103.401 25.2388 101.951 24.3619 100.182C23.4849 98.4123 23.1844 96.4128 23.5026 94.464C23.8208 92.5147 24.7417 90.7147 26.1358 89.3163C27.53 87.9173 29.3273 86.9909 31.2752 86.6667C33.2231 86.3424 35.2237 86.6368 36.9957 87.5083C38.7678 88.3797 40.2222 89.7845 41.1547 91.5248C42.0871 93.2656 42.4507 95.2549 42.1942 97.2128C41.9251 99.2725 40.9846 101.186 39.5182 102.657C38.0518 104.127 36.1415 105.074 34.0828 105.35ZM59.8944 79.0629C59.2805 79.0645 58.6741 79.2027 58.12 79.4683C57.5659 79.7333 57.0779 80.1189 56.6917 80.5963C56.3051 81.0741 56.0304 81.632 55.8864 82.2288C55.7429 82.8261 55.7339 83.448 55.8608 84.0491C56.2496 85.9963 58.0683 87.3269 60.0496 87.3269H71.5477L53.6544 111.007C53.5221 111.181 53.4411 111.39 53.4203 111.608C53.3995 111.826 53.44 112.046 53.5376 112.243C53.6347 112.439 53.7845 112.605 53.9707 112.721C54.1568 112.837 54.3712 112.899 54.5909 112.9H82.6587C84.6389 112.9 86.4587 111.57 86.8475 109.622C86.9744 109.021 86.9659 108.399 86.8224 107.802C86.6789 107.205 86.4037 106.647 86.0176 106.17C85.6315 105.692 85.1435 105.306 84.5899 105.041C84.0357 104.775 83.4299 104.637 82.8155 104.635H68.8059L86.6859 80.9733C86.8197 80.7968 86.9013 80.5867 86.9221 80.3664C86.9429 80.1456 86.9019 79.9243 86.8037 79.7259C86.7056 79.5275 86.5536 79.36 86.3659 79.2432C86.1781 79.1259 85.9611 79.0635 85.7397 79.0629H59.8944ZM172.053 79.1584C171.123 79.3792 170.298 79.9109 169.711 80.6651C169.125 81.4192 168.814 82.3504 168.829 83.3056V97.0645L146.534 79.3227C146.359 79.184 146.149 79.0976 145.927 79.0731C145.705 79.0485 145.481 79.0875 145.279 79.1845C145.079 79.2821 144.909 79.4341 144.791 79.6235C144.673 79.8128 144.611 80.0315 144.611 80.2549V108.664C144.596 109.619 144.907 110.551 145.493 111.305C146.079 112.059 146.906 112.59 147.835 112.812C148.438 112.945 149.064 112.94 149.666 112.799C150.267 112.658 150.829 112.383 151.31 111.996C151.791 111.608 152.18 111.117 152.446 110.56C152.713 110.003 152.85 109.393 152.85 108.774V94.8965L175.145 112.638C175.319 112.777 175.53 112.864 175.751 112.889C175.973 112.913 176.198 112.874 176.398 112.777C176.599 112.679 176.769 112.527 176.887 112.338C177.005 112.149 177.067 111.93 177.067 111.707V83.1941C177.068 82.576 176.93 81.9664 176.663 81.4091C176.397 80.8517 176.009 80.3616 175.527 79.9739C175.046 79.5867 174.484 79.3125 173.883 79.1712C173.281 79.0299 172.656 79.0256 172.053 79.1584ZM114.003 86.536C123.433 86.536 130.479 91.5195 130.479 95.9771C130.479 100.435 123.433 105.418 114.003 105.418C104.573 105.418 97.5264 100.435 97.5264 95.9771C97.5264 91.5195 104.573 86.536 114.003 86.536ZM114.003 78.2725C100.353 78.2725 89.288 86.1989 89.288 95.9771C89.288 105.755 100.353 113.682 114.003 113.682C127.652 113.682 138.717 105.755 138.717 95.9771C138.717 86.1989 127.652 78.2725 114.003 78.2725Z" fill="white"/>
</svg>
