<svg width="15" height="15" viewBox="0 0 15 15" fill="none" xmlns="http://www.w3.org/2000/svg">
<path d="M15 11.8359C15 12.0264 14.9736 12.2725 14.8916 12.6006C14.8096 12.9287 14.7539 13.1455 14.6748 13.3359C14.5371 13.6904 14.1035 14.0713 13.3652 14.4551C12.7119 14.8096 12.0293 15 11.373 15C11.1826 15 10.9922 15 10.8018 14.9736C10.6113 14.9473 10.4209 14.8916 10.2012 14.8359C9.98145 14.7803 9.79102 14.7275 9.68262 14.6719C9.57422 14.6162 9.38379 14.5635 9.08203 14.4551C8.80957 14.3467 8.61914 14.291 8.56348 14.2646C7.85449 14.0186 7.25391 13.7197 6.70898 13.3916C5.80957 12.8203 4.85449 12.0557 3.89941 11.1006C2.94434 10.1455 2.15332 9.19043 1.6084 8.29102C1.25391 7.74609 0.981445 7.11914 0.735352 6.43652C0.708984 6.38086 0.65332 6.19043 0.544922 5.91797C0.436523 5.64551 0.354492 5.42578 0.328125 5.31738C0.301758 5.20898 0.246094 5.04492 0.164062 4.79883C0.0820312 4.55273 0.0556641 4.3623 0.0263672 4.19824C0 4.03711 0 3.84668 0 3.62695C0 2.97363 0.19043 2.31738 0.544922 1.63477C0.955078 0.925781 1.30957 0.489258 1.66406 0.325195C1.85449 0.243164 2.07422 0.161133 2.39941 0.108398C2.72461 0.0556641 2.97363 0 3.16406 0C3.27246 0 3.32813 0 3.38086 0.0263672C3.51855 0.0820312 3.70898 0.325195 3.95215 0.84375C4.03418 0.981445 4.14258 1.17187 4.28027 1.41504C4.41797 1.66113 4.55273 1.87793 4.66113 2.09766C4.76953 2.31445 4.87793 2.47852 4.98926 2.66895C5.01563 2.69531 5.07129 2.77734 5.17969 2.94141C5.28809 3.10547 5.37012 3.21387 5.39648 3.32227C5.42285 3.43066 5.47852 3.5127 5.47852 3.62109C5.47852 3.75879 5.37012 3.94922 5.17969 4.16602C4.98926 4.38281 4.76953 4.57617 4.52637 4.7373C4.28027 4.90137 4.06348 5.0918 3.87305 5.30859C3.68262 5.52539 3.57422 5.66309 3.57422 5.80078C3.57422 5.85645 3.60059 5.93848 3.62988 6.04687C3.65625 6.15527 3.68555 6.21094 3.71191 6.26367C3.73828 6.31934 3.79395 6.40137 3.84961 6.50977C3.90527 6.61816 3.95801 6.7002 3.95801 6.7002C4.50293 7.68164 5.10352 8.49902 5.8125 9.20801C6.52148 9.91699 7.33887 10.5176 8.32031 11.0625C8.34668 11.0625 8.40234 11.1182 8.51074 11.1709C8.61914 11.2266 8.72754 11.3086 8.75684 11.3086C8.7832 11.3086 8.86523 11.3643 8.97363 11.3906C9.08203 11.417 9.1377 11.4463 9.21973 11.4463C9.35742 11.4463 9.51855 11.3379 9.71191 11.1475C9.90234 10.957 10.0928 10.7373 10.2832 10.4941C10.4736 10.248 10.6641 10.0312 10.8545 9.84082C11.0449 9.65039 11.2354 9.54199 11.3994 9.54199C11.5078 9.54199 11.5898 9.56836 11.6982 9.62402C11.8066 9.67969 11.915 9.76172 12.0791 9.84082C12.2432 9.91992 12.3252 10.0049 12.3516 10.0312C12.542 10.1396 12.7061 10.248 12.9229 10.3594C13.1396 10.4678 13.3594 10.6055 13.6055 10.7402C13.8516 10.8779 14.042 10.9863 14.1768 11.0684C14.6689 11.3145 14.9414 11.5049 14.9941 11.6396C15 11.6719 15 11.7539 15 11.8359Z" fill="#1D1D1D"/>
</svg>
