<svg width="25" height="25" viewBox="0 0 25 25" fill="none" xmlns="http://www.w3.org/2000/svg">
<g clip-path="url(#clip0)">
<path d="M20.8521 21.7392H3.87751C1.66271 21.7392 -0.138916 19.9376 -0.138916 17.7228V7.00666C-0.138916 4.79214 1.66299 2.99023 3.87751 2.99023H20.8521C23.0666 2.99023 24.8682 4.79214 24.8682 7.00666V17.7228C24.8682 19.9376 23.0666 21.7392 20.8521 21.7392ZM3.87751 4.16474C2.31039 4.16474 1.03559 5.43955 1.03559 7.00666V17.7228C1.03559 19.2899 2.31039 20.565 3.87751 20.565H20.8521C22.4192 20.565 23.694 19.2899 23.694 17.7228V7.00666C23.694 5.43955 22.4192 4.16474 20.8521 4.16474H3.87751V4.16474Z" fill="white"/>
<path d="M2.92981 7.06219C5.93178 9.98747 8.93376 12.9125 11.9357 15.8377C12.4953 16.3829 13.3542 15.526 12.7938 14.9797C9.79178 12.0547 6.78981 9.12945 3.78783 6.20445C3.22823 5.65902 2.36937 6.51621 2.92981 7.06219Z" fill="white"/>
<path d="M12.7936 15.8382C15.7956 12.9132 18.7976 9.98793 21.7995 7.06293C22.3597 6.51694 21.5014 5.65947 20.9415 6.2049C17.9395 9.12991 14.9376 12.0552 11.9356 14.9802C11.3754 15.5262 12.2337 16.3836 12.7936 15.8382Z" fill="white"/>
<path d="M21.7665 17.9086C19.769 16.0142 17.7712 14.12 15.7737 12.2256C15.2071 11.6885 14.3477 12.5448 14.9157 13.0836C16.9132 14.978 18.911 16.8722 20.9085 18.7666C21.475 19.3037 22.3344 18.4471 21.7665 17.9086Z" fill="white"/>
<path d="M3.87492 18.7662C5.87244 16.8718 7.87023 14.9776 9.86775 13.0832C10.4354 12.5447 9.57655 11.6878 9.00972 12.2252C7.01221 14.1196 5.01442 16.0137 3.0169 17.9082C2.44924 18.4467 3.30809 19.3038 3.87492 18.7662Z" fill="white"/>
</g>
<defs>
<clipPath id="clip0">
<rect width="25" height="25" fill="white"/>
</clipPath>
</defs>
</svg>
