<svg width="18" height="18" viewBox="0 0 18 18" fill="none" xmlns="http://www.w3.org/2000/svg">
<path d="M18 14.2031C18 14.4316 17.9684 14.727 17.8699 15.1207C17.7715 15.5145 17.7047 15.7746 17.6098 16.0031C17.4445 16.4285 16.9242 16.8855 16.0383 17.3461C15.2543 17.7715 14.4352 18 13.6477 18C13.4191 18 13.1906 18 12.9621 17.9684C12.7336 17.9367 12.5051 17.8699 12.2414 17.8031C11.9777 17.7363 11.7492 17.673 11.6191 17.6062C11.4891 17.5395 11.2605 17.4762 10.8984 17.3461C10.5715 17.216 10.343 17.1492 10.2762 17.1176C9.42539 16.8223 8.70469 16.4637 8.05078 16.0699C6.97148 15.3844 5.82539 14.4668 4.6793 13.3207C3.5332 12.1746 2.58398 11.0285 1.93008 9.94922C1.50469 9.29531 1.17773 8.54297 0.882422 7.72383C0.850781 7.65703 0.783984 7.42852 0.653906 7.10156C0.523828 6.77461 0.425391 6.51094 0.39375 6.38086C0.362109 6.25078 0.295312 6.05391 0.196875 5.75859C0.0984375 5.46328 0.0667969 5.23477 0.0316406 5.03789C0 4.84453 0 4.61602 0 4.35234C0 3.56836 0.228516 2.78086 0.653906 1.96172C1.14609 1.11094 1.57148 0.587109 1.99687 0.390234C2.22539 0.291797 2.48906 0.193359 2.8793 0.130078C3.26953 0.0667969 3.56836 0 3.79688 0C3.92695 0 3.99375 0 4.05703 0.0316406C4.22227 0.0984375 4.45078 0.390234 4.74258 1.0125C4.84102 1.17773 4.97109 1.40625 5.13633 1.69805C5.30156 1.99336 5.46328 2.25352 5.59336 2.51719C5.72344 2.77734 5.85352 2.97422 5.98711 3.20273C6.01875 3.23437 6.08555 3.33281 6.21563 3.52969C6.3457 3.72656 6.44414 3.85664 6.47578 3.98672C6.50742 4.1168 6.57422 4.21523 6.57422 4.34531C6.57422 4.51055 6.44414 4.73906 6.21563 4.99922C5.98711 5.25937 5.72344 5.49141 5.43164 5.68477C5.13633 5.88164 4.87617 6.11016 4.64766 6.37031C4.41914 6.63047 4.28906 6.7957 4.28906 6.96094C4.28906 7.02773 4.3207 7.12617 4.35586 7.25625C4.3875 7.38633 4.42266 7.45313 4.4543 7.51641C4.48594 7.5832 4.55273 7.68164 4.61953 7.81172C4.68633 7.9418 4.74961 8.04023 4.74961 8.04023C5.40352 9.21797 6.12422 10.1988 6.975 11.0496C7.82578 11.9004 8.80664 12.6211 9.98438 13.275C10.016 13.275 10.0828 13.3418 10.2129 13.4051C10.343 13.4719 10.473 13.5703 10.5082 13.5703C10.5398 13.5703 10.6383 13.6371 10.7684 13.6687C10.8984 13.7004 10.9652 13.7355 11.0637 13.7355C11.2289 13.7355 11.4223 13.6055 11.6543 13.377C11.8828 13.1484 12.1113 12.8848 12.3398 12.593C12.5684 12.2977 12.7969 12.0375 13.0254 11.809C13.2539 11.5805 13.4824 11.4504 13.6793 11.4504C13.8094 11.4504 13.9078 11.482 14.0379 11.5488C14.168 11.6156 14.298 11.7141 14.4949 11.809C14.6918 11.9039 14.7902 12.0059 14.8219 12.0375C15.0504 12.1676 15.2473 12.2977 15.5074 12.4313C15.7676 12.5613 16.0312 12.7266 16.3266 12.8883C16.6219 13.0535 16.8504 13.1836 17.0121 13.282C17.6027 13.5773 17.9297 13.8059 17.993 13.9676C18 14.0062 18 14.1047 18 14.2031Z" fill="white"/>
</svg>
