<svg width="60" height="60" fill="none" xmlns="http://www.w3.org/2000/svg"><path d="M45 40.2c-1.9 0-3.6.75-4.9 1.925L22.275 31.75c.125-.575.225-1.15.225-1.75 0-.6-.1-1.175-.225-1.75L39.9 17.975C41.25 19.225 43.025 20 45 20c4.15 0 7.5-3.35 7.5-7.5S49.15 5 45 5a7.49 7.49 0 00-7.5 7.5c0 .6.1 1.175.225 1.75L20.1 24.525c-1.35-1.25-3.125-2.025-5.1-2.025A7.49 7.49 0 007.5 30c0 4.15 3.35 7.5 7.5 7.5 1.975 0 3.75-.775 5.1-2.025l17.8 10.4a7.053 7.053 0 00-.2 1.625c0 4.025 3.275 7.3 7.3 7.3s7.3-3.275 7.3-7.3-3.275-7.3-7.3-7.3zM45 10c1.375 0 2.5 1.125 2.5 2.5S46.375 15 45 15a2.507 2.507 0 01-2.5-2.5c0-1.375 1.125-2.5 2.5-2.5zM15 32.5a2.507 2.507 0 01-2.5-2.5c0-1.375 1.125-2.5 2.5-2.5s2.5 1.125 2.5 2.5-1.125 2.5-2.5 2.5zm30 17.55a2.507 2.507 0 01-2.5-2.5c0-1.375 1.125-2.5 2.5-2.5s2.5 1.125 2.5 2.5-1.125 2.5-2.5 2.5z" fill="#3462F2"/></svg>