<svg width="60" height="60" fill="none" xmlns="http://www.w3.org/2000/svg"><path d="M47.3 30c.1.825.2 1.65.2 2.5 0 5.2-2 9.925-5.25 13.475-.65-2.025-2.5-3.475-4.75-3.475H35V35c0-1.375-1.125-2.5-2.5-2.5h-15v-5h5c1.375 0 2.5-1.125 2.5-2.5v-5h5c2.75 0 5-2.25 5-5V8.65a24.77 24.77 0 00-7.5-1.15c-13.8 0-25 11.2-25 25s11.2 25 25 25 25-11.2 25-25c0-.85-.05-1.675-.125-2.5H47.3zM25 52.325C15.125 51.1 7.5 42.7 7.5 32.5c0-1.55.2-3.025.525-4.475L20 40v2.5c0 2.75 2.25 5 5 5v4.825zM55 10V8.75c0-3.45-2.8-6.25-6.25-6.25S42.5 5.3 42.5 8.75V10a2.507 2.507 0 00-2.5 2.5v10c0 1.375 1.125 2.5 2.5 2.5H55c1.375 0 2.5-1.125 2.5-2.5v-10c0-1.375-1.125-2.5-2.5-2.5zm-2.5 0H45V8.75A3.745 3.745 0 0148.75 5a3.745 3.745 0 013.75 3.75V10z" fill="#3462F2"/></svg>