<svg width="50" height="50" fill="none" xmlns="http://www.w3.org/2000/svg"><path d="M29.52 28.563l2.917-5.042a.736.736 0 00-.167-.938l-3.083-2.416c.062-.459.104-.938.104-1.417 0-.48-.042-.958-.104-1.438l3.083-2.416a.736.736 0 00.167-.938L29.52 8.917a.737.737 0 00-.896-.313L25 10.063a10.713 10.713 0 00-2.458-1.438l-.542-3.854a.758.758 0 00-.729-.604h-5.833a.756.756 0 00-.73.625l-.541 3.854c-.875.375-1.708.854-2.458 1.437L8.083 8.625a.737.737 0 00-.896.312L4.27 13.98a.736.736 0 00.167.938l3.083 2.416c-.062.459-.104.938-.104 1.417 0 .48.042.958.104 1.438l-3.083 2.416a.736.736 0 00-.167.938l2.917 5.041a.737.737 0 00.896.313l3.625-1.459c.75.584 1.562 1.063 2.458 1.438l.542 3.854a.758.758 0 00.729.604h5.833c.354 0 .667-.27.73-.625l.54-3.854A11.174 11.174 0 0025 27.417l3.624 1.458c.334.125.709 0 .896-.313zm-11.167-5.646a4.179 4.179 0 01-4.166-4.167 4.179 4.179 0 014.166-4.167 4.179 4.179 0 014.167 4.167 4.179 4.179 0 01-4.167 4.167zM45.666 38.896l-2-1.542a6.51 6.51 0 00.083-.916c0-.313-.02-.626-.083-.917l1.98-1.542a.476.476 0 00.103-.604l-1.875-3.23c-.104-.207-.354-.27-.583-.207l-2.313.937c-.479-.375-1-.688-1.583-.917l-.354-2.458a.45.45 0 00-.438-.417h-3.729c-.229 0-.437.167-.458.396l-.354 2.459c-.563.25-1.104.541-1.584.916l-2.312-.937a.479.479 0 00-.583.208l-1.875 3.23c-.105.208-.084.458.104.603L29.79 35.5a6.561 6.561 0 00-.063.917c0 .312.021.625.063.916l-1.98 1.542a.476.476 0 00-.103.604l1.875 3.23c.104.208.354.27.583.208l2.312-.938c.48.375 1 .688 1.584.917l.354 2.458c.042.23.23.396.458.396h3.73c.229 0 .437-.167.458-.396l.354-2.458c.562-.25 1.104-.542 1.562-.917l2.334.938c.208.083.458 0 .583-.209l1.875-3.229c.125-.187.063-.437-.104-.583zm-8.938.333a2.814 2.814 0 01-2.812-2.812 2.8 2.8 0 012.812-2.813 2.8 2.8 0 012.813 2.813 2.814 2.814 0 01-2.813 2.812z" fill="#3462F2"/></svg>