<svg width="50" height="50" fill="none" xmlns="http://www.w3.org/2000/svg"><path d="M40.313 20.917C38.895 13.729 32.582 8.333 25 8.333c-6.02 0-11.25 3.417-13.854 8.417C4.875 17.417 0 22.73 0 29.167c0 6.895 5.604 12.5 12.5 12.5h27.083C45.333 41.667 50 37 50 31.25c0-5.5-4.27-9.958-9.688-10.333zm-.73 16.583H12.5a8.331 8.331 0 01-8.333-8.333c0-4.271 3.187-7.834 7.416-8.271l2.23-.23 1.041-1.979C16.834 14.876 20.708 12.5 25 12.5c5.458 0 10.167 3.875 11.23 9.23l.624 3.124 3.188.23c3.25.208 5.791 2.937 5.791 6.166 0 3.438-2.812 6.25-6.25 6.25zM28.021 20.833h-6.042v6.25h-5.312L25 35.417l8.333-8.334h-5.312v-6.25z" fill="#6F6F6F"/></svg>