<svg width="1131" height="1200" fill="none" xmlns="http://www.w3.org/2000/svg"><path d="M531 1200c331.371 0 600-268.629 600-600S862.371 0 531 0-69 268.629-69 600s268.629 600 600 600z" fill="#314DA6"/><path d="M530.996 1110C812.661 1110 1041 881.661 1041 599.996s-228.339-510-510.004-510-510 228.335-510 510c0 281.665 228.335 510.004 510 510.004z" fill="#fff"/><path d="M981.46 600.458c0 248.528-201.474 450.002-450.002 450.002-248.528 0-450-201.474-450-450.002 0-248.528 201.472-450 450-450s450.002 201.472 450.002 450z" fill="#314DA6"/><path fill-rule="evenodd" clip-rule="evenodd" d="M758.989 617.999a7.194 7.194 0 01-2.614-5.547V378.307c0-5.522 4.477-10 10-10h78.623c5.522 0 10 4.478 10 10v297.7c0 8.455-9.843 13.095-16.365 7.713l-79.644-65.721zm-376.906 214.86c-5.523 0-10-4.477-10-10V378.307c0-5.522 4.477-10 10-10h60.782c2.588 0 5.076 1.004 6.94 2.8l402.132 387.594a10 10 0 013.061 7.2v53.567c0 5.523-4.478 10-10 10h-60.577a10 10 0 01-7.188-3.048L505.466 545.411c-.5-.517-1.056-.977-1.651-1.381-9.707-6.58-16.307-13.161-22.907-19.741-6.283-6.266-15.933-1.862-14.862 6.945.68 5.597 1.259 11.194 1.259 16.791v274.834c0 5.523-4.477 10-10 10h-75.222z" fill="#fff"/><path d="M317.67 378.307c0-5.522-4.477-10-10-10h-88.826c-5.523 0-10 4.478-10 10v444.552c0 5.523 4.477 10 10 10h88.826c5.523 0 10-4.477 10-10V378.307z" fill="#fff"/></svg>