<svg width="500" height="296" fill="none" xmlns="http://www.w3.org/2000/svg"><path d="M493.682 25.092c3.478 0 6.318-1.637 6.318-3.475V3.567c0-1.913-2.682-3.475-6.318-3.475H6.318C2.84.092 0 1.729 0 3.567v18.05c0 1.913 2.682 3.475 6.318 3.475h487.364zM0 157.014c0 1.913 2.682 3.475 6.318 3.475h487.364c3.477 0 6.318-1.638 6.318-3.475v-18.05c0-1.925-2.682-3.475-6.318-3.475H6.318c-3.477 0-6.318 1.638-6.318 3.475v18.05zM0 292.414c0 1.912 2.682 3.474 6.318 3.474h487.364c3.477 0 6.318-1.637 6.318-3.474v-18.051c0-1.913-2.682-3.475-6.318-3.475H6.318c-3.477 0-6.318 1.638-6.318 3.475v18.051z" fill="#000"/></svg>