<svg width="46" height="46" viewBox="0 0 46 46" fill="none" xmlns="http://www.w3.org/2000/svg">
<circle cx="23" cy="23" r="22" fill="white"/>
<path d="M3 23C3 34.027 11.973 43 23 43C34.027 43 43 34.027 43 23C43 11.973 34.027 3 23 3C11.973 3 3 11.973 3 23ZM24.477 14.204L30.756 19.536C31.287 19.986 31.561 20.63 31.561 21.275C31.561 21.796 31.382 22.322 31.018 22.752C30.205 23.712 28.764 23.83 27.803 23.015L25.282 20.873V30.059C25.282 31.319 24.261 32.34 23.001 32.34C21.741 32.34 20.72 31.319 20.72 30.059V20.873L18.199 23.015C17.238 23.83 15.799 23.712 14.982 22.752C14.167 21.792 14.285 20.352 15.246 19.536L21.525 14.204C22.375 13.48 23.625 13.48 24.477 14.204Z" fill="black"/>
</svg>
