<svg id="Capa_1" enable-background="new 0 0 512 512" height="512" viewBox="0 0 512 512" width="512" xmlns="http://www.w3.org/2000/svg"><g><path d="m422.718 449.862c6.341-3.804 9.043-11.737 6.086-18.738-2.376-5.624-8.074-9.124-14.18-9.124h-384.624c-16.569 0-30 13.431-30 30v30c0 16.569 13.431 30 30 30h384.624c6.106 0 11.805-3.5 14.181-9.125 2.957-7.001.254-14.933-6.086-18.738-6.167-3.7-9.703-9.946-9.703-17.138s3.535-13.436 9.702-17.137z"/><path d="m415 0h-305v392h105v-112.946c-31.065-19.038-50-52.449-50-89.284 0-44.339 28.129-84.088 69.994-98.909 4.59-1.626 9.686-.922 13.664 1.891 3.977 2.81 6.342 7.377 6.342 12.248v65h30.001v-65c0-4.871 2.365-9.438 6.343-12.249 3.977-2.812 9.073-3.518 13.663-1.891 41.865 14.822 69.993 54.57 69.993 98.909 0 36.835-18.935 70.247-50 89.285v112.946h105v-377c0-8.284-6.716-15-15-15z"/><path d="m195 189.77c0 28.555 15.972 54.239 41.682 67.03 5.096 2.535 8.318 7.737 8.318 13.43v121.77h50v-121.77c0-5.692 3.222-10.895 8.318-13.43 25.71-12.791 41.682-38.476 41.682-67.031 0-23.926-11.479-45.981-29.999-59.899v55.13c0 8.284-6.716 15-15 15h-60.001c-8.284 0-15-6.716-15-15v-55.131c-18.52 13.918-30 35.975-30 59.901z"/><path d="m80 392v-392h-35c-24.813 0-45 20.187-45 45v355.072c8.833-5.123 19.075-8.072 30-8.072z"/><path d="m498.213 90 9.394-9.394c4.29-4.29 5.573-10.741 3.252-16.347-2.323-5.605-7.792-9.259-13.859-9.259h-37v70h37c6.067 0 11.536-3.654 13.858-9.26 2.321-5.605 1.038-12.057-3.252-16.347z"/></g></svg>