<svg id="Filled" height="512" viewBox="0 0 512 512" width="512" xmlns="http://www.w3.org/2000/svg"><g fill="#2d85cc"><path d="m440 152h48v304h-48z"/><path d="m360 216h48v240h-48z"/><path d="m280 272h48v184h-48z"/><path d="m200 336h48v120h-48z"/><path d="m120 368h48v88h-48z"/><path d="m40 408h48v48h-48z"/></g><circle cx="216" cy="168" fill="#ffd33a" r="80"/><path d="m488 144h-48a8 8 0 0 0 -8 8v304a8 8 0 0 0 8 8h48a8 8 0 0 0 8-8v-304a8 8 0 0 0 -8-8zm-8 304h-32v-288h32z"/><path d="m408 464a8 8 0 0 0 8-8v-240a8 8 0 0 0 -8-8h-48a8 8 0 0 0 -8 8v240a8 8 0 0 0 8 8zm-40-240h32v224h-32z"/><path d="m328 464a8 8 0 0 0 8-8v-184a8 8 0 0 0 -8-8h-48a8 8 0 0 0 -8 8v184a8 8 0 0 0 8 8zm-40-184h32v168h-32z"/><path d="m248 464a8 8 0 0 0 8-8v-120a8 8 0 0 0 -8-8h-48a8 8 0 0 0 -8 8v120a8 8 0 0 0 8 8zm-40-120h32v104h-32z"/><path d="m168 464a8 8 0 0 0 8-8v-88a8 8 0 0 0 -8-8h-48a8 8 0 0 0 -8 8v88a8 8 0 0 0 8 8zm-40-88h32v72h-32z"/><path d="m88 464a8 8 0 0 0 8-8v-48a8 8 0 0 0 -8-8h-48a8 8 0 0 0 -8 8v48a8 8 0 0 0 8 8zm-40-48h32v32h-32z"/><path d="m216 144h16a8 8 0 0 0 0-16h-8v-8a8 8 0 0 0 -16 0v9.376a24 24 0 0 0 8 46.624 8 8 0 0 1 0 16h-16a8 8 0 0 0 0 16h8v8a8 8 0 0 0 16 0v-9.376a24 24 0 0 0 -8-46.624 8 8 0 0 1 0-16z"/><path d="m488 48h-48a8 8 0 0 0 0 16h28.686l-112 112h-45.022c.219-2.639.336-5.306.336-8a96 96 0 1 0 -113.677 94.362l-33.636 33.638h-60.687a8 8 0 0 0 -5.657 2.343l-80 80a8 8 0 0 0 11.314 11.314l77.656-77.657h60.687a8 8 0 0 0 5.657-2.343l45.723-45.723a96.19 96.19 0 0 0 89.583-71.934h51.037a8 8 0 0 0 5.657-2.343l114.343-114.343v28.686a8 8 0 0 0 16 0v-48a8 8 0 0 0 -8-8zm-272 200a80 80 0 1 1 80-80 80.091 80.091 0 0 1 -80 80z"/></svg>