<svg width="512" height="512" viewBox="0 0 512 512" fill="none" xmlns="http://www.w3.org/2000/svg">
<path d="M174.545 302.545H81.4551C74.4731 302.545 69.8191 307.2 69.8191 314.181C69.8191 321.162 74.4741 325.817 81.4551 325.817H174.546C181.528 325.817 186.182 321.162 186.182 314.181C186.182 307.2 181.527 302.545 174.545 302.545Z" fill="white"/>
<path d="M139.636 244.364H46.5449C39.5629 244.364 34.9089 249.019 34.9089 256C34.9089 262.981 39.5639 267.636 46.5449 267.636H139.636C146.618 267.636 151.272 262.981 151.272 256C151.272 249.019 146.618 244.364 139.636 244.364Z" fill="white"/>
<path d="M104.727 186.182H11.636C4.655 186.182 0 190.836 0 197.818C0 204.8 4.655 209.454 11.636 209.454H104.727C111.709 209.454 116.363 204.799 116.363 197.818C116.363 190.837 111.709 186.182 104.727 186.182Z" fill="white"/>
<path d="M463.127 155.927C459.636 151.272 451.491 150.109 446.836 153.6L323.491 247.855C310.691 257.164 293.236 257.164 280.436 247.855L157.091 153.6C152.436 150.109 144.291 150.109 140.8 155.927C137.309 160.582 137.309 168.727 143.127 172.218L267.636 266.473C278.109 274.618 290.909 278.109 302.545 278.109C314.181 278.109 328.145 274.618 337.454 266.473L460.8 172.218C465.455 168.727 466.618 160.582 463.127 155.927Z" fill="white"/>
<path d="M477.091 104.727H104.727C97.7451 104.727 93.0911 109.382 93.0911 116.363C93.0911 123.344 97.7451 128 104.727 128H477.091C484.073 128 488.727 132.655 488.727 139.636V372.363C488.727 379.345 484.072 383.999 477.091 383.999H104.727C97.7451 383.999 93.0911 388.654 93.0911 395.635C93.0911 402.617 97.7461 407.271 104.727 407.271H477.091C496.873 407.271 512 392.144 512 372.362V139.636C512 119.855 496.873 104.727 477.091 104.727Z" fill="white"/>
<path d="M461.964 340.945L392.146 271.127C387.491 266.472 380.51 266.472 375.855 271.127C371.2 275.782 371.2 282.763 375.855 287.418L445.673 357.236C448 359.563 451.491 360.727 453.818 360.727C456.145 360.727 459.636 359.563 461.964 357.236C466.618 352.582 466.618 345.6 461.964 340.945Z" fill="white"/>
</svg>
