<svg id="_x33_0" enable-background="new 0 0 64 64" height="512" viewBox="0 0 64 64" width="512" xmlns="http://www.w3.org/2000/svg"><g><g><g><path d="m20 38-9.33 16-4.22 7.22c-.28.48-.79.78-1.35.78h-1.53c-.87 0-1.57-.7-1.57-1.57 0-.28.08-.56.22-.8l12.78-21.63z" fill="#cf9e76"/></g><g><path d="m41.78 59.63c.14.24.22.52.22.8 0 .87-.7 1.57-1.57 1.57h-1.53c-.56 0-1.07-.3-1.35-.78l-4.22-7.22-9.33-16h5z" fill="#cf9e76"/></g><g><circle cx="60" cy="48" fill="#ff826e" r="2"/></g><g><path d="m42 24 15.26 10.92c-3.66 4.33-9.14 7.08-15.26 7.08-4.5 0-8.66-1.49-11.99-4.01-1.2-.89-2.3-1.93-3.27-3.07l5.33-3.82z" fill="#b4dd7f"/></g><g><circle cx="52" cy="48" fill="#ff826e" r="2"/></g><g><path d="m61.91 20.09c-.19-1.97-.66-3.86-1.37-5.63-.65-1.61-1.5-3.11-2.52-4.48-.99-1.33-2.14-2.53-3.42-3.58-1.31-1.07-2.76-1.98-4.31-2.69-1.95-.9-4.06-1.49-6.29-1.71v8 7 3.95l1.81 1.24 4.15 2.85 4.15 2.85 5.42 3.73c1.58-2.85 2.47-6.13 2.47-9.62 0-.64-.03-1.28-.09-1.91z" fill="#ff826e"/></g><g><circle cx="44" cy="48" fill="#ff826e" r="2"/></g><g><path d="m32 26.45-7.53 5.18c-1.57-2.86-2.47-6.14-2.47-9.63 0-4.48 1.47-8.65 3.97-12 1.87-2.52 4.31-4.59 7.13-6 2.11-1.06 4.44-1.76 6.9-2v18.95z" fill="#fcd770"/></g><g><path d="m3 4h30.1c-2.82 1.41-5.26 3.48-7.13 6h-21.97-1c-.55 0-1-.45-1-1v-4c0-.55.45-1 1-1z" fill="#aab2bd"/></g><g><path d="m20 38v16 6.43c0 .87.7 1.57 1.57 1.57h.86c.87 0 1.57-.7 1.57-1.57v-6.43-16z" fill="#cf9e76"/></g><g><path d="m26.74 34.92 5.33-3.82-.07-.1v-4.55l-7.53 5.18c-1.57-2.86-2.47-6.14-2.47-9.63 0-4.48 1.47-8.65 3.97-12h-21.97v8 16 3c0 .55.45 1 1 1h10 5 4 5 1l.01-.01c-1.2-.89-2.3-1.93-3.27-3.07z" fill="#ccd1d9"/></g></g><g><path d="m31 20.816v2.184h2v-2h2v-3c0-1.654-1.346-3-3-3-.552 0-1-.449-1-1v-1h1c.552 0 1 .449 1 1v1h2v-1c0-1.302-.839-2.402-2-2.816v-2.184h-2v2h-2v3c0 1.654 1.346 3 3 3 .552 0 1 .449 1 1v1h-1c-.552 0-1-.449-1-1v-1h-2v1c0 1.302.839 2.402 2 2.816z"/><path d="m37.757 33h8.485v2h-8.485z" transform="matrix(.707 -.707 .707 .707 -11.74 39.657)"/><circle cx="44" cy="36" r="1"/><circle cx="40" cy="32" r="1"/><path d="m58.724 34.737-16.724-11.966-16.724 11.966.7.828c.425.503.876.978 1.341 1.435h-22.317v-26h19.054c-1.94 3.208-3.054 6.974-3.054 11 0 3.523.896 7.02 2.593 10.111l.532.969 16.875-11.604v-20.58l-1.099.109c-2.524.25-4.893.95-7.056 1.995h-29.845c-1.103 0-2 .897-2 2v4c0 1.103.897 2 2 2v26c0 1.103.897 2 2 2h8.247l-11.889 20.12c-.234.396-.358.849-.358 1.31 0 1.417 1.153 2.57 2.57 2.57h1.527c.911 0 1.762-.489 2.22-1.275l3.923-6.725h7.76v5.43c0 1.417 1.153 2.57 2.57 2.57h.859c1.417 0 2.57-1.153 2.57-2.57v-5.43h7.759l3.923 6.725c.46.786 1.31 1.275 2.221 1.275h1.527c1.417 0 2.57-1.153 2.57-2.57 0-.461-.124-.914-.357-1.309l-11.216-18.982c3.171 1.852 6.806 2.861 10.574 2.861 6.189 0 12.029-2.71 16.023-7.435zm-19.724-14.313-14.158 9.736c-1.208-2.543-1.842-5.342-1.842-8.16 0-9.334 6.943-17.412 16-18.863zm-36-15.424h26.53c-1.544 1.141-2.921 2.486-4.095 4h-22.435zm20 34v14h-2v-14zm-17.41 21.717c-.102.175-.29.283-.492.283h-1.528c-.314 0-.57-.256-.57-.57 0-.103.027-.203.08-.291l12.491-21.139h2.687zm6.817-7.717 6.593-11.301v11.301zm10.593 7.43c0 .314-.256.57-.57.57h-.86c-.314 0-.57-.256-.57-.57v-5.43h2zm2-7.43v-11.3l6.592 11.3zm16 7.43c0 .314-.256.57-.57.57h-1.527c-.202 0-.391-.108-.492-.283l-12.669-21.717h2.687l12.492 21.14c.052.087.079.187.079.29zm1-19.43c-5.235 0-10.195-2.144-13.771-5.916l13.771-9.855 13.771 9.854c-3.576 3.773-8.536 5.917-13.771 5.917z"/><path d="m60.405 32.105c1.698-3.063 2.595-6.557 2.595-10.105 0-10.903-8.126-19.929-18.901-20.995l-1.099-.109v20.581l16.871 11.591zm-.304-15.792c.351 1.107.603 2.251.746 3.426l-6.859 6.859-2.474-1.698zm-10.263 7.435-2.473-1.699 10.477-10.477c.561.856 1.057 1.754 1.479 2.693zm-4.838-13.334 5.47-5.471c.905.461 1.77.989 2.586 1.585l-8.056 8.058zm3.512-6.341-3.512 3.513v-4.449c1.214.195 2.386.517 3.512.936zm-3.512 13.341 9.613-9.613c.731.661 1.413 1.372 2.036 2.136l-10.961 10.96-.688-.473zm10.664 10.336 5.324-5.324c-.06 2.69-.681 5.333-1.826 7.728z"/><path d="m7 35h14v-2h-2v-12h-2v12h-2v-8h-2v8h-2v-4h-2v4h-2z"/><path d="m7 13h4v2h-4z"/><path d="m13 13h6v2h-6z"/><path d="m7 17h12v2h-12z"/><path d="m44 45c-1.654 0-3 1.346-3 3s1.346 3 3 3 3-1.346 3-3-1.346-3-3-3zm0 4c-.552 0-1-.448-1-1s.448-1 1-1 1 .448 1 1-.448 1-1 1z"/><path d="m52 45c-1.654 0-3 1.346-3 3s1.346 3 3 3 3-1.346 3-3-1.346-3-3-3zm0 4c-.552 0-1-.448-1-1s.448-1 1-1 1 .448 1 1-.448 1-1 1z"/><path d="m60 45c-1.654 0-3 1.346-3 3s1.346 3 3 3 3-1.346 3-3-1.346-3-3-3zm0 4c-.552 0-1-.448-1-1s.448-1 1-1 1 .448 1 1-.448 1-1 1z"/></g></g></svg>