<svg width="100" height="18" viewBox="0 0 100 18" fill="none" xmlns="http://www.w3.org/2000/svg">
<path d="M11.3803 9.53202C12.0316 10.4298 12.3573 11.3803 12.3573 12.3837C12.3573 13.035 12.2077 13.6687 11.9084 14.2848C11.6268 14.9009 11.2219 15.4466 10.6938 15.9219C10.1481 16.4148 9.50562 16.7933 8.76629 17.0573C8.04457 17.3213 7.27884 17.4534 6.4691 17.4534H0V0.264045H5.17528C6.77715 0.264045 8.08858 0.721722 9.10955 1.63708C9.58483 2.05955 9.94569 2.56124 10.1921 3.14213C10.4562 3.70543 10.5882 4.29513 10.5882 4.91124C10.5882 5.45693 10.4914 5.97622 10.2978 6.4691C10.1217 6.94438 9.86648 7.35805 9.53202 7.71011L9.32079 7.94775C10.1129 8.29981 10.7994 8.8279 11.3803 9.53202ZM2.19157 7.26124H5.12247C5.84419 7.26124 6.4339 7.17322 6.89157 6.99719C7.87734 6.50431 8.37022 5.80899 8.37022 4.91124C8.37022 4.27753 8.11498 3.73183 7.60449 3.27416C7.0412 2.74607 6.23146 2.48202 5.17528 2.48202H2.19157V7.26124ZM6.4691 15.2354C7.20843 15.2354 7.85094 15.1034 8.39663 14.8393C8.95993 14.5577 9.3912 14.1968 9.69045 13.7567C9.9897 13.3167 10.1393 12.859 10.1393 12.3837C10.1393 11.926 9.9897 11.4684 9.69045 11.0107C9.4088 10.553 8.98633 10.2009 8.42303 9.9545C7.6309 9.62004 6.69794 9.45281 5.62416 9.45281H2.19157V15.2354H6.4691Z" fill="white"/>
<path d="M27.1003 17.4534V15.2618H18.3076V9.9545H25.0407V7.73652H18.3076V2.48202H27.1003V0.264045H16.116V17.4534H27.1003Z" fill="white"/>
<path d="M43.4492 17.4534H40.6767L34.1548 8.2382H36.6368C37.3234 8.2382 37.9043 8.19419 38.3795 8.10618C38.8548 8.01816 39.2069 7.93015 39.4357 7.84214C39.999 7.59569 40.4303 7.23483 40.7295 6.75955C41.0464 6.26667 41.2048 5.79139 41.2048 5.33371C41.2048 4.84082 41.0552 4.38315 40.756 3.96067C40.4567 3.5206 40.0254 3.16854 39.4621 2.90449C38.8988 2.62285 38.2475 2.48202 37.5082 2.48202H33.5211L33.5739 17.4534H31.3295V0.264045H37.5082C38.3355 0.264045 39.1101 0.396067 39.8318 0.660112C40.5535 0.924156 41.1872 1.30262 41.7329 1.7955C42.261 2.27079 42.6659 2.81648 42.9475 3.43258C43.2468 4.04869 43.3964 4.6824 43.3964 5.33371C43.3964 6.37228 43.0795 7.30524 42.4458 8.13258C42.1818 8.48464 41.8561 8.8103 41.4689 9.10955C41.0992 9.4088 40.7119 9.65524 40.3071 9.84888C39.6558 10.0953 39.0485 10.2185 38.4852 10.2185L43.4492 17.4534Z" fill="white"/>
<path d="M50.1708 14.1264L48.6393 17.4534H46.2101L54.2635 0.0792119L61.8944 17.4534H59.4916L58.0393 14.1264H50.1708ZM54.1843 5.41292L51.1742 11.9348H57.0888L54.1843 5.41292Z" fill="white"/>
<path d="M71.0929 17.6118C72.0082 17.6118 72.8708 17.4446 73.6805 17.1101C74.4902 16.7581 75.212 16.2564 75.8457 15.6051C76.4618 14.9713 76.937 14.2496 77.2715 13.4399C77.606 12.6125 77.7732 11.7412 77.7732 10.8258V0.264045H75.5816V10.8258C75.5816 11.4419 75.4672 12.0316 75.2384 12.5949C75.0095 13.1582 74.6839 13.6511 74.2614 14.0736C73.8389 14.4961 73.3548 14.8305 72.8091 15.077C72.2635 15.3058 71.6914 15.4202 71.0929 15.4202C69.9135 15.4202 68.8573 14.9713 67.9243 14.0736C67.5018 13.6511 67.1762 13.1582 66.9474 12.5949C66.7185 12.0316 66.6041 11.4419 66.6041 10.8258V0.264045H64.4125V10.8258C64.4125 11.7412 64.5797 12.6125 64.9142 13.4399C65.2487 14.2496 65.7327 14.9713 66.3665 15.6051C66.9826 16.2564 67.6955 16.7581 68.5052 17.1101C69.3326 17.4446 70.1951 17.6118 71.0929 17.6118Z" fill="white"/>
<path d="M100 17.4534V0L91.1809 11.4596L82.2826 0V17.4534H84.527V6.4427L91.1809 15.077L97.8084 6.4691V17.4534H100Z" fill="white"/>
</svg>
