<svg width="1680" height="573" fill="none" xmlns="http://www.w3.org/2000/svg"><mask id="a" maskUnits="userSpaceOnUse" x="0" y="0" width="1680" height="573"><path fill="url(#paint0_linear)" d="M0 0h1680v573H0z"/></mask><g mask="url(#a)"><path fill-rule="evenodd" clip-rule="evenodd" d="M399.5 878.081c389.226 0 704.75-313.926 704.75-701.165 0-387.24-315.524-701.166-704.75-701.166s-704.75 313.926-704.75 701.166c0 387.239 315.524 701.165 704.75 701.165zm0 .75c389.637 0 705.5-314.258 705.5-701.915C1105-210.742 789.137-525 399.5-525S-306-210.742-306 176.916c0 387.657 315.863 701.915 705.5 701.915zm0-14.894c381.375 0 690.53-307.594 690.53-687.021 0-379.428-309.155-687.022-690.53-687.022s-690.533 307.594-690.533 687.022c0 379.427 309.158 687.021 690.533 687.021zm0 .75c381.785 0 691.28-307.926 691.28-687.771 0-379.846-309.495-687.772-691.28-687.772-381.785 0-691.283 307.926-691.283 687.772 0 379.845 309.498 687.771 691.283 687.771zm676.32-687.771c0 371.616-302.797 672.876-676.32 672.876s-676.317-301.26-676.317-672.876S25.977-495.961 399.5-495.961s676.32 301.261 676.32 672.877zm.75 0c0 372.033-303.136 673.626-677.07 673.626s-677.067-301.593-677.067-673.626c0-372.034 303.133-673.627 677.067-673.627s677.07 301.593 677.07 673.627zM399.5 836.827c366.326 0 663.28-295.456 663.28-659.911 0-364.456-296.954-659.912-663.28-659.912-366.326 0-663.285 295.456-663.285 659.912 0 364.455 296.96 659.911 663.285 659.911zm0 .75c366.736 0 664.03-295.788 664.03-660.661 0-364.873-297.294-660.662-664.03-660.662s-664.035 295.789-664.035 660.662c0 364.873 297.299 660.661 664.035 660.661zm649.07-660.661c0 356.643-290.596 645.766-649.07 645.766-358.474 0-649.068-289.123-649.068-645.766 0-356.644 290.594-645.767 649.068-645.767s649.07 289.123 649.07 645.767zm.75 0c0 357.061-290.935 646.516-649.82 646.516-358.885 0-649.818-289.455-649.818-646.516 0-357.062 290.933-646.517 649.818-646.517s649.82 289.455 649.82 646.517zM399.5 808.538c350.623 0 634.85-282.791 634.85-631.622 0-348.832-284.227-631.623-634.85-631.623-350.622 0-634.852 282.791-634.852 631.623 0 348.831 284.23 631.622 634.852 631.622zm0 .75c351.033 0 635.6-283.123 635.6-632.372 0-349.25-284.567-632.373-635.6-632.373s-635.602 283.123-635.602 632.373c0 349.249 284.569 632.372 635.602 632.372zm620.63-632.373c0 341.02-277.859 617.478-620.63 617.478-342.77 0-620.635-276.458-620.635-617.478 0-341.019 277.864-617.477 620.635-617.477s620.63 276.458 620.63 617.477zm.75 0c0 341.438-278.199 618.228-621.38 618.228-343.182 0-621.385-276.79-621.385-618.228 0-341.437 278.203-618.227 621.385-618.227 343.181 0 621.38 276.79 621.38 618.227zM399.5 780.249c334.919 0 606.42-270.125 606.42-603.333 0-333.209-271.501-603.334-606.42-603.334-334.92 0-606.418 270.125-606.418 603.334 0 333.208 271.499 603.333 606.418 603.333zm0 .75c335.33 0 607.17-270.457 607.17-604.083 0-333.627-271.84-604.084-607.17-604.084s-607.168 270.457-607.168 604.084c0 333.626 271.838 604.083 607.168 604.083zm593.386-604.083c0 326.047-265.664 590.367-593.386 590.367s-593.386-264.32-593.386-590.367c0-326.048 265.664-590.368 593.386-590.368s593.386 264.32 593.386 590.368zm.75 0c0 326.465-266.004 591.117-594.136 591.117-328.132 0-594.136-264.652-594.136-591.117 0-326.466 266.004-591.118 594.136-591.118 328.132 0 594.136 264.652 594.136 591.118zM399.5 753.139c319.87 0 579.17-257.988 579.17-576.223 0-318.236-259.3-576.224-579.17-576.224-319.87 0-579.17 257.988-579.17 576.224 0 318.235 259.3 576.223 579.17 576.223zm0 .75c320.281 0 579.92-258.32 579.92-576.973 0-318.654-259.639-576.974-579.92-576.974-320.28 0-579.92 258.32-579.92 576.974 0 318.653 259.64 576.973 579.92 576.973zm564.953-576.974c0 310.424-252.934 562.079-564.953 562.079s-564.953-251.655-564.953-562.079S87.481-385.163 399.5-385.163s564.953 251.654 564.953 562.078zm.75 0c0 310.842-253.274 562.829-565.703 562.829-312.43 0-565.703-251.987-565.703-562.829 0-310.841 253.274-562.828 565.703-562.828s565.703 251.987 565.703 562.828zM399.5 724.85c304.167 0 550.737-245.322 550.737-547.935 0-302.612-246.57-547.934-550.737-547.934s-550.737 245.322-550.737 547.934c0 302.613 246.57 547.935 550.737 547.935zm0 .75c304.578 0 551.487-245.654 551.487-548.685 0-303.03-246.909-548.684-551.487-548.684s-551.487 245.654-551.487 548.684c0 303.031 246.91 548.685 551.487 548.685zm536.52-548.684c0 294.8-240.205 533.79-536.52 533.79-296.315 0-536.52-238.99-536.52-533.79 0-294.801 240.205-533.791 536.52-533.791 296.315 0 536.52 238.99 536.52 533.791zm.75 0c0 295.218-240.544 534.54-537.27 534.54s-537.27-239.322-537.27-534.54c0-295.219 240.544-534.541 537.27-534.541s537.27 239.322 537.27 534.541zM399.5 697.74c289.118 0 523.488-233.185 523.488-520.824 0-287.64-234.37-520.825-523.488-520.825-289.118 0-523.488 233.185-523.488 520.825 0 287.639 234.37 520.824 523.488 520.824zm0 .75c289.529 0 524.238-233.517 524.238-521.574 0-288.058-234.709-521.575-524.238-521.575-289.529 0-524.238 233.517-524.238 521.575 0 288.057 234.709 521.574 524.238 521.574zm509.271-521.575c0 279.829-228.005 506.681-509.271 506.681s-509.271-226.852-509.271-506.681c0-279.828 228.005-506.68 509.271-506.68s509.271 226.852 509.271 506.68zm.75 0c0 280.246-228.344 507.431-510.021 507.431s-510.021-227.185-510.021-507.431c0-280.245 228.344-507.43 510.021-507.43s510.021 227.185 510.021 507.43zM399.5 669.451c273.415 0 495.055-220.519 495.055-492.536 0-272.016-221.64-492.535-495.055-492.535S-95.555-95.1-95.555 176.915c0 272.017 221.64 492.536 495.055 492.536zm0 .75c273.825 0 495.805-220.851 495.805-493.286 0-272.434-221.98-493.285-495.805-493.285-273.825 0-495.805 220.851-495.805 493.285 0 272.435 221.98 493.286 495.805 493.286zm480.838-493.285c0 264.204-215.275 478.391-480.838 478.391S-81.338 441.12-81.338 176.916c0-264.205 215.275-478.392 480.838-478.392S880.338-87.289 880.338 176.916zm.75 0c0 264.622-215.614 479.141-481.588 479.141-265.974 0-481.588-214.519-481.588-479.141 0-264.623 215.614-479.142 481.588-479.142 265.974 0 481.588 214.52 481.588 479.142zM399.5 642.341c258.366 0 467.806-208.382 467.806-465.425 0-257.044-209.44-465.426-467.806-465.426S-68.306-80.128-68.306 176.916c0 257.043 209.44 465.425 467.806 465.425zm0 .75c258.776 0 468.556-208.714 468.556-466.175 0-257.462-209.78-466.176-468.556-466.176-258.776 0-468.556 208.714-468.556 466.176 0 257.461 209.78 466.175 468.556 466.175zm453.59-466.175c0 249.232-203.076 451.281-453.59 451.281-250.514 0-453.59-202.049-453.59-451.281 0-249.233 203.076-451.282 453.59-451.282 250.514 0 453.59 202.05 453.59 451.282zm.75 0c0 249.649-203.415 452.031-454.34 452.031-250.925 0-454.34-202.382-454.34-452.031 0-249.65 203.415-452.032 454.34-452.032 250.925 0 454.34 202.382 454.34 452.032zM399.5 614.052c242.663 0 439.373-195.716 439.373-437.136 0-241.42-196.71-437.137-439.373-437.137-242.663 0-439.373 195.716-439.373 437.137 0 241.42 196.71 437.136 439.373 437.136zm0 .75c243.073 0 440.123-196.048 440.123-437.886 0-241.839-197.05-437.887-440.123-437.887-243.073 0-440.123 196.048-440.123 437.887 0 241.838 197.05 437.886 440.123 437.886zm425.156-437.886c0 233.608-190.345 422.992-425.156 422.992S-25.656 410.524-25.656 176.916c0-233.61 190.345-422.993 425.156-422.993S824.656-56.693 824.656 176.916zm.75 0c0 234.026-190.684 423.742-425.906 423.742S-26.406 410.942-26.406 176.916c0-234.027 190.684-423.743 425.906-423.743S825.406-57.111 825.406 176.916zM399.5 585.764c226.959 0 410.94-183.052 410.94-408.848 0-225.798-183.981-408.849-410.94-408.849S-11.44-48.882-11.44 176.916c0 225.796 183.981 408.848 410.94 408.848zm0 .75c227.37 0 411.69-183.384 411.69-409.598 0-226.215-184.32-409.599-411.69-409.599S-12.19-49.299-12.19 176.916c0 226.214 184.32 409.598 411.69 409.598zm397.908-409.598c0 218.636-178.146 395.882-397.908 395.882-219.762 0-397.908-177.246-397.908-395.882 0-218.637 178.146-395.883 397.908-395.883 219.762 0 397.908 177.246 397.908 395.883zm.75 0c0 219.053-178.485 396.632-398.658 396.632S.842 395.969.842 176.916c0-219.054 178.485-396.633 398.658-396.633S798.158-42.138 798.158 176.916zM399.5 558.654c211.91 0 383.691-170.914 383.691-381.738 0-210.825-171.781-381.738-383.691-381.738-211.91 0-383.691 170.913-383.691 381.738 0 210.824 171.781 381.738 383.691 381.738zm0 .75c212.321 0 384.441-171.246 384.441-382.488 0-211.243-172.12-382.488-384.441-382.488-212.321 0-384.441 171.245-384.441 382.488 0 211.242 172.12 382.488 384.441 382.488zm369.475-382.488c0 203.012-165.416 367.593-369.475 367.593-204.059 0-369.475-164.581-369.475-367.593 0-203.013 165.416-367.594 369.475-367.594 204.059 0 369.475 164.58 369.475 367.594zm.75 0c0 203.43-165.756 368.343-370.225 368.343-204.469 0-370.225-164.913-370.225-368.343 0-203.431 165.756-368.344 370.225-368.344 204.469 0 370.225 164.913 370.225 368.344zM399.5 530.365c196.207 0 355.258-158.248 355.258-353.449 0-195.202-159.051-353.45-355.258-353.45S44.242-18.286 44.242 176.916c0 195.201 159.051 353.449 355.258 353.449zm0 .75c196.618 0 356.008-158.581 356.008-354.199 0-195.62-159.39-354.2-356.008-354.2S43.492-18.704 43.492 176.916c0 195.618 159.39 354.199 356.008 354.199zm341.041-354.199c0 187.389-152.685 339.304-341.041 339.304S58.459 364.305 58.459 176.916c0-187.39 152.685-339.305 341.041-339.305S740.541-10.474 740.541 176.916zm.75 0c0 187.807-153.025 340.054-341.791 340.054S57.709 364.723 57.709 176.916c0-187.808 153.025-340.055 341.791-340.055S741.291-10.891 741.291 176.916zM399.5 503.255c181.158 0 328.009-146.111 328.009-326.339 0-180.229-146.851-326.34-328.009-326.34-181.158 0-328.01 146.111-328.01 326.34 0 180.228 146.852 326.339 328.01 326.339zm0 .75c181.569 0 328.759-146.443 328.759-327.089 0-180.647-147.19-327.09-328.759-327.09-181.569 0-328.76 146.443-328.76 327.09 0 180.646 147.191 327.089 328.76 327.089zm313.793-327.089c0 172.416-140.486 312.194-313.793 312.194-173.307 0-313.793-139.778-313.793-312.194 0-172.417 140.486-312.195 313.793-312.195 173.307 0 313.793 139.778 313.793 312.195zm.75 0c0 172.834-140.826 312.944-314.543 312.944S84.957 349.75 84.957 176.916c0-172.835 140.826-312.945 314.543-312.945S714.043 4.081 714.043 176.916zM399.5 474.966c165.455 0 299.576-133.445 299.576-298.05 0-164.606-134.121-298.051-299.576-298.051S99.924 12.31 99.924 176.916c0 164.605 134.121 298.05 299.576 298.05zm0 .75c165.866 0 300.326-133.778 300.326-298.8 0-165.023-134.46-298.801-300.326-298.801S99.174 11.893 99.174 176.916c0 165.022 134.46 298.8 300.326 298.8zm285.359-298.8c0 156.793-127.756 283.905-285.359 283.905-157.603 0-285.36-127.112-285.36-283.905 0-156.794 127.757-283.906 285.36-283.906S684.859 20.122 684.859 176.916zm.75 0c0 157.211-128.095 284.655-286.109 284.655-158.014 0-286.11-127.444-286.11-284.655 0-157.212 128.096-284.656 286.11-284.656S685.609 19.704 685.609 176.916zM399.5 446.677c149.752 0 271.143-120.78 271.143-269.761 0-148.982-121.391-269.762-271.143-269.762-149.752 0-271.143 120.78-271.143 269.762 0 148.981 121.391 269.761 271.143 269.761zm0 .75c150.162 0 271.893-121.112 271.893-270.511 0-149.4-121.731-270.512-271.893-270.512-150.162 0-271.893 121.112-271.893 270.512 0 149.399 121.731 270.511 271.893 270.511zm258.111-270.511c0 141.82-115.557 256.795-258.111 256.795-142.554 0-258.111-114.975-258.111-256.795C141.389 35.095 256.946-79.88 399.5-79.88c142.554 0 258.111 114.975 258.111 256.796zm.75 0c0 142.238-115.896 257.545-258.861 257.545-142.965 0-258.861-115.307-258.861-257.545 0-142.24 115.896-257.546 258.861-257.546 142.965 0 258.861 115.307 258.861 257.546zM399.5 419.567c134.703 0 243.894-108.642 243.894-242.651 0-134.01-109.191-242.652-243.894-242.652S155.606 42.906 155.606 176.916c0 134.009 109.191 242.651 243.894 242.651zm0 .75c135.113 0 244.644-108.975 244.644-243.401 0-134.427-109.531-243.402-244.644-243.402S154.856 42.49 154.856 176.916c0 134.426 109.531 243.401 244.644 243.401zm229.678-243.401c0 126.197-102.827 228.507-229.678 228.507s-229.678-102.31-229.678-228.507c0-126.198 102.827-228.507 229.678-228.507s229.678 102.31 229.678 228.507zm.75 0c0 126.615-103.166 229.257-230.428 229.257S169.072 303.531 169.072 176.916C169.072 50.3 272.238-52.341 399.5-52.341S629.928 50.3 629.928 176.916zM399.5 391.278c119 0 215.461-95.977 215.461-214.362C614.961 58.53 518.5-37.447 399.5-37.447c-119 0-215.461 95.977-215.461 214.363 0 118.385 96.461 214.362 215.461 214.362zm0 .75c119.41 0 216.211-96.309 216.211-215.112 0-118.804-96.801-215.113-216.211-215.113-119.41 0-216.211 96.31-216.211 215.113S280.09 392.028 399.5 392.028zm201.245-215.112c0 110.573-90.097 200.218-201.245 200.218-111.148 0-201.245-89.645-201.245-200.218 0-110.574 90.097-200.219 201.245-200.219 111.148 0 201.245 89.645 201.245 200.219zm.75 0c0 110.991-90.436 200.968-201.995 200.968-111.558 0-201.995-89.977-201.995-200.968 0-110.992 90.437-200.969 201.995-200.969 111.559 0 201.995 89.977 201.995 200.969zM399.5 364.168c103.951 0 188.213-83.839 188.213-187.253 0-103.413-84.262-187.252-188.213-187.252s-188.213 83.84-188.213 187.252c0 103.414 84.262 187.253 188.213 187.253zm0 .75c104.361 0 188.963-84.172 188.963-188.003 0-103.83-84.602-188.002-188.963-188.002-104.361 0-188.963 84.172-188.963 188.002 0 103.831 84.602 188.003 188.963 188.003zm173.996-188.003c0 95.602-77.897 173.109-173.996 173.109s-173.996-77.507-173.996-173.109c0-95.6 77.897-173.108 173.996-173.108s173.996 77.507 173.996 173.108zm.75 0c0 96.02-78.236 173.859-174.746 173.859s-174.746-77.839-174.746-173.859c0-96.019 78.236-173.858 174.746-173.858s174.746 77.84 174.746 173.858zM399.5 335.879c88.247 0 159.779-71.174 159.779-158.963 0-87.79-71.532-158.964-159.779-158.964S239.721 89.126 239.721 176.916c0 87.789 71.532 158.963 159.779 158.963zm0 .75c88.658 0 160.529-71.506 160.529-159.713 0-88.208-71.871-159.714-160.529-159.714S238.971 88.708 238.971 176.916c0 88.207 71.871 159.713 160.529 159.713zm145.563-159.713c0 79.977-65.167 144.819-145.563 144.819-80.396 0-145.563-64.842-145.563-144.819 0-79.978 65.167-144.82 145.563-144.82 80.396 0 145.563 64.842 145.563 144.82zm.75 0c0 80.395-65.507 145.569-146.313 145.569-80.806 0-146.313-65.174-146.313-145.569 0-80.396 65.507-145.57 146.313-145.57 80.806 0 146.313 65.174 146.313 145.57zM399.5 308.769c73.198 0 132.531-59.036 132.531-131.854 0-72.817-59.333-131.853-132.531-131.853-73.198 0-132.531 59.036-132.531 131.853 0 72.818 59.333 131.854 132.531 131.854zm0 .75c73.609 0 133.281-59.369 133.281-132.604 0-73.235-59.672-132.603-133.281-132.603-73.609 0-133.281 59.368-133.281 132.603 0 73.235 59.672 132.604 133.281 132.604zm118.314-132.603c0 65.005-52.967 117.709-118.314 117.709s-118.314-52.704-118.314-117.709c0-65.006 52.967-117.71 118.314-117.71s118.314 52.704 118.314 117.71zm.75 0c0 65.423-53.307 118.459-119.064 118.459-65.757 0-119.064-53.036-119.064-118.459 0-65.424 53.307-118.46 119.064-118.46 65.757 0 119.064 53.036 119.064 118.46zM399.5 280.48c57.495 0 104.098-46.371 104.098-103.564 0-57.194-46.603-103.565-104.098-103.565s-104.098 46.371-104.098 103.565c0 57.193 46.603 103.564 104.098 103.564zm0 .75c57.906 0 104.848-46.703 104.848-104.314 0-57.612-46.942-104.315-104.848-104.315s-104.848 46.703-104.848 104.315c0 57.611 46.942 104.314 104.848 104.314zm89.881-104.314c0 49.382-40.238 89.42-89.881 89.42s-89.881-40.038-89.881-89.42c0-49.382 40.238-89.42 89.881-89.42s89.881 40.038 89.881 89.42zm.75 0c0 49.799-40.577 90.17-90.631 90.17s-90.631-40.371-90.631-90.17c0-49.8 40.577-90.17 90.631-90.17s90.631 40.37 90.631 90.17zM399.5 252.192c41.792 0 75.664-33.706 75.664-75.276 0-41.571-33.872-75.277-75.664-75.277s-75.664 33.706-75.664 75.277c0 41.57 33.872 75.276 75.664 75.276zm0 .75c42.203 0 76.414-34.038 76.414-76.026 0-41.989-34.211-76.027-76.414-76.027-42.202 0-76.414 34.038-76.414 76.027 0 41.988 34.212 76.026 76.414 76.026zm34.199-76.026c0 18.786-15.308 34.021-34.199 34.021s-34.199-15.235-34.199-34.021 15.308-34.022 34.199-34.022 34.199 15.236 34.199 34.022zm.75 0c0 19.203-15.647 34.771-34.949 34.771s-34.949-15.568-34.949-34.771c0-19.204 15.647-34.772 34.949-34.772s34.949 15.568 34.949 34.772zM399.5 196.793c11.04 0 19.982-8.903 19.982-19.878 0-10.974-8.942-19.877-19.982-19.877s-19.983 8.903-19.983 19.877c0 10.975 8.943 19.878 19.983 19.878zm0 .75c11.45 0 20.732-9.235 20.732-20.628 0-11.392-9.282-20.627-20.732-20.627s-20.733 9.235-20.733 20.627c0 11.393 9.283 20.628 20.733 20.628zm5.766-20.627c0 3.162-2.578 5.732-5.766 5.732s-5.766-2.57-5.766-5.732c0-3.163 2.578-5.733 5.766-5.733s5.766 2.57 5.766 5.733zm.75 0c0 3.58-2.917 6.482-6.516 6.482s-6.516-2.902-6.516-6.482c0-3.581 2.917-6.483 6.516-6.483s6.516 2.902 6.516 6.483zm-6.516 62.31c34.595 0 62.632-27.901 62.632-62.31 0-34.41-28.037-62.311-62.632-62.311s-62.632 27.901-62.632 62.311c0 34.409 28.037 62.31 62.632 62.31zm0 .75c35.005 0 63.382-28.233 63.382-63.06 0-34.828-28.377-63.061-63.382-63.061-35.005 0-63.382 28.233-63.382 63.061 0 34.827 28.377 63.06 63.382 63.06zm48.416-63.06c0 26.597-21.673 48.166-48.416 48.166s-48.416-21.569-48.416-48.166c0-26.598 21.673-48.166 48.416-48.166s48.416 21.568 48.416 48.166zm.75 0c0 27.015-22.012 48.916-49.166 48.916-27.154 0-49.166-21.901-49.166-48.916C350.334 149.9 372.346 128 399.5 128c27.154 0 49.166 21.9 49.166 48.916z" fill="url(#paint1_linear)" fill-opacity=".8"/></g><defs><linearGradient id="paint0_linear" x1="840" y1="0" x2="840" y2="573" gradientUnits="userSpaceOnUse"><stop stop-color="#3462F2"/><stop offset="1" stop-color="#EFF2F4"/></linearGradient><linearGradient id="paint1_linear" x1="4.5" y1="115.5" x2="1105.01" y2="295.442" gradientUnits="userSpaceOnUse"><stop stop-color="#fff" stop-opacity=".07"/><stop offset="1" stop-color="#fff" stop-opacity="0"/></linearGradient></defs></svg>