<svg width="17" height="11" viewBox="0 0 17 11" fill="none" xmlns="http://www.w3.org/2000/svg">
<path d="M7.83139 5.33261C8.23327 5.85814 8.4342 6.4352 8.4342 7.06378C8.4342 7.46565 8.34662 7.85723 8.17144 8.23849C7.99626 8.61976 7.74895 8.95466 7.42951 9.24319C7.09976 9.54202 6.71334 9.77387 6.27025 9.93875C5.82715 10.0933 5.35829 10.1706 4.86368 10.1706H0.984009V0H4.15266C5.11098 0 5.90444 0.283376 6.53301 0.850126C6.82154 1.11805 7.04309 1.42718 7.19766 1.77754C7.36253 2.12789 7.44497 2.4937 7.44497 2.87497C7.44497 3.4005 7.29555 3.88482 6.99672 4.32792C6.96581 4.38974 6.92459 4.44642 6.87306 4.49794C7.25433 4.72464 7.57377 5.00286 7.83139 5.33261ZM2.73063 3.94149H4.10629C4.3433 3.94149 4.52362 3.93119 4.64728 3.91058C4.78124 3.88997 4.91005 3.85391 5.0337 3.80238C5.0337 3.80238 5.08522 3.77662 5.18827 3.7251C5.30162 3.66327 5.41497 3.55507 5.52832 3.4005C5.64167 3.23563 5.69834 3.06045 5.69834 2.87497C5.69834 2.58644 5.58499 2.33914 5.35829 2.13304C5.09038 1.87543 4.6885 1.74662 4.15266 1.74662H2.73063V3.94149ZM6.25479 7.96027C6.55362 7.69235 6.70304 7.39352 6.70304 7.06378C6.70304 6.81647 6.6206 6.58977 6.45573 6.38367C6.29086 6.17758 6.09507 6.02817 5.86837 5.93543C5.4871 5.77055 4.99763 5.68812 4.39997 5.68812H2.73063V8.43943H4.86368C5.44073 8.43943 5.90444 8.27971 6.25479 7.96027Z" fill="#B1B1B1"/>
<path d="M16.984 10.1706V8.43943H12.3006V5.95088H15.8247V4.20426H12.3006V1.74662H16.984V0H10.554V10.1706H16.984Z" fill="#B1B1B1"/>
</svg>
