<svg xmlns="http://www.w3.org/2000/svg" viewBox="0 0 252 302"><defs><style>.cls-1,.cls-2{fill:none;stroke:#1a1b19;}.cls-1,.cls-2,.cls-3,.cls-4{stroke-miterlimit:10;}.cls-1,.cls-3{stroke-width:2px;}.cls-2{stroke-width:4px;}.cls-3,.cls-4{fill:#1d1d1b;stroke:#1d1d1b;}</style></defs><g id="Слой_2" data-name="Слой 2"><g id="Слой_1-2" data-name="Слой 1"><rect class="cls-1" x="1" y="1" width="250" height="300" rx="7.25"/><circle class="cls-2" cx="126" cy="79.85" r="55"/><circle class="cls-2" cx="181" cy="200.97" r="42.77"/><circle class="cls-2" cx="64.78" cy="200.97" r="33.26"/><circle class="cls-3" cx="70" cy="274.79" r="10.5"/><circle class="cls-3" cx="126" cy="274.79" r="10.5"/><circle class="cls-3" cx="182" cy="274.79" r="10.5"/><polygon class="cls-4" points="85.28 32.18 77.7 39.76 120.81 76.51 122.64 74.68 85.28 32.18"/><polygon class="cls-4" points="166.69 127.55 174.28 119.96 131.16 83.21 129.34 85.04 166.69 127.55"/><polygon class="cls-4" points="173.96 39.42 166.19 31.65 130.48 73.88 132.35 75.75 173.96 39.42"/><polygon class="cls-4" points="78.42 120.65 86.19 128.43 121.9 86.2 120.03 84.33 78.42 120.65"/><polygon class="cls-4" points="147.71 161.82 141.5 168.03 176.76 198.09 178.26 196.59 147.71 161.82"/><polygon class="cls-4" points="214.29 239.84 220.5 233.63 185.24 203.57 183.74 205.06 214.29 239.84"/><polygon class="cls-4" points="220.24 167.75 213.88 161.39 184.67 195.93 186.2 197.46 220.24 167.75"/><polygon class="cls-4" points="142.09 234.19 148.45 240.55 177.66 206.01 176.13 204.48 142.09 234.19"/><polygon class="cls-4" points="37.81 169.26 32.78 174.28 61.35 198.63 62.56 197.43 37.81 169.26"/><polygon class="cls-4" points="91.75 232.46 96.78 227.43 68.21 203.08 67 204.29 91.75 232.46"/><polygon class="cls-4" points="96.57 174.06 91.42 168.91 67.76 196.89 69 198.13 96.57 174.06"/><polygon class="cls-4" points="33.26 227.89 38.41 233.04 62.07 205.05 60.83 203.81 33.26 227.89"/></g></g></svg>