<svg width="76" height="13" viewBox="0 0 76 13" fill="none" xmlns="http://www.w3.org/2000/svg">
<path d="M8.11943 10H6.89395V1.19438H1.57891V10H0.332764V0.0652829H8.11943V10ZM13.4526 10.1239C12.452 10.1239 11.6488 9.79116 11.0429 9.12563C10.4371 8.45552 10.1341 7.55361 10.1341 6.41992C10.1341 5.28623 10.4371 4.38662 11.0429 3.72109C11.6488 3.05098 12.452 2.71592 13.4526 2.71592C14.4486 2.71592 15.2495 3.05098 15.8554 3.72109C16.4612 4.38662 16.7642 5.28623 16.7642 6.41992C16.7642 7.54902 16.4612 8.44863 15.8554 9.11875C15.2495 9.78887 14.4486 10.1239 13.4526 10.1239ZM11.9173 8.36831C12.2982 8.83647 12.81 9.07056 13.4526 9.07056C14.0952 9.07056 14.6046 8.83877 14.981 8.3752C15.3574 7.90703 15.5456 7.25527 15.5456 6.41992C15.5456 5.58457 15.3574 4.93511 14.981 4.47153C14.6046 4.00337 14.0952 3.76929 13.4526 3.76929C12.81 3.76929 12.2982 4.00337 11.9173 4.47153C11.5409 4.9397 11.3527 5.58916 11.3527 6.41992C11.3527 7.25068 11.5409 7.90015 11.9173 8.36831ZM23.1851 9.01548V3.82437H20.5001L20.2797 6.83989C20.2109 7.82212 20.0158 8.52896 19.6945 8.9604V9.01548H23.1851ZM18.8408 11.8933H17.7255V9.01548H18.3245C18.8064 8.69878 19.0887 7.9644 19.1713 6.81235L19.4467 2.83984H24.3762V9.01548H25.5122V11.8933H24.3968V10H18.8408V11.8933ZM32.1603 9.01548V3.82437H29.4753L29.2549 6.83989C29.1861 7.82212 28.991 8.52896 28.6697 8.9604V9.01548H32.1603ZM27.816 11.8933H26.7007V9.01548H27.2997C27.7816 8.69878 28.0639 7.9644 28.1465 6.81235L28.4219 2.83984H33.3514V9.01548H34.4874V11.8933H33.372V10H27.816V11.8933ZM38.9186 3.75552C38.3633 3.75552 37.902 3.94829 37.5348 4.33384C37.1722 4.71479 36.9725 5.20591 36.9358 5.80718H40.8257C40.8119 5.20132 40.6306 4.70791 40.2818 4.32695C39.933 3.946 39.4786 3.75552 38.9186 3.75552ZM40.7982 7.94834H41.9755C41.8699 8.58174 41.5394 9.10269 40.9841 9.51118C40.4333 9.91968 39.77 10.1239 38.9944 10.1239C37.9708 10.1239 37.1653 9.79346 36.5778 9.13252C35.9903 8.47158 35.6966 7.57656 35.6966 6.44746C35.6966 5.32754 35.9903 4.42563 36.5778 3.74175C37.1699 3.05786 37.9571 2.71592 38.9393 2.71592C39.9031 2.71592 40.6651 3.0395 41.225 3.68667C41.785 4.33384 42.065 5.20132 42.065 6.28911V6.74351H36.9289V6.81235C36.9289 7.50083 37.1171 8.05161 37.4935 8.4647C37.8698 8.87778 38.3793 9.08433 39.0219 9.08433C39.4717 9.08433 39.855 8.98105 40.1717 8.77451C40.4884 8.56797 40.6972 8.29258 40.7982 7.94834ZM47.3568 2.71592C48.2748 2.71592 49.0138 3.05327 49.5737 3.72798C50.1383 4.40269 50.4205 5.3 50.4205 6.41992C50.4205 7.53525 50.1406 8.43257 49.5806 9.11187C49.0206 9.78657 48.2886 10.1239 47.3844 10.1239C46.8795 10.1239 46.4274 10.0092 46.0281 9.77969C45.6287 9.5502 45.3212 9.23579 45.1055 8.83647H45.078V12.389H43.88V2.83984H45.016V4.05156H45.0435C45.2684 3.63848 45.5828 3.3126 45.9867 3.07393C46.3907 2.83525 46.8473 2.71592 47.3568 2.71592ZM47.1227 9.07056C47.7607 9.07056 48.2656 8.83188 48.6374 8.35454C49.0092 7.8772 49.195 7.23232 49.195 6.41992C49.195 5.60752 49.0092 4.96265 48.6374 4.4853C48.2656 4.00796 47.7607 3.76929 47.1227 3.76929C46.5077 3.76929 46.012 4.01255 45.6356 4.49907C45.2593 4.9856 45.0711 5.62588 45.0711 6.41992C45.0711 7.21855 45.2593 7.86113 45.6356 8.34766C46.012 8.82959 46.5077 9.07056 47.1227 9.07056ZM58.0876 6.22715L61.3235 10H59.7882L56.8966 6.55762H56.8415V10H55.6573V6.55762H55.6091L52.7175 10H51.2029L54.4181 6.2478L51.2786 2.83984H52.7519L55.6091 6.00684H55.6573V2.83984H56.8415V6.00684H56.8966L59.7537 2.83984H61.2133L58.0876 6.22715ZM65.2453 6.22715L68.6876 10H67.1454L64.0542 6.55762H63.9991V10H62.8149V2.83984H63.9991V6.00684H64.0542L67.111 2.83984H68.5913L65.2453 6.22715ZM72.3271 9.10498C72.8917 9.10498 73.3644 8.93057 73.7454 8.58174C74.131 8.22832 74.3237 7.79458 74.3237 7.28052V6.69531L72.4098 6.81235C71.9278 6.84448 71.5538 6.96152 71.2875 7.16348C71.0259 7.36543 70.8951 7.63623 70.8951 7.97588C70.8951 8.31553 71.0259 8.58862 71.2875 8.79517C71.5492 9.00171 71.8957 9.10498 72.3271 9.10498ZM72.0586 10.1239C71.3472 10.1239 70.7712 9.92656 70.3306 9.53184C69.8945 9.13711 69.6765 8.61846 69.6765 7.97588C69.6765 7.36084 69.9014 6.86973 70.3512 6.50254C70.8056 6.13535 71.4459 5.92881 72.2721 5.88291L74.3237 5.76587V5.16689C74.3237 4.73086 74.186 4.38892 73.9106 4.14106C73.6352 3.89321 73.2497 3.76929 72.754 3.76929C72.2996 3.76929 71.9301 3.87026 71.6456 4.07222C71.361 4.26958 71.1797 4.54727 71.1017 4.90527H69.945C69.9863 4.26729 70.2617 3.74404 70.7712 3.33555C71.2852 2.92246 71.9554 2.71592 72.7815 2.71592C73.6215 2.71592 74.287 2.92705 74.7781 3.34932C75.2738 3.77158 75.5217 4.33843 75.5217 5.04985V10H74.3857V8.76763H74.3581C74.1424 9.17612 73.8257 9.5043 73.4081 9.75215C72.9904 10 72.5406 10.1239 72.0586 10.1239Z" fill="#CACACA"/>
</svg>
