<svg xmlns="http://www.w3.org/2000/svg" viewBox="0 0 360 260"><defs><style>.cls-1,.cls-2{fill:none;}.cls-1{stroke:#fff;stroke-miterlimit:10;stroke-width:7px;}</style></defs><g id="Слой_2" data-name="Слой 2"><g id="Слой_1-2" data-name="Слой 1"><path class="cls-1" d="M87.43,98V224.41a3,3,0,0,0,3,3.09h56.13a3,3,0,0,0,3-3.09l-.44-65.25a3,3,0,0,1,3-3.09h55.88a3,3,0,0,1,3,3.09l.43,65.25a3,3,0,0,0,3,3.09h56.13a3,3,0,0,0,3-3.09V98"/><path class="cls-1" d="M52.87,119,178.06,37.22a4.32,4.32,0,0,1,4.74,0L307.13,119"/><path class="cls-1" d="M251.5,82.43V37.17a4.67,4.67,0,0,0-4.67-4.67H233.65A4.67,4.67,0,0,0,229,37.17V67.61"/><rect class="cls-2" width="360" height="260"/></g></g></svg>