<svg width="42" height="42" viewBox="0 0 42 42" fill="none" xmlns="http://www.w3.org/2000/svg">
<circle cx="21" cy="21" r="21" fill="white"/>
<path d="M1 21C1 32.027 9.973 41 21 41C32.027 41 41 32.027 41 21C41 9.973 32.027 1 21 1C9.973 1 1 9.973 1 21ZM22.477 12.204L28.756 17.536C29.287 17.986 29.561 18.63 29.561 19.275C29.561 19.796 29.382 20.322 29.018 20.752C28.205 21.712 26.764 21.83 25.803 21.015L23.282 18.873V28.059C23.282 29.319 22.261 30.34 21.001 30.34C19.741 30.34 18.72 29.319 18.72 28.059V18.873L16.199 21.015C15.238 21.83 13.799 21.712 12.982 20.752C12.167 19.792 12.285 18.352 13.246 17.536L19.525 12.204C20.375 11.48 21.625 11.48 22.477 12.204Z" fill="black"/>
</svg>
