<svg width="192" height="192" viewBox="0 0 192 192" fill="none" xmlns="http://www.w3.org/2000/svg">
<path d="M68.0555 4.75247H124.04C175.176 4.75247 187.248 16.9188 187.248 68.0555V124.04C187.248 175.176 175.081 187.248 123.945 187.248H67.9605C16.8239 187.248 4.75256 175.081 4.75256 123.945V67.9604C4.75256 16.9188 16.9189 4.75247 68.0555 4.75247Z" fill="#5181B8"/>
<path d="M0 42C0 18.804 18.804 0 42 0H150C173.196 0 192 18.804 192 42V150C192 173.196 173.196 192 150 192H42C18.804 192 0 173.196 0 150V42Z" fill="#5181B8"/>
<path fill-rule="evenodd" clip-rule="evenodd" d="M154.17 67.5802C155.026 64.7287 154.17 62.7327 150.178 62.7327H136.871C133.449 62.7327 131.929 64.5386 131.073 66.5347C131.073 66.5347 124.325 83.0733 114.725 93.7188C111.588 96.8555 110.257 97.806 108.547 97.806C107.691 97.806 106.455 96.8555 106.455 94.004V67.5802C106.455 64.1584 105.505 62.7327 102.653 62.7327H81.7426C79.6515 62.7327 78.3208 64.3485 78.3208 65.7743C78.3208 69.0059 83.0732 69.7663 83.6435 78.701V98.2812C83.6435 102.558 82.8832 103.319 81.1723 103.319C76.7049 103.319 65.6792 86.7802 59.2158 67.7703C57.8851 64.2535 56.6495 62.7327 53.2277 62.7327H39.9208C36.1188 62.7327 35.3584 64.5386 35.3584 66.5347C35.3584 70.0515 39.8257 87.5406 56.3643 110.638C67.3901 126.416 82.8832 134.97 96.9505 134.97C105.41 134.97 106.455 133.069 106.455 129.838V117.861C106.455 114.059 107.216 113.299 109.972 113.299C111.968 113.299 115.295 114.25 123.184 121.854C132.214 130.883 133.735 134.97 138.772 134.97H152.079C155.881 134.97 157.782 133.069 156.642 129.362C155.406 125.655 151.129 120.238 145.426 113.774C142.289 110.067 137.632 106.17 136.301 104.174C134.305 101.608 134.875 100.467 136.301 98.2812C136.301 98.1862 152.554 75.3743 154.17 67.5802V67.5802Z" fill="white"/>
</svg>
