<svg width="2500" height="860" fill="none" xmlns="http://www.w3.org/2000/svg"><path fill="#1D1D1F" d="M0 0h2500v860H0z"/><mask id="a" maskUnits="userSpaceOnUse" x="0" y="0" width="2500" height="860"><path d="M2500 0H0v860h2500V0z" fill="url(#paint0_linear)"/></mask><g mask="url(#a)"><path fill-rule="evenodd" clip-rule="evenodd" d="M1815.85 1496.85c579.21 0 1048.74-471.17 1048.74-1052.363 0-581.198-469.53-1052.361-1048.74-1052.361-579.2 0-1048.734 471.163-1048.734 1052.361 0 581.193 469.534 1052.363 1048.734 1052.363zm0 1.12c579.82 0 1049.85-471.66 1049.85-1053.483C2865.7-137.339 2395.67-609 1815.85-609 1236.03-609 766-137.339 766 444.487c0 581.823 470.03 1053.483 1049.85 1053.483zm0-22.35c567.52 0 1027.58-461.66 1027.58-1031.133 0-569.474-460.06-1031.133-1027.58-1031.133S788.272-124.987 788.272 444.487c0 569.473 460.058 1031.133 1027.578 1031.133zm0 1.12c568.13 0 1028.69-462.15 1028.69-1032.253 0-570.101-460.56-1032.259-1028.69-1032.259-568.13 0-1028.694 462.158-1028.694 1032.259 0 570.103 460.564 1032.253 1028.694 1032.253zM2822.28 444.487c0 557.743-450.59 1009.903-1006.43 1009.903-555.84 0-1006.423-452.16-1006.423-1009.903 0-557.749 450.583-1009.903 1006.423-1009.903 555.84 0 1006.43 452.154 1006.43 1009.903zm1.12 0c0 558.373-451.1 1011.023-1007.55 1011.023-556.45 0-1007.539-452.65-1007.539-1011.023 0-558.376 451.089-1011.029 1007.539-1011.029S2823.4-113.889 2823.4 444.487zM1815.85 1434.93c545.13 0 987.03-443.443 987.03-990.443 0-547.002-441.9-990.444-987.03-990.444S828.82-102.515 828.82 444.487c0 547 441.9 990.443 987.03 990.443zm0 1.12c545.74 0 988.14-443.935 988.14-991.563 0-547.628-442.4-991.57-988.14-991.57s-988.146 443.942-988.146 991.57 442.406 991.563 988.146 991.563zm965.88-991.563c0 535.275-432.44 969.213-965.88 969.213S849.976 979.762 849.976 444.487c0-535.278 432.434-969.215 965.874-969.215s965.88 433.937 965.88 969.215zm1.12 0c0 535.903-432.94 970.333-967 970.333-534.05 0-966.99-434.43-966.99-970.333 0-535.905 432.94-970.34 966.99-970.34 534.06 0 967 434.435 967 970.34zm-967 947.983c521.76 0 944.72-424.433 944.72-947.983 0-523.553-422.96-947.986-944.72-947.986S871.131-79.066 871.131 444.487c0 523.55 422.959 947.983 944.719 947.983zm0 1.13c522.37 0 945.83-424.935 945.83-949.113 0-524.18-423.46-949.112-945.83-949.112-522.37 0-945.835 424.932-945.835 949.112 0 524.178 423.465 949.113 945.835 949.113zm923.56-949.115c0 511.828-413.48 926.755-923.56 926.755-510.07 0-923.563-414.927-923.563-926.755 0-511.826 413.493-926.754 923.563-926.754 510.08 0 923.56 414.928 923.56 926.754zm1.11 0c0 512.455-413.98 927.885-924.67 927.885-510.69 0-924.679-415.43-924.679-927.885 0-512.453 413.989-927.88 924.679-927.88s924.67 415.427 924.67 927.88zm-924.67 905.525c498.39 0 902.41-405.421 902.41-905.523 0-500.105-404.02-905.528-902.41-905.528S913.443-55.618 913.443 444.487c0 500.102 404.017 905.523 902.407 905.523zm0 1.13c499 0 903.53-405.923 903.53-906.653 0-500.732-404.53-906.654-903.53-906.654S912.327-56.245 912.327 444.487c0 500.73 404.523 906.653 903.523 906.653zm883.02-906.653c0 489.355-395.34 886.063-883.02 886.063S932.836 933.842 932.836 444.487c0-489.357 395.334-886.068 883.014-886.068s883.02 396.711 883.02 886.068zm1.11 0c0 489.982-395.84 887.193-884.13 887.193S931.72 934.469 931.72 444.487c0-489.984 395.84-887.193 884.13-887.193s884.13 397.209 884.13 887.193zm-884.13 864.833c476 0 861.86-387.203 861.86-864.833 0-477.632-385.86-864.839-861.86-864.839S953.991-33.145 953.991 444.487c0 477.63 385.859 864.833 861.859 864.833zm0 1.13c476.61 0 862.98-387.706 862.98-865.963 0-478.26-386.37-865.965-862.98-865.965S952.875-33.772 952.875 444.487c0 478.257 386.365 865.963 862.975 865.963zm840.71-865.965c0 465.907-376.39 843.605-840.71 843.605-464.31 0-840.703-377.698-840.703-843.605 0-465.907 376.393-843.607 840.703-843.607 464.32 0 840.71 377.7 840.71 843.607zm1.11 0c0 466.534-376.89 844.735-841.82 844.735-464.92 0-841.819-378.201-841.819-844.735 0-466.533 376.899-844.733 841.819-844.733 464.93 0 841.82 378.2 841.82 844.733zm-841.82 822.385c452.63 0 819.55-368.201 819.55-822.385 0-454.182-366.92-822.379-819.55-822.379-452.63 0-819.548 368.197-819.548 822.379 0 454.184 366.918 822.385 819.548 822.385zm0 1.12c453.24 0 820.67-368.694 820.67-823.505 0-454.81-367.43-823.505-820.67-823.505-453.24 0-820.664 368.695-820.664 823.505 0 454.811 367.424 823.505 820.664 823.505zm798.39-823.503c0 442.457-357.44 801.153-798.39 801.153-440.94 0-798.39-358.696-798.39-801.153 0-442.46 357.45-801.153 798.39-801.153 440.95 0 798.39 358.694 798.39 801.153zm1.12 0c0 443.084-357.95 802.273-799.51 802.273s-799.51-359.189-799.51-802.273c0-443.087 357.95-802.278 799.51-802.278S2615.36 1.4 2615.36 444.487zm-799.51 781.693c430.24 0 779-349.984 779-781.693 0-431.711-348.76-781.692-779-781.692-430.23 0-779 349.98-779 781.692 0 431.709 348.77 781.693 779 781.693zm0 1.12c430.85 0 780.12-350.477 780.12-782.813 0-432.339-349.27-782.818-780.12-782.818s-780.11 350.48-780.11 782.818c0 432.336 349.26 782.813 780.11 782.813zm757.85-782.815c0 419.988-339.3 760.465-757.85 760.465s-757.84-340.477-757.84-760.465c0-419.986 339.29-760.462 757.84-760.462S2573.7 24.499 2573.7 444.485zm1.11 0c0 420.614-339.8 761.585-758.96 761.585s-758.96-340.971-758.96-761.585c0-420.612 339.8-761.588 758.96-761.588s758.96 340.976 758.96 761.588zm-758.96 739.235c406.87 0 736.69-330.972 736.69-739.235 0-408.261-329.82-739.232-736.69-739.232-406.87 0-736.69 330.97-736.69 739.232 0 408.263 329.82 739.235 736.69 739.235zm0 1.12c407.48 0 737.81-331.465 737.81-740.355 0-408.888-330.33-740.358-737.81-740.358-407.48 0-737.8 331.47-737.8 740.358 0 408.89 330.32 740.355 737.8 740.355zm715.53-740.353c0 396.536-320.35 718.003-715.53 718.003-395.18 0-715.53-321.467-715.53-718.003 0-396.539 320.35-718.006 715.53-718.006 395.18 0 715.53 321.467 715.53 718.006zm1.12 0c0 397.164-320.85 719.133-716.65 719.133-395.79 0-716.65-321.969-716.65-719.133 0-397.166 320.86-719.132 716.65-719.132 395.8 0 716.65 321.966 716.65 719.132zm-716.65 698.543c384.47 0 696.14-312.755 696.14-698.543 0-385.791-311.67-698.546-696.14-698.546-384.47 0-696.14 312.755-696.14 698.546 0 385.788 311.67 698.543 696.14 698.543zm0 1.13c385.08 0 697.26-313.257 697.26-699.673 0-386.418-312.18-699.671-697.26-699.671s-697.26 313.253-697.26 699.671c0 386.416 312.18 699.673 697.26 699.673zm674.99-699.673c0 374.065-302.2 677.313-674.99 677.313s-674.98-303.248-674.98-677.313c0-374.067 302.19-677.317 674.98-677.317s674.99 303.25 674.99 677.317zm1.11 0c0 374.691-302.7 678.443-676.1 678.443-373.4 0-676.1-303.752-676.1-678.443 0-374.694 302.7-678.443 676.1-678.443 373.4 0 676.1 303.75 676.1 678.443zm-676.1 656.083c361.11 0 653.83-293.743 653.83-656.083 0-362.342-292.72-656.087-653.83-656.087-361.1 0-653.83 293.745-653.83 656.087 0 362.34 292.73 656.083 653.83 656.083zm0 1.13c361.72 0 654.95-294.245 654.95-657.213 0-362.97-293.23-657.213-654.95-657.213-361.71 0-654.94 294.243-654.94 657.213 0 362.968 293.23 657.213 654.94 657.213zm632.67-657.213c0 350.615-283.25 634.853-632.67 634.853-349.42 0-632.67-284.238-632.67-634.853 0-350.618 283.25-634.859 632.67-634.859 349.42 0 632.67 284.241 632.67 634.859zm1.12 0c0 351.243-283.76 635.983-633.79 635.983s-633.79-284.74-633.79-635.983c0-351.245 283.76-635.985 633.79-635.985s633.79 284.74 633.79 635.985zm-633.79 613.633c337.74 0 611.52-274.742 611.52-613.633 0-338.894-273.78-613.631-611.52-613.631s-611.52 274.737-611.52 613.631c0 338.891 273.78 613.633 611.52 613.633zm0 1.12c338.35 0 612.64-275.235 612.64-614.753 0-339.521-274.29-614.756-612.64-614.756-338.35 0-612.63 275.235-612.63 614.756 0 339.518 274.28 614.753 612.63 614.753zm592.13-614.753c0 328.144-265.1 594.173-592.13 594.173s-592.12-266.029-592.12-594.173c0-328.146 265.09-594.17 592.12-594.17 327.03 0 592.13 266.024 592.13 594.17zm1.11 0c0 328.77-265.6 595.293-593.24 595.293s-593.24-266.523-593.24-595.293c0-328.773 265.6-595.296 593.24-595.296s593.24 266.523 593.24 595.296zm-593.24 572.943c315.34 0 570.97-256.523 570.97-572.943 0-316.422-255.63-572.941-570.97-572.941-315.34 0-570.97 256.519-570.97 572.941 0 316.42 255.63 572.943 570.97 572.943zm0 1.12c315.96 0 572.09-257.016 572.09-574.063 0-317.049-256.13-574.066-572.09-574.066-315.95 0-572.08 257.017-572.08 574.066 0 317.047 256.13 574.063 572.08 574.063zm549.82-574.063c0 304.695-246.16 551.71-549.82 551.71-303.66 0-549.81-247.015-549.81-551.71 0-304.697 246.15-551.712 549.81-551.712 303.66 0 549.82 247.015 549.82 551.712zm1.11 0c0 305.322-246.66 552.836-550.93 552.836s-550.93-247.514-550.93-552.836c0-305.324 246.66-552.838 550.93-552.838s550.93 247.514 550.93 552.838zm-550.93 530.482c291.98 0 528.66-237.511 528.66-530.482 0-292.973-236.68-530.484-528.66-530.484-291.97 0-528.66 237.511-528.66 530.484 0 292.971 236.69 530.482 528.66 530.482zm0 1.125c292.59 0 529.78-238.01 529.78-531.607 0-293.6-237.19-531.61-529.78-531.61s-529.77 238.01-529.77 531.61c0 293.597 237.18 531.607 529.77 531.607zm507.5-531.607c0 281.247-227.21 509.252-507.5 509.252-280.29 0-507.5-228.005-507.5-509.252 0-281.249 227.21-509.254 507.5-509.254 280.29 0 507.5 228.005 507.5 509.254zm1.12 0c0 281.874-227.72 510.377-508.62 510.377s-508.62-228.503-508.62-510.377c0-281.876 227.72-510.38 508.62-510.38s508.62 228.504 508.62 510.38zM1815.85 934.28c269.58 0 488.11-219.294 488.11-489.793 0-270.501-218.53-489.795-488.11-489.795-269.58 0-488.11 219.294-488.11 489.795 0 270.499 218.53 489.793 488.11 489.793zm0 1.126c270.19 0 489.23-219.793 489.23-490.919 0-271.128-219.04-490.92-489.23-490.92-270.19 0-489.22 219.792-489.22 490.92 0 271.126 219.03 490.919 489.22 490.919zm466.96-490.919c0 258.774-209.06 468.563-466.96 468.563S1348.9 703.261 1348.9 444.487c0-258.777 209.05-468.565 466.95-468.565s466.96 209.788 466.96 468.565zm1.11 0c0 259.401-209.56 469.689-468.07 469.689s-468.07-210.288-468.07-469.689c0-259.404 209.56-469.691 468.07-469.691s468.07 210.287 468.07 469.691zm-468.07 447.335c246.21 0 445.8-200.284 445.8-447.335 0-247.052-199.59-447.337-445.8-447.337s-445.8 200.285-445.8 447.337c0 247.051 199.59 447.335 445.8 447.335zm0 1.125c246.83 0 446.92-200.783 446.92-448.46 0-247.679-200.09-448.463-446.92-448.463-246.82 0-446.91 200.784-446.91 448.463 0 247.677 200.09 448.46 446.91 448.46zm424.64-448.46c0 235.326-190.11 426.105-424.64 426.105-234.53 0-424.64-190.779-424.64-426.105 0-235.328 190.11-426.107 424.64-426.107 234.53 0 424.64 190.779 424.64 426.107zm1.12 0c0 235.953-190.62 427.231-425.76 427.231s-425.76-191.278-425.76-427.231c0-235.955 190.62-427.233 425.76-427.233s425.76 191.278 425.76 427.233zm-425.76 404.877c222.85 0 403.49-181.276 403.49-404.877 0-223.603-180.64-404.879-403.49-404.879-222.84 0-403.49 181.276-403.49 404.879 0 223.601 180.65 404.877 403.49 404.877zm0 1.125c223.46 0 404.6-181.774 404.6-406.002 0-224.231-181.14-406.005-404.6-406.005-223.45 0-404.6 181.774-404.6 406.005 0 224.228 181.15 406.002 404.6 406.002zm384.1-406.002c0 212.853-171.96 385.416-384.1 385.416-212.13 0-384.09-172.563-384.09-385.416 0-212.856 171.96-385.419 384.09-385.419 212.14 0 384.1 172.563 384.1 385.419zm1.11 0c0 213.481-172.46 386.542-385.21 386.542-212.74 0-385.21-173.061-385.21-386.542 0-213.483 172.47-386.545 385.21-386.545 212.75 0 385.21 173.062 385.21 386.545zm-385.21 364.188c200.45 0 362.94-163.058 362.94-364.188 0-201.132-162.49-364.19-362.94-364.19s-362.94 163.058-362.94 364.19c0 201.13 162.49 364.188 362.94 364.188zm0 1.126c201.06 0 364.05-163.558 364.05-365.314 0-201.759-162.99-365.316-364.05-365.316S1451.8 242.728 1451.8 444.487c0 201.756 162.99 365.314 364.05 365.314zm341.78-365.314c0 189.405-153.01 342.96-341.78 342.96-188.77 0-341.78-153.555-341.78-342.96 0-189.407 153.01-342.961 341.78-342.961 188.77 0 341.78 153.554 341.78 342.961zm1.12 0c0 190.033-153.52 344.085-342.9 344.085-189.38 0-342.9-154.052-342.9-344.085 0-190.034 153.52-344.087 342.9-344.087 189.38 0 342.9 154.053 342.9 344.087zm-342.9 321.73c177.08 0 320.63-144.05 320.63-321.73 0-177.683-143.55-321.732-320.63-321.732-177.08 0-320.63 144.049-320.63 321.732 0 177.68 143.55 321.73 320.63 321.73zm0 1.125c177.69 0 321.74-144.547 321.74-322.855 0-178.31-144.05-322.858-321.74-322.858s-321.74 144.548-321.74 322.858c0 178.308 144.05 322.855 321.74 322.855zm299.47-322.855c0 165.956-134.07 300.501-299.47 300.501-165.4 0-299.47-134.545-299.47-300.501 0-165.958 134.07-300.503 299.47-300.503 165.4 0 299.47 134.545 299.47 300.503zm1.12 0c0 166.583-134.58 301.627-300.59 301.627-166.01 0-300.59-135.044-300.59-301.627 0-166.586 134.58-301.629 300.59-301.629 166.01 0 300.59 135.043 300.59 301.629zm-300.59 281.041c154.69 0 280.08-125.832 280.08-281.043 0-155.209-125.39-281.042-280.08-281.042s-280.08 125.833-280.08 281.042c0 155.211 125.39 281.043 280.08 281.043zm0 1.126c155.3 0 281.2-126.332 281.2-282.169 0-155.836-125.9-282.167-281.2-282.167-155.3 0-281.19 126.331-281.19 282.167 0 155.837 125.89 282.169 281.19 282.169zm258.92-282.169c0 143.486-115.91 259.815-258.92 259.815-143 0-258.92-116.329-258.92-259.815 0-143.485 115.92-259.813 258.92-259.813 143.01 0 258.92 116.328 258.92 259.813zm1.12 0c0 144.114-116.42 260.94-260.04 260.94-143.61 0-260.04-116.826-260.04-260.94 0-144.112 116.43-260.938 260.04-260.938 143.62 0 260.04 116.826 260.04 260.938zM1815.85 683.07c131.32 0 237.77-106.823 237.77-238.583 0-131.762-106.45-238.586-237.77-238.586s-237.77 106.824-237.77 238.586c0 131.76 106.45 238.583 237.77 238.583zm0 1.125c131.93 0 238.88-107.321 238.88-239.708 0-132.389-106.95-239.711-238.88-239.711s-238.88 107.322-238.88 239.711c0 132.387 106.95 239.708 238.88 239.708zm216.61-239.708c0 120.035-96.97 217.354-216.61 217.354-119.64 0-216.61-97.319-216.61-217.354 0-120.038 96.97-217.357 216.61-217.357 119.64 0 216.61 97.319 216.61 217.357zm1.12 0c0 120.662-97.48 218.48-217.73 218.48-120.25 0-217.73-97.818-217.73-218.48 0-120.665 97.48-218.482 217.73-218.482 120.25 0 217.73 97.817 217.73 218.482zm-217.73 197.894c108.93 0 197.22-88.605 197.22-197.896 0-109.289-88.29-197.895-197.22-197.895-108.92 0-197.22 88.606-197.22 197.895 0 109.291 88.3 197.896 197.22 197.896zm0 1.126c109.54 0 198.34-89.106 198.34-199.022s-88.8-199.021-198.34-199.021-198.33 89.105-198.33 199.021c0 109.916 88.79 199.022 198.33 199.022zm176.06-199.02c0 97.564-78.82 176.666-176.06 176.666-97.24 0-176.06-79.102-176.06-176.666 0-97.566 78.82-176.668 176.06-176.668 97.24 0 176.06 79.102 176.06 176.668zm1.12 0c0 98.191-79.33 177.791-177.18 177.791-97.85 0-177.18-79.6-177.18-177.791 0-98.193 79.33-177.794 177.18-177.794 97.85 0 177.18 79.601 177.18 177.794zm-177.18 155.436c85.56 0 154.91-69.597 154.91-155.436 0-85.841-69.35-155.439-154.91-155.439s-154.91 69.598-154.91 155.439c0 85.839 69.35 155.436 154.91 155.436zm0 1.126c86.17 0 156.03-70.096 156.03-156.562 0-86.469-69.86-156.565-156.03-156.565s-156.02 70.096-156.02 156.565c0 86.466 69.85 156.562 156.02 156.562zm133.75-156.562c0 74.116-59.88 134.208-133.75 134.208s-133.75-60.092-133.75-134.208c0-74.117 59.88-134.21 133.75-134.21s133.75 60.093 133.75 134.21zm1.12 0c0 74.742-60.38 135.333-134.87 135.333-74.48 0-134.87-60.591-134.87-135.333 0-74.744 60.39-135.336 134.87-135.336 74.49 0 134.87 60.592 134.87 135.336zm-134.87 112.979c62.19 0 112.6-50.588 112.6-112.979 0-62.393-50.41-112.982-112.6-112.982s-112.59 50.589-112.59 112.982c0 62.391 50.4 112.979 112.59 112.979zm0 1.126c62.8 0 113.71-51.087 113.71-114.105 0-63.021-50.91-114.107-113.71-114.107s-113.71 51.086-113.71 114.107c0 63.018 50.91 114.105 113.71 114.105zm50.89-114.105c0 28.195-22.78 51.061-50.89 51.061s-50.89-22.866-50.89-51.061c0-28.196 22.78-51.063 50.89-51.063s50.89 22.867 50.89 51.063zm1.12 0c0 28.821-23.29 52.186-52.01 52.186s-52.01-23.365-52.01-52.186c0-28.823 23.29-52.189 52.01-52.189s52.01 23.366 52.01 52.189zm-52.01 29.832c16.43 0 29.74-13.362 29.74-29.834 0-16.471-13.31-29.833-29.74-29.833s-29.74 13.362-29.74 29.833c0 16.472 13.31 29.834 29.74 29.834zm0 1.126c17.04 0 30.85-13.861 30.85-30.96 0-17.098-13.81-30.959-30.85-30.959S1785 427.387 1785 444.485c0 17.099 13.81 30.96 30.85 30.96zm8.58-30.958c0 4.745-3.83 8.603-8.58 8.603-4.74 0-8.58-3.858-8.58-8.603 0-4.748 3.84-8.605 8.58-8.605 4.75 0 8.58 3.857 8.58 8.605zm1.12 0c0 5.373-4.34 9.728-9.7 9.728-5.35 0-9.7-4.355-9.7-9.728 0-5.375 4.35-9.731 9.7-9.731 5.36 0 9.7 4.356 9.7 9.731zm-9.7 93.519c51.48 0 93.2-41.876 93.2-93.519 0-51.645-41.72-93.521-93.2-93.521-51.48 0-93.2 41.876-93.2 93.521 0 51.643 41.72 93.519 93.2 93.519zm0 1.126c52.09 0 94.32-42.375 94.32-94.645 0-52.273-42.23-94.647-94.32-94.647-52.09 0-94.32 42.374-94.32 94.647 0 52.27 42.23 94.645 94.32 94.645zm72.05-94.645c0 39.918-32.25 72.291-72.05 72.291-39.79 0-72.05-32.373-72.05-72.291 0-39.921 32.26-72.291 72.05-72.291 39.8 0 72.05 32.37 72.05 72.291zm1.12 0c0 40.546-32.76 73.416-73.17 73.416-40.41 0-73.16-32.87-73.16-73.416 0-40.548 32.75-73.417 73.16-73.417s73.17 32.869 73.17 73.417z" fill="url(#paint1_linear)" fill-opacity=".8"/></g><defs><linearGradient id="paint0_linear" x1="1250" y1="0" x2="1250" y2="860" gradientUnits="userSpaceOnUse"><stop stop-color="#3462F2"/><stop offset="1" stop-color="#EFF2F4"/></linearGradient><linearGradient id="paint1_linear" x1="1228.05" y1="352.309" x2="2866.44" y2="617.917" gradientUnits="userSpaceOnUse"><stop stop-color="#fff" stop-opacity=".07"/><stop offset="1" stop-color="#fff" stop-opacity="0"/></linearGradient></defs></svg>