<svg width="2500" height="860" fill="none" xmlns="http://www.w3.org/2000/svg"><path d="M0 0h2500v860H0V0z" fill="#fff"/><g clip-path="url(#clip0)"><mask id="a" maskUnits="userSpaceOnUse" x="0" y="-1" width="2500" height="861"><path d="M2500-.042H0V860h2500V-.042z" fill="url(#paint0_linear)"/></mask><g mask="url(#a)"><path fill-rule="evenodd" clip-rule="evenodd" d="M1832.14 1482.04c579.21 0 1048.74-470.62 1048.74-1051.136 0-580.522-469.53-1051.138-1048.74-1051.138-579.2 0-1048.732 470.616-1048.732 1051.138 0 580.516 469.532 1051.136 1048.732 1051.136zm0 1.12c579.82 0 1049.85-471.11 1049.85-1052.256 0-581.149-470.03-1052.262-1049.85-1052.262-579.81 0-1049.848 471.113-1049.848 1052.262 0 581.146 470.038 1052.256 1049.848 1052.256zm0-22.32c567.53 0 1027.58-461.127 1027.58-1029.936 0-568.811-460.05-1029.934-1027.58-1029.934-567.52 0-1027.576 461.123-1027.576 1029.934 0 568.809 460.056 1029.936 1027.576 1029.936zm0 1.12c568.14 0 1028.69-461.62 1028.69-1031.056 0-569.438-460.55-1031.058-1028.69-1031.058-568.13 0-1028.692 461.62-1028.692 1031.058 0 569.436 460.562 1031.056 1028.692 1031.056zM2838.57 430.904c0 557.099-450.59 1008.726-1006.43 1008.726-555.83 0-1006.421-451.627-1006.421-1008.726 0-557.1 450.591-1008.729 1006.421-1008.729 555.84 0 1006.43 451.629 1006.43 1008.729zm1.12 0c0 557.725-451.1 1009.846-1007.55 1009.846-556.45 0-1007.537-452.121-1007.537-1009.846 0-557.727 451.087-1009.853 1007.537-1009.853S2839.69-126.823 2839.69 430.904zM1832.14 1420.19c545.13 0 987.03-442.922 987.03-989.286 0-546.366-441.9-989.293-987.03-989.293-545.12 0-987.028 442.927-987.028 989.293 0 546.364 441.908 989.286 987.028 989.286zm0 1.13c545.74 0 988.14-443.425 988.14-990.416s-442.4-990.417-988.14-990.417-988.144 443.426-988.144 990.417S1286.4 1421.32 1832.14 1421.32zm965.88-990.416c0 534.653-432.43 968.086-965.88 968.086-533.44 0-965.872-433.433-965.872-968.086 0-534.655 432.432-968.087 965.872-968.087 533.45 0 965.88 433.432 965.88 968.087zm1.12 0c0 535.28-432.94 969.206-967 969.206-534.05 0-966.988-433.926-966.988-969.206 0-535.282 432.938-969.212 966.988-969.212 534.06 0 967 433.93 967 969.212zm-967 946.886c521.76 0 944.72-423.944 944.72-946.886 0-522.944-422.96-946.884-944.72-946.884S887.423-92.04 887.423 430.904c0 522.942 422.957 946.886 944.717 946.886zm0 1.12c522.37 0 945.84-424.438 945.84-948.006 0-523.57-423.47-948.008-945.84-948.008S886.307-92.667 886.307 430.904c0 523.568 423.463 948.006 945.833 948.006zm923.56-948.008c0 511.233-413.48 925.678-923.56 925.678-510.07 0-923.561-414.445-923.561-925.678 0-511.23 413.491-925.677 923.561-925.677 510.08 0 923.56 414.446 923.56 925.677zm1.12 0c0 511.859-413.99 926.798-924.68 926.798-510.68 0-924.677-414.939-924.677-926.798 0-511.858 413.997-926.801 924.677-926.801 510.69 0 924.68 414.943 924.68 926.801zm-924.68 904.478c498.39 0 902.41-404.955 902.41-904.476 0-499.523-404.02-904.475-902.41-904.475S929.735-68.619 929.735 430.904c0 499.521 404.015 904.476 902.405 904.476zm0 1.12c499.01 0 903.53-405.448 903.53-905.596 0-500.15-404.52-905.599-903.53-905.599-499 0-903.521 405.45-903.521 905.599 0 500.148 404.521 905.596 903.521 905.596zm883.02-905.596c0 488.786-395.34 885.036-883.02 885.036S949.128 919.69 949.128 430.904c0-488.788 395.332-885.037 883.012-885.037 487.68 0 883.02 396.25 883.02 885.037zm1.11 0c0 489.412-395.84 886.156-884.13 886.156S948.012 920.316 948.012 430.904c0-489.414 395.838-886.162 884.128-886.162s884.13 396.748 884.13 886.162zm-884.13 863.836c476 0 861.86-386.761 861.86-863.836 0-477.077-385.86-863.834-861.86-863.834-475.99 0-861.857 386.757-861.857 863.834 0 477.075 385.867 863.836 861.857 863.836zm0 1.12c476.61 0 862.98-387.255 862.98-864.956 0-477.703-386.37-864.958-862.98-864.958S969.167-46.799 969.167 430.904c0 477.701 386.363 864.956 862.973 864.956zm840.71-864.958c0 465.365-376.39 842.628-840.71 842.628-464.31 0-840.701-377.263-840.701-842.628 0-465.365 376.391-842.626 840.701-842.626 464.32 0 840.71 377.26 840.71 842.626zm1.11 0c0 465.992-376.89 843.748-841.82 843.748-464.92 0-841.817-377.756-841.817-843.748 0-465.99 376.897-843.751 841.817-843.751 464.93 0 841.82 377.76 841.82 843.751zm-841.82 821.428c452.63 0 819.55-367.772 819.55-821.428 0-453.654-366.92-821.423-819.55-821.423-452.63 0-819.55 367.77-819.55 821.423 0 453.656 366.92 821.428 819.55 821.428zm0 1.12c453.24 0 820.67-368.266 820.67-822.548 0-454.28-367.43-822.547-820.67-822.547-453.24 0-820.66 368.267-820.66 822.547 0 454.282 367.42 822.548 820.66 822.548zm798.4-822.546c0 441.942-357.45 800.216-798.4 800.216-440.94 0-798.39-358.274-798.39-800.216 0-441.945 357.45-800.221 798.39-800.221 440.95 0 798.4 358.276 798.4 800.221zm1.11 0c0 442.569-357.95 801.346-799.51 801.346-441.55 0-799.51-358.777-799.51-801.346 0-442.571 357.96-801.345 799.51-801.345 441.56 0 799.51 358.774 799.51 801.345zm-799.51 780.786c430.24 0 779-349.579 779-780.786 0-431.21-348.76-780.783-779-780.783-430.23 0-779 349.574-779 780.783 0 431.207 348.77 780.786 779 780.786zm0 1.12c430.85 0 780.12-350.072 780.12-781.906 0-431.836-349.27-781.908-780.12-781.908-430.84 0-780.11 350.072-780.11 781.908 0 431.834 349.27 781.906 780.11 781.906zm757.85-781.908c0 419.499-339.3 759.578-757.85 759.578S1074.3 850.401 1074.3 430.902c0-419.498 339.29-759.578 757.84-759.578s757.85 340.08 757.85 759.578zm1.11 0c0 420.125-339.79 760.708-758.96 760.708-419.16 0-758.96-340.583-758.96-760.708 0-420.123 339.8-760.702 758.96-760.702 419.17 0 758.96 340.58 758.96 760.702zm-758.96 738.378c406.87 0 736.69-330.59 736.69-738.378 0-407.786-329.82-738.373-736.69-738.373-406.86 0-736.69 330.587-736.69 738.373 0 407.788 329.83 738.378 736.69 738.378zm0 1.12c407.48 0 737.81-331.083 737.81-739.498 0-408.413-330.33-739.497-737.81-739.497-407.47 0-737.8 331.084-737.8 739.497 0 408.415 330.33 739.498 737.8 739.498zm715.54-739.496c0 396.075-320.35 717.166-715.54 717.166-395.18 0-715.53-321.091-715.53-717.166 0-396.077 320.35-717.171 715.53-717.171 395.19 0 715.54 321.094 715.54 717.171zm1.11 0c0 396.702-320.85 718.296-716.65 718.296-395.79 0-716.65-321.594-716.65-718.296 0-396.704 320.86-718.295 716.65-718.295 395.8 0 716.65 321.591 716.65 718.295zm-716.65 697.736c384.48 0 696.14-312.396 696.14-697.736 0-385.343-311.66-697.733-696.14-697.733-384.47 0-696.14 312.39-696.14 697.733 0 385.34 311.67 697.736 696.14 697.736zm0 1.12c385.09 0 697.26-312.889 697.26-698.856 0-385.969-312.17-698.858-697.26-698.858-385.08 0-697.25 312.889-697.25 698.858 0 385.967 312.17 698.856 697.25 698.856zm674.99-698.856c0 373.63-302.2 676.526-674.99 676.526s-674.98-302.896-674.98-676.526c0-373.632 302.19-676.53 674.98-676.53s674.99 302.898 674.99 676.53zm1.11 0c0 374.255-302.7 677.656-676.1 677.656-373.4 0-676.1-303.401-676.1-677.656 0-374.258 302.7-677.654 676.1-677.654 373.4 0 676.1 303.396 676.1 677.654zm-676.1 655.326c361.11 0 653.83-293.407 653.83-655.326 0-361.921-292.72-655.324-653.83-655.324-361.1 0-653.83 293.403-653.83 655.324 0 361.919 292.73 655.326 653.83 655.326zm0 1.12c361.72 0 654.95-293.9 654.95-656.446 0-362.547-293.23-656.449-654.95-656.449-361.71 0-654.94 293.902-654.94 656.449 0 362.546 293.23 656.446 654.94 656.446zm632.68-656.446c0 350.208-283.26 634.116-632.68 634.116-349.42 0-632.67-283.908-632.67-634.116 0-350.21 283.25-634.121 632.67-634.121 349.42 0 632.68 283.91 632.68 634.121zm1.11 0c0 350.835-283.75 635.246-633.79 635.246-350.03 0-633.79-284.411-633.79-635.246 0-350.837 283.76-635.245 633.79-635.245 350.04 0 633.79 284.408 633.79 635.245zm-633.79 612.916c337.74 0 611.52-274.419 611.52-612.916 0-338.5-273.78-612.917-611.52-612.917-337.73 0-611.51 274.417-611.51 612.917 0 338.497 273.78 612.916 611.51 612.916zm0 1.12c338.35 0 612.64-274.913 612.64-614.036 0-339.126-274.29-614.041-612.64-614.041-338.35 0-612.63 274.915-612.63 614.041 0 339.123 274.28 614.036 612.63 614.036zm592.13-614.036c0 327.763-265.1 593.476-592.13 593.476-327.02 0-592.12-265.713-592.12-593.476 0-327.765 265.1-593.479 592.12-593.479 327.03 0 592.13 265.714 592.13 593.479zm1.11 0c0 328.388-265.6 594.606-593.24 594.606S1238.9 759.292 1238.9 430.904c0-328.391 265.6-594.604 593.24-594.604s593.24 266.213 593.24 594.604zm-593.24 572.276c315.35 0 570.97-256.224 570.97-572.276 0-316.054-255.62-572.274-570.97-572.274-315.34 0-570.97 256.22-570.97 572.274 0 316.052 255.63 572.276 570.97 572.276zm0 1.12c315.96 0 572.09-256.718 572.09-573.396 0-316.68-256.13-573.399-572.09-573.399-315.95 0-572.08 256.719-572.08 573.399 0 316.678 256.13 573.396 572.08 573.396zm549.82-573.396c0 304.341-246.16 551.069-549.82 551.069-303.66 0-549.81-246.728-549.81-551.069 0-304.343 246.15-551.071 549.81-551.071 303.66 0 549.82 246.728 549.82 551.071zm1.11 0c0 304.967-246.66 552.193-550.93 552.193s-550.93-247.226-550.93-552.193c0-304.969 246.66-552.195 550.93-552.195s550.93 247.226 550.93 552.195zm-550.93 529.865c291.98 0 528.66-237.234 528.66-529.865 0-292.632-236.68-529.867-528.66-529.867-291.97 0-528.65 237.235-528.65 529.867 0 292.631 236.68 529.865 528.65 529.865zm0 1.124c292.59 0 529.78-237.733 529.78-530.989 0-293.258-237.19-530.991-529.78-530.991-292.58 0-529.77 237.733-529.77 530.991 0 293.256 237.19 530.989 529.77 530.989zm507.5-530.989c0 280.92-227.21 508.66-507.5 508.66-280.29 0-507.5-227.74-507.5-508.66 0-280.921 227.21-508.662 507.5-508.662 280.29 0 507.5 227.741 507.5 508.662zm1.12 0c0 281.546-227.72 509.784-508.62 509.784s-508.62-228.238-508.62-509.784c0-281.548 227.72-509.786 508.62-509.786s508.62 228.238 508.62 509.786zm-508.62 489.223c269.58 0 488.11-219.039 488.11-489.223 0-270.187-218.53-489.226-488.11-489.226-269.58 0-488.11 219.039-488.11 489.226 0 270.184 218.53 489.223 488.11 489.223zm0 1.125c270.19 0 489.23-219.537 489.23-490.348 0-270.813-219.04-490.35-489.23-490.35-270.19 0-489.22 219.537-489.22 490.35 0 270.811 219.03 490.348 489.22 490.348zm466.96-490.348c0 258.473-209.06 468.018-466.96 468.018-257.89 0-466.95-209.545-466.95-468.018 0-258.476 209.06-468.02 466.95-468.02 257.9 0 466.96 209.544 466.96 468.02zm1.11 0c0 259.1-209.56 469.143-468.07 469.143-258.5 0-468.07-210.043-468.07-469.143 0-259.102 209.57-469.145 468.07-469.145 258.51 0 468.07 210.043 468.07 469.145zm-468.07 446.815c246.22 0 445.8-200.051 445.8-446.815 0-246.765-199.58-446.817-445.8-446.817-246.21 0-445.79 200.052-445.79 446.817 0 246.764 199.58 446.815 445.79 446.815zm0 1.124c246.83 0 446.92-200.55 446.92-447.939 0-247.391-200.09-447.941-446.92-447.941-246.82 0-446.91 200.55-446.91 447.941 0 247.389 200.09 447.939 446.91 447.939zm424.64-447.939c0 235.052-190.11 425.61-424.64 425.61-234.53 0-424.64-190.558-424.64-425.61 0-235.054 190.11-425.612 424.64-425.612 234.53 0 424.64 190.558 424.64 425.612zm1.12 0c0 235.679-190.62 426.734-425.76 426.734s-425.76-191.055-425.76-426.734c0-235.681 190.62-426.736 425.76-426.736s425.76 191.055 425.76 426.736zM1832.14 835.31c222.85 0 403.49-181.065 403.49-404.406 0-223.343-180.64-404.408-403.49-404.408-222.84 0-403.48 181.065-403.48 404.408 0 223.341 180.64 404.406 403.48 404.406zm0 1.124c223.46 0 404.61-181.562 404.61-405.53 0-223.97-181.15-405.532-404.61-405.532-223.45 0-404.6 181.562-404.6 405.532 0 223.968 181.15 405.53 404.6 405.53zm384.1-405.53c0 212.606-171.96 384.968-384.1 384.968-212.13 0-384.09-172.362-384.09-384.968 0-212.609 171.96-384.97 384.09-384.97 212.14 0 384.1 172.361 384.1 384.97zm1.11 0c0 213.233-172.46 386.092-385.21 386.092-212.74 0-385.21-172.859-385.21-386.092 0-213.235 172.47-386.095 385.21-386.095 212.75 0 385.21 172.86 385.21 386.095zm-385.21 363.764c200.45 0 362.94-162.868 362.94-363.764 0-200.898-162.49-363.767-362.94-363.767s-362.93 162.869-362.93 363.767c0 200.896 162.48 363.764 362.93 363.764zm0 1.125c201.06 0 364.06-163.368 364.06-364.889 0-201.524-163-364.89-364.06-364.89s-364.05 163.366-364.05 364.89c0 201.521 162.99 364.889 364.05 364.889zm341.79-364.889c0 189.185-153.02 342.561-341.79 342.561-188.76 0-341.78-153.376-341.78-342.561 0-189.187 153.02-342.562 341.78-342.562 188.77 0 341.79 153.375 341.79 342.562zm1.11 0c0 189.812-153.52 343.685-342.9 343.685-189.38 0-342.9-153.873-342.9-343.685 0-189.813 153.52-343.687 342.9-343.687 189.38 0 342.9 153.874 342.9 343.687zm-342.9 321.356c177.09 0 320.63-143.882 320.63-321.356 0-177.476-143.54-321.358-320.63-321.358-177.08 0-320.62 143.882-320.62 321.358 0 177.474 143.54 321.356 320.62 321.356zm0 1.124c177.7 0 321.75-144.379 321.75-322.48 0-178.102-144.05-322.482-321.75-322.482-177.69 0-321.74 144.38-321.74 322.482 0 178.101 144.05 322.48 321.74 322.48zm299.47-322.48c0 165.763-134.07 300.152-299.47 300.152-165.4 0-299.47-134.389-299.47-300.152 0-165.765 134.07-300.154 299.47-300.154 165.4 0 299.47 134.389 299.47 300.154zm1.12 0c0 166.389-134.58 301.276-300.59 301.276-166.01 0-300.58-134.887-300.58-301.276 0-166.392 134.57-301.278 300.58-301.278s300.59 134.886 300.59 301.278zm-300.59 280.714c154.69 0 280.08-125.685 280.08-280.716 0-155.029-125.39-280.715-280.08-280.715s-280.08 125.686-280.08 280.715c0 155.031 125.39 280.716 280.08 280.716zm0 1.125c155.3 0 281.2-126.185 281.2-281.841 0-155.655-125.9-281.839-281.2-281.839-155.3 0-281.19 126.184-281.19 281.839 0 155.656 125.89 281.841 281.19 281.841zm258.93-281.841c0 143.32-115.92 259.513-258.93 259.513-143 0-258.92-116.193-258.92-259.513 0-143.318 115.92-259.51 258.92-259.51 143.01 0 258.93 116.192 258.93 259.51zm1.11 0c0 143.946-116.42 260.637-260.04 260.637-143.61 0-260.04-116.691-260.04-260.637 0-143.944 116.43-260.635 260.04-260.635 143.62 0 260.04 116.691 260.04 260.635zm-260.04 238.307c131.32 0 237.77-106.698 237.77-238.305 0-131.609-106.45-238.308-237.77-238.308s-237.76 106.699-237.76 238.308c0 131.607 106.44 238.305 237.76 238.305zm0 1.125c131.93 0 238.89-107.197 238.89-239.43 0-132.235-106.96-239.432-238.89-239.432s-238.88 107.197-238.88 239.432c0 132.233 106.95 239.43 238.88 239.43zm216.61-239.43c0 119.895-96.97 217.102-216.61 217.102-119.63 0-216.61-97.207-216.61-217.102 0-119.898 96.98-217.104 216.61-217.104 119.64 0 216.61 97.206 216.61 217.104zm1.12 0c0 120.522-97.48 218.226-217.73 218.226-120.24 0-217.72-97.704-217.72-218.226 0-120.524 97.48-218.228 217.72-218.228 120.25 0 217.73 97.704 217.73 218.228zm-217.73 197.664c108.93 0 197.22-88.502 197.22-197.666 0-109.162-88.29-197.665-197.22-197.665-108.92 0-197.22 88.503-197.22 197.665 0 109.164 88.3 197.666 197.22 197.666zm0 1.125c109.54 0 198.34-89.002 198.34-198.791 0-109.788-88.8-198.789-198.34-198.789-109.53 0-198.33 89.001-198.33 198.789 0 109.789 88.8 198.791 198.33 198.791zm176.07-198.789c0 97.45-78.82 176.46-176.07 176.46-97.24 0-176.06-79.01-176.06-176.46 0-97.453 78.82-176.462 176.06-176.462 97.25 0 176.07 79.009 176.07 176.462zm1.11 0c0 98.077-79.32 177.585-177.18 177.585-97.85 0-177.18-79.508-177.18-177.585 0-98.079 79.33-177.587 177.18-177.587 97.86 0 177.18 79.508 177.18 177.587zm-177.18 155.255c85.56 0 154.91-69.516 154.91-155.255 0-85.741-69.35-155.258-154.91-155.258s-154.9 69.517-154.9 155.258c0 85.739 69.34 155.255 154.9 155.255zm0 1.125c86.17 0 156.03-70.014 156.03-156.38 0-86.368-69.86-156.382-156.03-156.382s-156.02 70.014-156.02 156.382c0 86.366 69.85 156.38 156.02 156.38zm133.75-156.38c0 74.03-59.87 134.052-133.75 134.052-73.87 0-133.75-60.022-133.75-134.052s59.88-134.054 133.75-134.054c73.88 0 133.75 60.024 133.75 134.054zm1.12 0c0 74.655-60.38 135.176-134.87 135.176-74.48 0-134.86-60.521-134.86-135.176 0-74.657 60.38-135.178 134.86-135.178 74.49 0 134.87 60.521 134.87 135.178zm-134.87 112.848c62.19 0 112.6-50.53 112.6-112.848 0-62.321-50.41-112.85-112.6-112.85s-112.59 50.529-112.59 112.85c0 62.318 50.4 112.848 112.59 112.848zm0 1.124c62.81 0 113.71-51.027 113.71-113.972 0-62.947-50.9-113.975-113.71-113.975-62.8 0-113.71 51.028-113.71 113.975 0 62.945 50.91 113.972 113.71 113.972zm50.89-113.972c0 28.162-22.78 51.001-50.89 51.001s-50.89-22.839-50.89-51.001c0-28.163 22.78-51.004 50.89-51.004s50.89 22.841 50.89 51.004zm1.12 0c0 28.787-23.28 52.126-52.01 52.126-28.72 0-52-23.339-52-52.126 0-28.79 23.28-52.128 52-52.128 28.73 0 52.01 23.338 52.01 52.128zm-52.01 29.798c16.43 0 29.74-13.347 29.74-29.8 0-16.451-13.31-29.798-29.74-29.798s-29.73 13.347-29.73 29.798c0 16.453 13.3 29.8 29.73 29.8zm0 1.124c17.04 0 30.85-13.844 30.85-30.924 0-17.078-13.81-30.922-30.85-30.922s-30.85 13.844-30.85 30.922c0 17.08 13.81 30.924 30.85 30.924zm8.58-30.922c0 4.74-3.83 8.593-8.58 8.593-4.74 0-8.58-3.853-8.58-8.593 0-4.742 3.84-8.595 8.58-8.595 4.75 0 8.58 3.853 8.58 8.595zm1.12 0c0 5.367-4.34 9.717-9.7 9.717-5.35 0-9.69-4.35-9.69-9.717 0-5.369 4.34-9.719 9.69-9.719 5.36 0 9.7 4.35 9.7 9.719zm-9.7 93.41c51.48 0 93.21-41.827 93.21-93.41 0-51.585-41.73-93.413-93.21-93.413s-93.2 41.828-93.2 93.413c0 51.583 41.72 93.41 93.2 93.41zm0 1.125c52.09 0 94.32-42.325 94.32-94.535 0-52.212-42.23-94.537-94.32-94.537-52.09 0-94.32 42.325-94.32 94.537 0 52.21 42.23 94.535 94.32 94.535zm72.05-94.535c0 39.872-32.25 72.207-72.05 72.207-39.79 0-72.04-32.335-72.04-72.207 0-39.874 32.25-72.207 72.04-72.207 39.8 0 72.05 32.333 72.05 72.207zm1.12 0c0 40.499-32.76 73.331-73.17 73.331-40.4 0-73.16-32.832-73.16-73.331 0-40.501 32.76-73.332 73.16-73.332 40.41 0 73.17 32.831 73.17 73.332z" fill="url(#paint1_linear)"/></g></g><defs><linearGradient id="paint0_linear" x1="1250" y1="-.042" x2="1250" y2="860" gradientUnits="userSpaceOnUse"><stop stop-color="#3462F2"/><stop offset="1" stop-color="#EFF2F4"/></linearGradient><linearGradient id="paint1_linear" x1="1832.14" y1="-621.358" x2="1832.14" y2="1483.16" gradientUnits="userSpaceOnUse"><stop offset=".293" stop-color="#EEE" stop-opacity=".1"/><stop offset=".494" stop-color="#EEE" stop-opacity=".47"/><stop offset=".707" stop-color="#EEE" stop-opacity=".1"/></linearGradient><clipPath id="clip0"><path fill="#fff" transform="translate(0 1)" d="M0 0h2500v859H0z"/></clipPath></defs></svg>