<svg width="286" height="300" viewBox="0 0 286 300" fill="none" xmlns="http://www.w3.org/2000/svg">
<path d="M240.25 173H235.25V190.5H240.25V173ZM255.25 173H250.25V190.5H255.25V173ZM276.5 195.5H229V200.5H276.5V195.5ZM270.25 173H265.25V190.5H270.25V173ZM252.75 156.15L265.775 163H239.725L252.75 156.15ZM252.75 150.5L229 163V168H276.5V163L252.75 150.5Z" fill="#515154"/>
<path d="M11 58C11 53.286 11 50.9289 12.4645 49.4645C13.9289 48 16.286 48 21 48H56C60.714 48 63.0711 48 64.5355 49.4645C66 50.9289 66 53.286 66 58V88H11V58Z" fill="#1D1D1F"/>
<path d="M16 57C16 55.1144 16 54.1716 16.5858 53.5858C17.1716 53 18.1144 53 20 53H57C58.8856 53 59.8284 53 60.4142 53.5858C61 54.1716 61 55.1144 61 57V88H16V57Z" fill="white"/>
<line x1="16" y1="87.5" x2="61" y2="87.5" stroke="white" stroke-width="3"/>
<path d="M19 62C19 60.1144 19 59.1716 19.5858 58.5858C20.1716 58 21.1144 58 23 58H54C55.8856 58 56.8284 58 57.4142 58.5858C58 59.1716 58 60.1144 58 62V72C58 73.8856 58 74.8284 57.4142 75.4142C56.8284 76 55.8856 76 54 76H23C21.1144 76 20.1716 76 19.5858 75.4142C19 74.8284 19 73.8856 19 72V62Z" fill="#1D1D1F"/>
<path d="M22 61H55V73H22V61Z" fill="white"/>
<line x1="19.25" y1="80.5" x2="34.8333" y2="80.5" stroke="#1D1D1F" stroke-width="3"/>
<rect x="94.5" y="1.5" width="97" height="297" rx="13.5" stroke="#3462F2" stroke-width="3" stroke-miterlimit="1.41421" stroke-dasharray="10 10"/>
<path d="M125.773 31V22.5449H127.086V31H125.773ZM128.645 31V22.5449H129.834L134.217 28.7793H134.264V22.5449H135.541V31H134.357L129.975 24.7715H129.922V31H128.645ZM140.674 31.1406C139.486 31.1406 138.545 30.748 137.85 29.9629C137.15 29.1777 136.801 28.1133 136.801 26.7695C136.801 25.4336 137.15 24.3711 137.85 23.582C138.549 22.7969 139.49 22.4043 140.674 22.4043C141.635 22.4043 142.443 22.6738 143.1 23.2129C143.764 23.7559 144.15 24.4668 144.26 25.3457H142.959C142.842 24.8027 142.576 24.3691 142.162 24.0449C141.744 23.7168 141.248 23.5527 140.674 23.5527C139.904 23.5527 139.291 23.8438 138.834 24.4258C138.373 25.0117 138.143 25.793 138.143 26.7695C138.143 27.7578 138.371 28.541 138.828 29.1191C139.285 29.7012 139.902 29.9922 140.68 29.9922C141.266 29.9922 141.76 29.8496 142.162 29.5645C142.561 29.2793 142.826 28.8809 142.959 28.3691H144.266C144.105 29.2441 143.709 29.9238 143.076 30.4082C142.447 30.8965 141.646 31.1406 140.674 31.1406ZM150.078 28.7148H146.855L146.082 31H144.717L147.77 22.5449H149.188L152.24 31H150.852L150.078 28.7148ZM147.189 27.6602H149.744L148.484 23.9512H148.449L147.189 27.6602ZM154.021 28.6445C154.068 29.0625 154.277 29.3984 154.648 29.6523C155.02 29.9062 155.484 30.0332 156.043 30.0332C156.574 30.0332 157.014 29.9102 157.361 29.6641C157.705 29.418 157.877 29.1055 157.877 28.7266C157.877 28.3984 157.754 28.1309 157.508 27.9238C157.262 27.7129 156.865 27.541 156.318 27.4082L155.223 27.1445C153.707 26.7773 152.949 26.0176 152.949 24.8652C152.949 24.1387 153.236 23.5469 153.811 23.0898C154.381 22.6328 155.119 22.4043 156.025 22.4043C156.916 22.4043 157.643 22.6328 158.205 23.0898C158.768 23.543 159.059 24.1348 159.078 24.8652H157.801C157.762 24.4473 157.58 24.1152 157.256 23.8691C156.936 23.6309 156.52 23.5117 156.008 23.5117C155.5 23.5117 155.086 23.6289 154.766 23.8633C154.449 24.0977 154.291 24.4023 154.291 24.7773C154.291 25.0742 154.41 25.3184 154.648 25.5098C154.887 25.6973 155.279 25.8594 155.826 25.9961L156.758 26.2246C157.625 26.4277 158.252 26.7148 158.639 27.0859C159.021 27.4531 159.213 27.9473 159.213 28.5684C159.213 29.3574 158.92 29.9844 158.334 30.4492C157.748 30.9102 156.953 31.1406 155.949 31.1406C155.008 31.1406 154.246 30.916 153.664 30.4668C153.078 30.0137 152.766 29.4062 152.727 28.6445H154.021Z" fill="#1D1D1F"/>
<path d="M124.406 112.158C123.215 112.158 122.271 111.764 121.576 110.975C120.877 110.186 120.527 109.117 120.527 107.77C120.527 106.434 120.879 105.369 121.582 104.576C122.281 103.783 123.223 103.387 124.406 103.387C125.336 103.387 126.129 103.645 126.785 104.16C127.438 104.68 127.834 105.361 127.975 106.205H126.656C126.52 105.705 126.248 105.305 125.842 105.004C125.432 104.703 124.953 104.553 124.406 104.553C123.637 104.553 123.023 104.844 122.566 105.426C122.105 106.012 121.875 106.793 121.875 107.77C121.875 108.758 122.104 109.541 122.561 110.119C123.018 110.701 123.635 110.992 124.412 110.992C124.975 110.992 125.453 110.861 125.848 110.6C126.238 110.338 126.508 109.971 126.656 109.498H127.975C127.791 110.338 127.389 110.99 126.768 111.455C126.143 111.924 125.355 112.158 124.406 112.158ZM131.801 106.592C131.344 106.592 130.965 106.744 130.664 107.049C130.359 107.354 130.189 107.75 130.154 108.238H133.383C133.367 107.742 133.215 107.344 132.926 107.043C132.637 106.742 132.262 106.592 131.801 106.592ZM134.59 110.137C134.5 110.707 134.201 111.174 133.693 111.537C133.186 111.896 132.574 112.076 131.859 112.076C130.938 112.076 130.207 111.785 129.668 111.203C129.133 110.625 128.865 109.838 128.865 108.842C128.865 107.846 129.133 107.049 129.668 106.451C130.203 105.854 130.916 105.555 131.807 105.555C132.682 105.555 133.375 105.838 133.887 106.404C134.398 106.967 134.654 107.73 134.654 108.695V109.141H130.148V109.217C130.148 109.768 130.307 110.209 130.623 110.541C130.939 110.877 131.359 111.045 131.883 111.045C132.254 111.045 132.574 110.963 132.844 110.799C133.113 110.635 133.291 110.414 133.377 110.137H134.59ZM139.066 105.572C139.879 105.572 140.529 105.867 141.018 106.457C141.51 107.047 141.756 107.834 141.756 108.818C141.756 109.799 141.512 110.586 141.023 111.18C140.539 111.77 139.896 112.064 139.096 112.064C138.15 112.064 137.479 111.695 137.08 110.957H137.057V114.08H135.785V105.637H137.01V106.691H137.039C137.219 106.348 137.49 106.076 137.854 105.877C138.221 105.674 138.625 105.572 139.066 105.572ZM138.744 110.986C139.26 110.986 139.674 110.789 139.986 110.395C140.299 110 140.455 109.475 140.455 108.818C140.455 108.162 140.299 107.637 139.986 107.242C139.674 106.848 139.26 106.65 138.744 106.65C138.24 106.65 137.832 106.85 137.52 107.248C137.207 107.646 137.049 108.17 137.045 108.818C137.049 109.467 137.207 109.99 137.52 110.389C137.828 110.787 138.236 110.986 138.744 110.986ZM144.146 106.568V108.256H145.418C146.164 108.256 146.537 107.973 146.537 107.406C146.537 106.848 146.209 106.568 145.553 106.568H144.146ZM144.146 109.158V111.062H145.664C146.426 111.062 146.807 110.748 146.807 110.119C146.807 109.479 146.373 109.158 145.506 109.158H144.146ZM142.898 105.637H145.799C146.412 105.637 146.896 105.781 147.252 106.07C147.604 106.359 147.779 106.754 147.779 107.254C147.779 107.586 147.676 107.883 147.469 108.145C147.262 108.41 147.006 108.572 146.701 108.631V108.678C147.107 108.732 147.436 108.895 147.686 109.164C147.936 109.438 148.061 109.771 148.061 110.166C148.061 110.729 147.861 111.174 147.463 111.502C147.061 111.834 146.516 112 145.828 112H142.898V105.637ZM151.887 106.592C151.43 106.592 151.051 106.744 150.75 107.049C150.445 107.354 150.275 107.75 150.24 108.238H153.469C153.453 107.742 153.301 107.344 153.012 107.043C152.723 106.742 152.348 106.592 151.887 106.592ZM154.676 110.137C154.586 110.707 154.287 111.174 153.779 111.537C153.271 111.896 152.66 112.076 151.945 112.076C151.023 112.076 150.293 111.785 149.754 111.203C149.219 110.625 148.951 109.838 148.951 108.842C148.951 107.846 149.219 107.049 149.754 106.451C150.289 105.854 151.002 105.555 151.893 105.555C152.768 105.555 153.461 105.838 153.973 106.404C154.484 106.967 154.74 107.73 154.74 108.695V109.141H150.234V109.217C150.234 109.768 150.393 110.209 150.709 110.541C151.025 110.877 151.445 111.045 151.969 111.045C152.34 111.045 152.66 110.963 152.93 110.799C153.199 110.635 153.377 110.414 153.463 110.137H154.676ZM159.152 105.572C159.965 105.572 160.615 105.867 161.104 106.457C161.596 107.047 161.842 107.834 161.842 108.818C161.842 109.799 161.598 110.586 161.109 111.18C160.625 111.77 159.982 112.064 159.182 112.064C158.236 112.064 157.564 111.695 157.166 110.957H157.143V114.08H155.871V105.637H157.096V106.691H157.125C157.305 106.348 157.576 106.076 157.939 105.877C158.307 105.674 158.711 105.572 159.152 105.572ZM158.83 110.986C159.346 110.986 159.76 110.789 160.072 110.395C160.385 110 160.541 109.475 160.541 108.818C160.541 108.162 160.385 107.637 160.072 107.242C159.76 106.848 159.346 106.65 158.83 106.65C158.326 106.65 157.918 106.85 157.605 107.248C157.293 107.646 157.135 108.17 157.131 108.818C157.135 109.467 157.293 109.99 157.605 110.389C157.914 110.787 158.322 110.986 158.83 110.986Z" fill="#1D1D1F"/>
<path d="M113.855 275.416C113.855 276.182 113.598 276.805 113.082 277.285C112.562 277.762 111.893 278 111.072 278H107.855V269.545H113.035V270.676H109.168V272.844H111.043C111.871 272.844 112.547 273.082 113.07 273.559C113.594 274.035 113.855 274.654 113.855 275.416ZM110.738 276.887C111.305 276.887 111.742 276.76 112.051 276.506C112.359 276.252 112.514 275.889 112.514 275.416C112.514 274.943 112.357 274.578 112.045 274.32C111.736 274.066 111.299 273.939 110.732 273.939H109.168V276.887H110.738ZM117.412 277.051C117.885 277.051 118.279 276.916 118.596 276.646C118.912 276.373 119.07 276.027 119.07 275.609V275.111L117.523 275.217C116.645 275.271 116.205 275.584 116.205 276.154C116.205 276.428 116.314 276.645 116.533 276.805C116.752 276.969 117.045 277.051 117.412 277.051ZM117.072 278.064C116.436 278.064 115.918 277.893 115.52 277.549C115.121 277.201 114.922 276.744 114.922 276.178C114.922 275.623 115.131 275.188 115.549 274.871C115.963 274.555 116.564 274.371 117.354 274.32L119.07 274.221V273.729C119.07 273.365 118.953 273.086 118.719 272.891C118.488 272.699 118.16 272.604 117.734 272.604C117.391 272.604 117.1 272.686 116.861 272.85C116.627 273.014 116.482 273.234 116.428 273.512H115.238C115.258 272.949 115.506 272.482 115.982 272.111C116.459 271.74 117.055 271.555 117.77 271.555C118.547 271.555 119.166 271.744 119.627 272.123C120.092 272.502 120.324 273.006 120.324 273.635V278H119.111V276.939H119.082C118.906 277.283 118.637 277.557 118.273 277.76C117.91 277.963 117.51 278.064 117.072 278.064ZM123.922 278.117C123.18 278.117 122.574 277.949 122.105 277.613C121.629 277.273 121.361 276.814 121.303 276.236H122.557C122.689 276.811 123.145 277.098 123.922 277.098C124.34 277.098 124.666 277.008 124.9 276.828C125.131 276.652 125.246 276.418 125.246 276.125C125.246 275.496 124.805 275.182 123.922 275.182H122.99V274.238H123.904C124.666 274.238 125.047 273.951 125.047 273.377C125.047 273.119 124.955 272.916 124.771 272.768C124.576 272.607 124.297 272.527 123.934 272.527C123.578 272.527 123.287 272.6 123.061 272.744C122.834 272.889 122.699 273.088 122.656 273.342H121.438C121.504 272.779 121.758 272.334 122.199 272.006C122.648 271.678 123.225 271.514 123.928 271.514C124.678 271.514 125.262 271.674 125.68 271.994C126.082 272.307 126.283 272.73 126.283 273.266C126.283 273.59 126.189 273.877 126.002 274.127C125.814 274.381 125.564 274.545 125.252 274.619V274.666C126.084 274.861 126.5 275.344 126.5 276.113C126.5 276.719 126.266 277.203 125.797 277.566C125.328 277.934 124.703 278.117 123.922 278.117ZM133.303 271.637H134.562V278H133.303V271.637ZM128.932 274.607V276.998H130.045C130.428 276.998 130.734 276.889 130.965 276.67C131.191 276.451 131.305 276.162 131.305 275.803C131.305 275.439 131.189 275.148 130.959 274.93C130.732 274.715 130.428 274.607 130.045 274.607H128.932ZM127.672 271.637H128.932V273.611H130.145C130.883 273.611 131.471 273.809 131.908 274.203C132.346 274.598 132.564 275.131 132.564 275.803C132.564 276.475 132.346 277.01 131.908 277.408C131.471 277.803 130.883 278 130.145 278H127.672V271.637ZM140.914 274.73C140.852 275.738 140.658 276.434 140.334 276.816V276.863H144.201V270.676H141.172L140.914 274.73ZM139.408 279.67H138.201V276.863H138.816C139.336 276.562 139.629 275.832 139.695 274.672L140.006 269.545H145.514V276.863H146.568V279.67H145.367V278H139.408V279.67ZM149.803 277.051C150.275 277.051 150.67 276.916 150.986 276.646C151.303 276.373 151.461 276.027 151.461 275.609V275.111L149.914 275.217C149.035 275.271 148.596 275.584 148.596 276.154C148.596 276.428 148.705 276.645 148.924 276.805C149.143 276.969 149.436 277.051 149.803 277.051ZM149.463 278.064C148.826 278.064 148.309 277.893 147.91 277.549C147.512 277.201 147.312 276.744 147.312 276.178C147.312 275.623 147.521 275.188 147.939 274.871C148.354 274.555 148.955 274.371 149.744 274.32L151.461 274.221V273.729C151.461 273.365 151.344 273.086 151.109 272.891C150.879 272.699 150.551 272.604 150.125 272.604C149.781 272.604 149.49 272.686 149.252 272.85C149.018 273.014 148.873 273.234 148.818 273.512H147.629C147.648 272.949 147.896 272.482 148.373 272.111C148.85 271.74 149.445 271.555 150.16 271.555C150.938 271.555 151.557 271.744 152.018 272.123C152.482 272.502 152.715 273.006 152.715 273.635V278H151.502V276.939H151.473C151.297 277.283 151.027 277.557 150.664 277.76C150.301 277.963 149.9 278.064 149.463 278.064ZM158.293 275.211H155.311V278H154.051V271.637H155.311V274.203H158.293V271.637H159.553V278H158.293V275.211ZM165.219 275.211H162.236V278H160.977V271.637H162.236V274.203H165.219V271.637H166.479V278H165.219V275.211ZM173.533 271.637H174.793V278H173.533V271.637ZM169.162 274.607V276.998H170.275C170.658 276.998 170.965 276.889 171.195 276.67C171.422 276.451 171.535 276.162 171.535 275.803C171.535 275.439 171.42 275.148 171.189 274.93C170.963 274.715 170.658 274.607 170.275 274.607H169.162ZM167.902 271.637H169.162V273.611H170.375C171.113 273.611 171.701 273.809 172.139 274.203C172.576 274.598 172.795 275.131 172.795 275.803C172.795 276.475 172.576 277.01 172.139 277.408C171.701 277.803 171.113 278 170.375 278H167.902V271.637ZM178.549 275.639L177.119 278H175.742L177.857 274.824L175.766 271.637H177.189L178.602 273.951H178.631L180.031 271.637H181.426L179.328 274.777L181.402 278H180.002L178.578 275.639H178.549Z" fill="#1D1D1F"/>
<path d="M239.324 219V211.676H236.465L236.213 215.771C236.146 216.9 235.936 217.727 235.58 218.25C235.217 218.789 234.668 219.059 233.934 219.059C233.742 219.059 233.578 219.037 233.441 218.994V217.834C233.551 217.861 233.666 217.875 233.787 217.875C234.178 217.875 234.467 217.701 234.654 217.354C234.838 217.018 234.951 216.469 234.994 215.707L235.275 210.545H240.637V219H239.324ZM247.492 219.123C246.641 219.123 245.955 218.865 245.436 218.35C244.912 217.834 244.617 217.121 244.551 216.211H243.473V219H242.213V212.637H243.473V215.203H244.568C244.674 214.359 244.982 213.699 245.494 213.223C246.01 212.75 246.676 212.514 247.492 212.514C248.41 212.514 249.133 212.807 249.66 213.393C250.188 213.982 250.451 214.791 250.451 215.818C250.451 216.85 250.188 217.658 249.66 218.244C249.133 218.83 248.41 219.123 247.492 219.123ZM247.492 218.051C248.023 218.051 248.434 217.855 248.723 217.465C249.012 217.078 249.156 216.529 249.156 215.818C249.156 215.107 249.012 214.557 248.723 214.166C248.434 213.775 248.023 213.58 247.492 213.58C246.961 213.58 246.551 213.775 246.262 214.166C245.969 214.557 245.822 215.107 245.822 215.818C245.822 216.529 245.967 217.078 246.256 217.465C246.549 217.855 246.961 218.051 247.492 218.051ZM254.424 219.123C253.428 219.123 252.67 218.799 252.15 218.15C251.631 217.502 251.371 216.549 251.371 215.291C251.371 213.51 251.641 212.221 252.18 211.424C252.719 210.635 253.598 210.217 254.816 210.17L255.367 210.152C256.137 210.117 256.691 210.012 257.031 209.836V210.891C256.809 211.09 256.277 211.205 255.438 211.236L254.893 211.254C254.061 211.281 253.463 211.506 253.1 211.928C252.764 212.318 252.531 212.994 252.402 213.955H252.449C252.871 213.182 253.598 212.795 254.629 212.795C255.488 212.795 256.174 213.074 256.686 213.633C257.193 214.188 257.447 214.938 257.447 215.883C257.447 216.883 257.178 217.674 256.639 218.256C256.096 218.834 255.357 219.123 254.424 219.123ZM254.412 218.051C254.963 218.051 255.391 217.863 255.695 217.488C256 217.113 256.152 216.582 256.152 215.895C256.152 215.242 256 214.736 255.695 214.377C255.391 214.018 254.963 213.838 254.412 213.838C253.861 213.838 253.434 214.018 253.129 214.377C252.824 214.736 252.672 215.242 252.672 215.895C252.672 216.582 252.824 217.113 253.129 217.488C253.43 217.863 253.857 218.051 254.412 218.051ZM264.227 212.637H265.486V219H264.227V212.637ZM259.855 215.607V217.998H260.969C261.352 217.998 261.658 217.889 261.889 217.67C262.115 217.451 262.229 217.162 262.229 216.803C262.229 216.439 262.113 216.148 261.883 215.93C261.656 215.715 261.352 215.607 260.969 215.607H259.855ZM258.596 212.637H259.855V214.611H261.068C261.807 214.611 262.395 214.809 262.832 215.203C263.27 215.598 263.488 216.131 263.488 216.803C263.488 217.475 263.27 218.01 262.832 218.408C262.395 218.803 261.807 219 261.068 219H258.596V212.637ZM269.553 213.592C269.096 213.592 268.717 213.744 268.416 214.049C268.111 214.354 267.941 214.75 267.906 215.238H271.135C271.119 214.742 270.967 214.344 270.678 214.043C270.389 213.742 270.014 213.592 269.553 213.592ZM272.342 217.137C272.252 217.707 271.953 218.174 271.445 218.537C270.938 218.896 270.326 219.076 269.611 219.076C268.689 219.076 267.959 218.785 267.42 218.203C266.885 217.625 266.617 216.838 266.617 215.842C266.617 214.846 266.885 214.049 267.42 213.451C267.955 212.854 268.668 212.555 269.559 212.555C270.434 212.555 271.127 212.838 271.639 213.404C272.15 213.967 272.406 214.73 272.406 215.695V216.141H267.9V216.217C267.9 216.768 268.059 217.209 268.375 217.541C268.691 217.877 269.111 218.045 269.635 218.045C270.006 218.045 270.326 217.963 270.596 217.799C270.865 217.635 271.043 217.414 271.129 217.137H272.342ZM246.619 230.715H243.396L242.623 233H241.258L244.311 224.545H245.729L248.781 233H247.393L246.619 230.715ZM243.73 229.66H246.285L245.025 225.951H244.99L243.73 229.66ZM255.854 230.416C255.854 231.182 255.596 231.805 255.08 232.285C254.561 232.762 253.891 233 253.07 233H249.854V224.545H255.033V225.676H251.166V227.844H253.041C253.869 227.844 254.545 228.082 255.068 228.559C255.592 229.035 255.854 229.654 255.854 230.416ZM252.736 231.887C253.303 231.887 253.74 231.76 254.049 231.506C254.357 231.252 254.512 230.889 254.512 230.416C254.512 229.943 254.355 229.578 254.043 229.32C253.734 229.066 253.297 228.939 252.73 228.939H251.166V231.887H252.736ZM260.904 233.158C259.713 233.158 258.77 232.764 258.074 231.975C257.375 231.186 257.025 230.117 257.025 228.77C257.025 227.434 257.377 226.369 258.08 225.576C258.779 224.783 259.721 224.387 260.904 224.387C261.834 224.387 262.627 224.645 263.283 225.16C263.936 225.68 264.332 226.361 264.473 227.205H263.154C263.018 226.705 262.746 226.305 262.34 226.004C261.93 225.703 261.451 225.553 260.904 225.553C260.135 225.553 259.521 225.844 259.064 226.426C258.604 227.012 258.373 227.793 258.373 228.77C258.373 229.758 258.602 230.541 259.059 231.119C259.516 231.701 260.133 231.992 260.91 231.992C261.473 231.992 261.951 231.861 262.346 231.6C262.736 231.338 263.006 230.971 263.154 230.498H264.473C264.289 231.338 263.887 231.99 263.266 232.455C262.641 232.924 261.854 233.158 260.904 233.158Z" fill="#1D1D1F"/>
<path d="M145 56.25H157.5V61.25H145V56.25ZM145 73.75H157.5V78.75H145V73.75ZM160 45H125C122.25 45 120 47.25 120 50V85C120 87.75 122.25 90 125 90H160C162.75 90 165 87.75 165 85V50C165 47.25 162.75 45 160 45ZM160 85H125V50H160V85ZM140 52.5H127.5V65H140V52.5ZM137.5 62.5H130V55H137.5V62.5ZM140 70H127.5V82.5H140V70ZM137.5 80H130V72.5H137.5V80Z" fill="#3462F2"/>
<path d="M160 244V254H125V244H160ZM162.5 239H122.5C121.125 239 120 240.125 120 241.5V256.5C120 257.875 121.125 259 122.5 259H162.5C163.875 259 165 257.875 165 256.5V241.5C165 240.125 163.875 239 162.5 239ZM130 252.75C127.95 252.75 126.25 251.075 126.25 249C126.25 246.925 127.95 245.25 130 245.25C132.05 245.25 133.75 246.925 133.75 249C133.75 251.075 132.075 252.75 130 252.75ZM160 219V229H125V219H160ZM162.5 214H122.5C121.125 214 120 215.125 120 216.5V231.5C120 232.875 121.125 234 122.5 234H162.5C163.875 234 165 232.875 165 231.5V216.5C165 215.125 163.875 214 162.5 214ZM130 227.75C127.95 227.75 126.25 226.075 126.25 224C126.25 221.925 127.95 220.25 130 220.25C132.05 220.25 133.75 221.95 133.75 224C133.75 226.05 132.075 227.75 130 227.75Z" fill="#3462F2"/>
<path d="M232 53H277V48H232C229.25 48 227 50.25 227 53V80.5H222V88H257V80.5H232V53ZM279.5 58H264.5C263.125 58 262 59.125 262 60.5V85.5C262 86.875 263.125 88 264.5 88H279.5C280.875 88 282 86.875 282 85.5V60.5C282 59.125 280.875 58 279.5 58ZM277 80.5H267V63H277V80.5Z" fill="#1D1D1F"/>
<path d="M234.965 105V96.5449H236.277V105H234.965ZM237.836 105V96.5449H239.025L243.408 102.779H243.455V96.5449H244.732V105H243.549L239.166 98.7715H239.113V105H237.836ZM249.865 105.141C248.678 105.141 247.736 104.748 247.041 103.963C246.342 103.178 245.992 102.113 245.992 100.77C245.992 99.4336 246.342 98.3711 247.041 97.582C247.74 96.7969 248.682 96.4043 249.865 96.4043C250.826 96.4043 251.635 96.6738 252.291 97.2129C252.955 97.7559 253.342 98.4668 253.451 99.3457H252.15C252.033 98.8027 251.768 98.3691 251.354 98.0449C250.936 97.7168 250.439 97.5527 249.865 97.5527C249.096 97.5527 248.482 97.8438 248.025 98.4258C247.564 99.0117 247.334 99.793 247.334 100.77C247.334 101.758 247.562 102.541 248.02 103.119C248.477 103.701 249.094 103.992 249.871 103.992C250.457 103.992 250.951 103.85 251.354 103.564C251.752 103.279 252.018 102.881 252.15 102.369H253.457C253.297 103.244 252.9 103.924 252.268 104.408C251.639 104.896 250.838 105.141 249.865 105.141ZM259.27 102.715H256.047L255.273 105H253.908L256.961 96.5449H258.379L261.432 105H260.043L259.27 102.715ZM256.381 101.66H258.936L257.676 97.9512H257.641L256.381 101.66ZM263.213 102.645C263.26 103.062 263.469 103.398 263.84 103.652C264.211 103.906 264.676 104.033 265.234 104.033C265.766 104.033 266.205 103.91 266.553 103.664C266.896 103.418 267.068 103.105 267.068 102.727C267.068 102.398 266.945 102.131 266.699 101.924C266.453 101.713 266.057 101.541 265.51 101.408L264.414 101.145C262.898 100.777 262.141 100.018 262.141 98.8652C262.141 98.1387 262.428 97.5469 263.002 97.0898C263.572 96.6328 264.311 96.4043 265.217 96.4043C266.107 96.4043 266.834 96.6328 267.396 97.0898C267.959 97.543 268.25 98.1348 268.27 98.8652H266.992C266.953 98.4473 266.771 98.1152 266.447 97.8691C266.127 97.6309 265.711 97.5117 265.199 97.5117C264.691 97.5117 264.277 97.6289 263.957 97.8633C263.641 98.0977 263.482 98.4023 263.482 98.7773C263.482 99.0742 263.602 99.3184 263.84 99.5098C264.078 99.6973 264.471 99.8594 265.018 99.9961L265.949 100.225C266.816 100.428 267.443 100.715 267.83 101.086C268.213 101.453 268.404 101.947 268.404 102.568C268.404 103.357 268.111 103.984 267.525 104.449C266.939 104.91 266.145 105.141 265.141 105.141C264.199 105.141 263.438 104.916 262.855 104.467C262.27 104.014 261.957 103.406 261.918 102.645H263.213ZM217.967 119V112.637H219.549L221.629 117.348H221.676L223.768 112.637H225.303V119H224.078V114.564H224.031L222.098 118.76H221.166L219.238 114.564H219.191V119H217.967ZM229.445 119.076C228.523 119.076 227.791 118.783 227.248 118.197C226.705 117.611 226.434 116.818 226.434 115.818C226.434 114.822 226.707 114.029 227.254 113.439C227.797 112.85 228.527 112.555 229.445 112.555C230.363 112.555 231.094 112.848 231.637 113.434C232.18 114.023 232.451 114.818 232.451 115.818C232.451 116.818 232.18 117.611 231.637 118.197C231.098 118.783 230.367 119.076 229.445 119.076ZM229.445 118.021C229.984 118.021 230.406 117.828 230.711 117.441C231.012 117.055 231.162 116.514 231.162 115.818C231.162 115.123 231.012 114.582 230.711 114.195C230.406 113.805 229.984 113.609 229.445 113.609C228.906 113.609 228.484 113.805 228.18 114.195C227.875 114.586 227.723 115.127 227.723 115.818C227.723 116.51 227.875 117.051 228.18 117.441C228.484 117.828 228.906 118.021 229.445 118.021ZM237.842 116.211H234.859V119H233.6V112.637H234.859V115.203H237.842V112.637H239.102V119H237.842V116.211ZM240.525 119V112.637H241.773V117.137H241.82L244.861 112.637H246.109V119H244.861V114.482H244.814L241.773 119H240.525ZM252.344 113.645H250.334V119H249.08V113.645H247.07V112.637H252.344V113.645ZM255.93 119.076C255.008 119.076 254.275 118.783 253.732 118.197C253.189 117.611 252.918 116.818 252.918 115.818C252.918 114.822 253.191 114.029 253.738 113.439C254.281 112.85 255.012 112.555 255.93 112.555C256.848 112.555 257.578 112.848 258.121 113.434C258.664 114.023 258.936 114.818 258.936 115.818C258.936 116.818 258.664 117.611 258.121 118.197C257.582 118.783 256.852 119.076 255.93 119.076ZM255.93 118.021C256.469 118.021 256.891 117.828 257.195 117.441C257.496 117.055 257.646 116.514 257.646 115.818C257.646 115.123 257.496 114.582 257.195 114.195C256.891 113.805 256.469 113.609 255.93 113.609C255.391 113.609 254.969 113.805 254.664 114.195C254.359 114.586 254.207 115.127 254.207 115.818C254.207 116.51 254.359 117.051 254.664 117.441C254.969 117.828 255.391 118.021 255.93 118.021ZM263.365 112.572C264.178 112.572 264.828 112.867 265.316 113.457C265.809 114.047 266.055 114.834 266.055 115.818C266.055 116.799 265.811 117.586 265.322 118.18C264.838 118.77 264.195 119.064 263.395 119.064C262.449 119.064 261.777 118.695 261.379 117.957H261.355V121.08H260.084V112.637H261.309V113.691H261.338C261.518 113.348 261.789 113.076 262.152 112.877C262.52 112.674 262.924 112.572 263.365 112.572ZM263.043 117.986C263.559 117.986 263.973 117.789 264.285 117.395C264.598 117 264.754 116.475 264.754 115.818C264.754 115.162 264.598 114.637 264.285 114.242C263.973 113.848 263.559 113.65 263.043 113.65C262.539 113.65 262.131 113.85 261.818 114.248C261.506 114.646 261.348 115.17 261.344 115.818C261.348 116.467 261.506 116.99 261.818 117.389C262.127 117.787 262.535 117.986 263.043 117.986ZM267.197 119V112.637H268.445V117.137H268.492L271.533 112.637H272.781V119H271.533V114.482H271.486L268.445 119H267.197ZM278.447 116.211H275.465V119H274.205V112.637H275.465V115.203H278.447V112.637H279.707V119H278.447V116.211ZM282.391 113.645V119H281.131V112.637H285.332V113.645H282.391Z" fill="#1D1D1F"/>
<path d="M25.6445 102.715H22.4219L21.6484 105H20.2832L23.3359 96.5449H24.7539L27.8066 105H26.418L25.6445 102.715ZM22.7559 101.66H25.3105L24.0508 97.9512H24.0156L22.7559 101.66ZM30.8945 101.73C30.832 102.738 30.6387 103.434 30.3145 103.816V103.863H34.1816V97.6758H31.1523L30.8945 101.73ZM29.3887 106.67H28.1816V103.863H28.7969C29.3164 103.562 29.6094 102.832 29.6758 101.672L29.9863 96.5449H35.4941V103.863H36.5488V106.67H35.3477V105H29.3887V106.67ZM46.2578 105H45.0566V98.7773H45.0156L42.4668 104.936H41.4941L38.9395 98.7773H38.8984V105H37.7031V96.5449H39.2207L41.957 103.219H42.0039L44.7344 96.5449H46.2578V105ZM50.6172 105V98.6367H51.8652V103.137H51.9121L54.9531 98.6367H56.2012V105H54.9531V100.482H54.9062L51.8652 105H50.6172ZM0.882812 119V110.545H2.19531V119H0.882812ZM3.75391 119V110.545H4.94336L9.32617 116.779H9.37305V110.545H10.6504V119H9.4668L5.08398 112.771H5.03125V119H3.75391ZM15.7832 119.141C14.5957 119.141 13.6543 118.748 12.959 117.963C12.2598 117.178 11.9102 116.113 11.9102 114.77C11.9102 113.434 12.2598 112.371 12.959 111.582C13.6582 110.797 14.5996 110.404 15.7832 110.404C16.7441 110.404 17.5527 110.674 18.209 111.213C18.873 111.756 19.2598 112.467 19.3691 113.346H18.0684C17.9512 112.803 17.6855 112.369 17.2715 112.045C16.8535 111.717 16.3574 111.553 15.7832 111.553C15.0137 111.553 14.4004 111.844 13.9434 112.426C13.4824 113.012 13.252 113.793 13.252 114.77C13.252 115.758 13.4805 116.541 13.9375 117.119C14.3945 117.701 15.0117 117.992 15.7891 117.992C16.375 117.992 16.8691 117.85 17.2715 117.564C17.6699 117.279 17.9355 116.881 18.0684 116.369H19.375C19.2148 117.244 18.8184 117.924 18.1855 118.408C17.5566 118.896 16.7559 119.141 15.7832 119.141ZM25.1875 116.715H21.9648L21.1914 119H19.8262L22.8789 110.545H24.2969L27.3496 119H25.9609L25.1875 116.715ZM22.2988 115.66H24.8535L23.5938 111.951H23.5586L22.2988 115.66ZM29.1309 116.645C29.1777 117.062 29.3867 117.398 29.7578 117.652C30.1289 117.906 30.5938 118.033 31.1523 118.033C31.6836 118.033 32.123 117.91 32.4707 117.664C32.8145 117.418 32.9863 117.105 32.9863 116.727C32.9863 116.398 32.8633 116.131 32.6172 115.924C32.3711 115.713 31.9746 115.541 31.4277 115.408L30.332 115.145C28.8164 114.777 28.0586 114.018 28.0586 112.865C28.0586 112.139 28.3457 111.547 28.9199 111.09C29.4902 110.633 30.2285 110.404 31.1348 110.404C32.0254 110.404 32.752 110.633 33.3145 111.09C33.877 111.543 34.168 112.135 34.1875 112.865H32.9102C32.8711 112.447 32.6895 112.115 32.3652 111.869C32.0449 111.631 31.6289 111.512 31.1172 111.512C30.6094 111.512 30.1953 111.629 29.875 111.863C29.5586 112.098 29.4004 112.402 29.4004 112.777C29.4004 113.074 29.5195 113.318 29.7578 113.51C29.9961 113.697 30.3887 113.859 30.9355 113.996L31.8672 114.225C32.7344 114.428 33.3613 114.715 33.748 115.086C34.1309 115.453 34.3223 115.947 34.3223 116.568C34.3223 117.357 34.0293 117.984 33.4434 118.449C32.8574 118.91 32.0625 119.141 31.0586 119.141C30.1172 119.141 29.3555 118.916 28.7734 118.467C28.1875 118.014 27.875 117.406 27.8359 116.645H29.1309ZM43.6562 119H42.0684L39.502 116.041H39.4551V119H38.1953V112.637H39.4551V115.373H39.502L42.0391 112.637H43.5508L40.7148 115.631L43.6562 119ZM46.375 116.117C46.3086 117.09 46.1387 117.805 45.8652 118.262C45.5488 118.793 45.0586 119.059 44.3945 119.059C44.2188 119.059 44.0742 119.037 43.9609 118.994V117.875C44.0664 117.906 44.1777 117.922 44.2949 117.922C44.5918 117.922 44.8145 117.752 44.9629 117.412C45.0918 117.119 45.1758 116.67 45.2148 116.064L45.4434 112.637H49.8379V119H48.5781V113.645H46.5566L46.375 116.117ZM51.2617 119V112.637H52.5098V117.137H52.5566L55.5977 112.637H56.8457V119H55.5977V114.482H55.5508L52.5098 119H51.2617ZM60.918 113.592C60.4609 113.592 60.082 113.744 59.7812 114.049C59.4766 114.354 59.3066 114.75 59.2715 115.238H62.5C62.4844 114.742 62.332 114.344 62.043 114.043C61.7539 113.742 61.3789 113.592 60.918 113.592ZM63.707 117.137C63.6172 117.707 63.3184 118.174 62.8105 118.537C62.3027 118.896 61.6914 119.076 60.9766 119.076C60.0547 119.076 59.3242 118.785 58.7852 118.203C58.25 117.625 57.9824 116.838 57.9824 115.842C57.9824 114.846 58.25 114.049 58.7852 113.451C59.3203 112.854 60.0332 112.555 60.9238 112.555C61.7988 112.555 62.4922 112.838 63.0039 113.404C63.5156 113.967 63.7715 114.73 63.7715 115.695V116.141H59.2656V116.217C59.2656 116.768 59.4238 117.209 59.7402 117.541C60.0566 117.877 60.4766 118.045 61 118.045C61.3711 118.045 61.6914 117.963 61.9609 117.799C62.2305 117.635 62.4082 117.414 62.4941 117.137H63.707ZM69.1445 116.211H66.1621V119H64.9023V112.637H66.1621V115.203H69.1445V112.637H70.4043V119H69.1445V116.211ZM76.6387 113.645H74.6289V119H73.375V113.645H71.3652V112.637H76.6387V113.645Z" fill="#1D1D1F"/>
<path d="M68 68H108" stroke="#515154" stroke-width="3"/>
<path d="M114.5 67.134C115.167 67.5189 115.167 68.4811 114.5 68.866L108.5 72.3301C107.833 72.715 107 72.2339 107 71.4641V64.5359C107 63.7661 107.833 63.285 108.5 63.6699L114.5 67.134Z" fill="#515154"/>
<path d="M177 68H217" stroke="#515154" stroke-width="3"/>
<path d="M201 68L201 183" stroke="#515154" stroke-width="3"/>
<path d="M223.5 67.134C224.167 67.5189 224.167 68.4811 223.5 68.866L217.5 72.3301C216.833 72.715 216 72.2339 216 71.4641V64.5359C216 63.7661 216.833 63.285 217.5 63.6699L223.5 67.134Z" fill="#515154"/>
<path d="M170.5 68.866C169.833 68.4811 169.833 67.5189 170.5 67.134L176.5 63.6699C177.167 63.285 178 63.7661 178 64.5359V71.4641C178 72.2339 177.167 72.715 176.5 72.3301L170.5 68.866Z" fill="#515154"/>
<path d="M143 145V185" stroke="#515154" stroke-width="3"/>
<path d="M143.866 191.5C143.481 192.167 142.519 192.167 142.134 191.5L138.67 185.5C138.285 184.833 138.766 184 139.536 184H146.464C147.234 184 147.715 184.833 147.33 185.5L143.866 191.5Z" fill="#515154"/>
<path d="M142.134 138.5C142.519 137.833 143.481 137.833 143.866 138.5L147.33 144.5C147.715 145.167 147.234 146 146.464 146H139.536C138.766 146 138.285 145.167 138.67 144.5L142.134 138.5Z" fill="#515154"/>
<path d="M199.5 182H217" stroke="#515154" stroke-width="3"/>
<path d="M223.5 181.134C224.167 181.519 224.167 182.481 223.5 182.866L217.5 186.33C216.833 186.715 216 186.234 216 185.464V178.536C216 177.766 216.833 177.285 217.5 177.67L223.5 181.134Z" fill="#515154"/>
</svg>
